<?xml version="1.0" encoding="utf-8"?><svg fill="none" viewBox="0 0 1092 1092" xmlns="http://www.w3.org/2000/svg"><defs /><g id="car"><g transform="translate(500.625,596.78)"><animateTransform repeatCount="indefinite" type="translate" attributeName="transform" dur="1s" begin="0s" calcMode="spline" values="500.625 596.78; 500.625 590.78; 500.625 596.8" keyTimes="0; 0.5; 1" keySplines="0.333 0 0.667 1; 0.333 0 0.667 1" fill="freeze" /><g transform="scale(1,1) translate(-259.657,-174.288)"><g id="Group 26" transform="matrix(1,0,0,1,108.346,185.06)"><path fill="#1a1a1a" fill-opacity="1" d="M-7.36,21.972C-5.044,22.751,-2.574,23.191,0,23.191C2.575,23.191,5.044,22.751,7.359,21.973L10.006,25.617C6.904,26.83,3.532,27.503,0,27.503C-3.531,27.503,-6.905,26.83,-10.007,25.617L-7.36,21.972ZM-18.81,20.054L-16.245,16.524C-14.612,18.129,-12.743,19.486,-10.696,20.555L-13.266,24.093C-15.283,22.98,-17.143,21.618,-18.81,20.054ZM-27.453,-1.601L-23.18,-0.213C-23.181,-0.142,-23.191,-0.072,-23.191,-0.001C-23.191,5.161,-21.476,9.918,-18.614,13.774L-21.271,17.432C-25.164,12.687,-27.503,6.616,-27.503,-0.001C-27.503,-0.539,-27.484,-1.071,-27.453,-1.601ZM-20.728,-10.34C-21.742,-8.315,-22.465,-6.127,-22.849,-3.821L-27.01,-5.171C-26.575,-7.459,-25.859,-9.647,-24.894,-11.695L-20.728,-10.34ZM-6.961,-26.611L-6.961,-22.122C-11.81,-20.591,-15.962,-17.497,-18.859,-13.447L-23.149,-14.842C-19.468,-20.572,-13.724,-24.847,-6.961,-26.611ZM3.429,-22.908C2.307,-23.076,1.167,-23.192,0,-23.192C-1.168,-23.192,-2.306,-23.076,-3.429,-22.908L-3.429,-27.282C-2.304,-27.423,-1.162,-27.502,0,-27.502C1.163,-27.502,2.305,-27.423,3.429,-27.282L3.429,-22.908ZM14.259,-1.028C14.088,-3.412,13.336,-5.631,12.141,-7.55L17.341,-9.24C18.408,-7.245,19.125,-5.042,19.449,-2.715L14.259,-1.028ZM12.973,6.012C13.449,4.985,13.816,3.898,14.039,2.758L19.61,0.947C19.438,4.56,18.3,7.921,16.428,10.768L12.973,6.012ZM-1.712,14.199C-1.15,14.265,-0.58,14.309,0,14.309C0.58,14.309,1.149,14.265,1.71,14.199L5.161,18.947C3.513,19.396,1.788,19.658,0,19.658C-1.789,19.658,-3.514,19.396,-5.161,18.947L-1.712,14.199ZM-10.937,9.218C-9.453,10.976,-7.554,12.37,-5.39,13.251L-8.589,17.654C-10.67,16.638,-12.548,15.275,-14.138,13.624L-10.937,9.218ZM-14.038,2.757C-13.815,3.897,-13.45,4.984,-12.972,6.011L-16.428,10.768C-18.301,7.921,-19.437,4.559,-19.611,0.947L-14.038,2.757ZM-12.14,-7.55C-13.336,-5.631,-14.088,-3.412,-14.258,-1.028L-19.449,-2.715C-19.125,-5.042,-18.409,-7.245,-17.342,-9.24L-12.14,-7.55ZM-6.961,-12.498C-7.964,-11.938,-8.886,-11.255,-9.722,-10.48L-15.315,-12.296C-13.138,-15.001,-10.26,-17.108,-6.961,-18.363L-6.961,-12.498ZM3.429,-13.88C2.329,-14.151,1.185,-14.311,0,-14.311C-1.184,-14.311,-2.328,-14.151,-3.429,-13.88L-3.429,-19.339C-2.313,-19.537,-1.171,-19.66,0,-19.66C1.172,-19.66,2.313,-19.537,3.429,-19.339L3.429,-13.88ZM9.722,-10.479C8.886,-11.256,7.964,-11.938,6.962,-12.498L6.962,-18.363C10.261,-17.107,13.139,-15.001,15.315,-12.295L9.722,-10.479ZM8.589,17.654L5.389,13.253C7.554,12.37,9.452,10.977,10.937,9.218L14.138,13.626C12.548,15.276,10.67,16.638,8.589,17.654ZM18.81,20.054C17.142,21.619,15.283,22.98,13.266,24.093L10.696,20.555C12.742,19.486,14.612,18.129,16.244,16.524L18.81,20.054ZM27.011,-5.171L22.849,-3.818C22.464,-6.126,21.742,-8.315,20.728,-10.34L24.895,-11.695C25.858,-9.647,26.575,-7.459,27.011,-5.171ZM23.149,-14.842L18.858,-13.447C15.962,-17.497,11.811,-20.591,6.962,-22.122L6.962,-26.611C13.724,-24.847,19.467,-20.572,23.149,-14.842ZM27.503,-0.001C27.503,6.617,25.165,12.688,21.27,17.433L18.613,13.775C21.475,9.917,23.191,5.161,23.191,-0.001C23.191,-0.072,23.18,-0.142,23.18,-0.213L27.453,-1.601C27.483,-1.071,27.503,-0.539,27.503,-0.001ZM0,-51.287C-28.325,-51.287,-51.288,-28.325,-51.288,-0.002C-51.288,28.322,-28.325,51.287,0,51.287C28.325,51.287,51.288,28.322,51.288,-0.002C51.288,-28.325,28.325,-51.287,0,-51.287Z" /></g><g id="Group 25" transform="matrix(1,0,0,1,471.271,185.06)"><path fill="#1a1a1a" fill-opacity="1" d="M-7.36,21.972C-5.044,22.751,-2.574,23.191,-0.001,23.191C2.575,23.191,5.044,22.751,7.359,21.973L10.006,25.617C6.904,26.83,3.531,27.503,0,27.503C-3.531,27.503,-6.905,26.83,-10.007,25.617L-7.36,21.972ZM-18.81,20.054L-16.245,16.524C-14.613,18.129,-12.744,19.486,-10.697,20.555L-13.266,24.093C-15.283,22.98,-17.143,21.618,-18.81,20.054ZM-27.453,-1.601L-23.18,-0.213C-23.181,-0.142,-23.191,-0.072,-23.191,-0.001C-23.191,5.161,-21.476,9.918,-18.614,13.774L-21.271,17.432C-25.165,12.687,-27.503,6.616,-27.503,-0.001C-27.503,-0.539,-27.484,-1.071,-27.453,-1.601ZM-20.728,-10.34C-21.743,-8.315,-22.465,-6.127,-22.849,-3.821L-27.011,-5.171C-26.575,-7.459,-25.859,-9.647,-24.895,-11.695L-20.728,-10.34ZM-6.962,-26.611L-6.962,-22.122C-11.81,-20.591,-15.962,-17.497,-18.859,-13.447L-23.149,-14.842C-19.468,-20.572,-13.725,-24.847,-6.962,-26.611ZM3.428,-22.908C2.306,-23.076,1.167,-23.192,-0.001,-23.192C-1.168,-23.192,-2.308,-23.076,-3.43,-22.908L-3.43,-27.282C-2.305,-27.423,-1.162,-27.502,0,-27.502C1.163,-27.502,2.305,-27.423,3.428,-27.282L3.428,-22.908ZM14.257,-1.028C14.087,-3.412,13.335,-5.631,12.139,-7.55L17.341,-9.24C18.408,-7.245,19.125,-5.042,19.448,-2.715L14.257,-1.028ZM12.972,6.012C13.449,4.985,13.816,3.898,14.039,2.758L19.61,0.947C19.436,4.56,18.3,7.921,16.428,10.768L12.972,6.012ZM-1.712,14.199C-1.15,14.265,-0.58,14.309,-0.001,14.309C0.58,14.309,1.149,14.265,1.71,14.199L5.161,18.947C3.513,19.396,1.788,19.658,-0.001,19.658C-1.789,19.658,-3.515,19.396,-5.161,18.947L-1.712,14.199ZM-10.937,9.218C-9.453,10.976,-7.554,12.37,-5.39,13.251L-8.589,17.654C-10.671,16.638,-12.548,15.275,-14.14,13.624L-10.937,9.218ZM-14.038,2.757C-13.815,3.897,-13.45,4.984,-12.974,6.011L-16.428,10.768C-18.301,7.921,-19.438,4.559,-19.611,0.947L-14.038,2.757ZM-12.14,-7.55C-13.337,-5.631,-14.089,-3.412,-14.259,-1.028L-19.45,-2.715C-19.125,-5.042,-18.409,-7.245,-17.342,-9.24L-12.14,-7.55ZM-6.962,-12.498C-7.965,-11.938,-8.887,-11.255,-9.722,-10.48L-15.315,-12.296C-13.139,-15.001,-10.26,-17.108,-6.962,-18.363L-6.962,-12.498ZM3.428,-13.88C2.329,-14.151,1.183,-14.311,-0.001,-14.311C-1.185,-14.311,-2.328,-14.151,-3.43,-13.88L-3.43,-19.339C-2.313,-19.537,-1.172,-19.66,-0.001,-19.66C1.172,-19.66,2.313,-19.537,3.428,-19.339L3.428,-13.88ZM9.722,-10.479C8.886,-11.256,7.964,-11.938,6.96,-12.498L6.96,-18.363C10.26,-17.107,13.139,-15.001,15.315,-12.295L9.722,-10.479ZM8.589,17.654L5.388,13.253C7.554,12.37,9.452,10.977,10.937,9.218L14.138,13.626C12.546,15.276,10.67,16.638,8.589,17.654ZM18.81,20.054C17.142,21.619,15.283,22.98,13.266,24.093L10.695,20.555C12.742,19.486,14.611,18.129,16.244,16.524L18.81,20.054ZM27.009,-5.171L22.849,-3.818C22.464,-6.126,21.742,-8.315,20.728,-10.34L24.894,-11.695C25.858,-9.647,26.575,-7.459,27.009,-5.171ZM23.148,-14.842L18.858,-13.447C15.961,-17.497,11.81,-20.591,6.96,-22.122L6.96,-26.611C13.724,-24.847,19.467,-20.572,23.148,-14.842ZM27.503,-0.001C27.503,6.617,25.165,12.688,21.27,17.433L18.613,13.775C21.475,9.917,23.191,5.161,23.191,-0.001C23.191,-0.072,23.18,-0.142,23.18,-0.213L27.453,-1.601C27.483,-1.071,27.503,-0.539,27.503,-0.001ZM0,-51.287C-28.325,-51.287,-51.288,-28.325,-51.288,-0.002C-51.288,28.322,-28.325,51.287,0,51.287C28.325,51.287,51.288,28.322,51.288,-0.002C51.288,-28.325,28.325,-51.287,0,-51.287Z" /></g><g id="Group 24" transform="matrix(1,0,0,1,66.447,38.942)"><path fill="#ffffff" fill-opacity="1" d="M16.995,-16.995C16.995,-16.995,-11.556,0.724,-27.906,16.995C-18.254,13.219,27.906,-15.317,27.906,-15.317L16.995,-16.995Z" /></g><g id="Group 23" transform="matrix(1,0,0,1,307.06,107.617)"><path fill="#303030" fill-opacity="1" d="M276.179,4.135C276.151,4.122,217.414,-23.985,176.72,-29.019C176.717,-29.02,152.378,-36.157,125.943,-49.584C125.943,-49.584,39.498,-99.523,-16.313,-99.523C-16.313,-99.523,-170.385,-107.367,-221.169,-94.378C-221.945,-94.179,-222.659,-93.798,-223.258,-93.266C-224.956,-91.756,-225.43,-89.294,-224.414,-87.262L-224.414,-87.261C-223.915,-86.264,-222.963,-85.57,-221.861,-85.4L-212.846,-84.014C-212.798,-84.007,-212.784,-83.945,-212.825,-83.92C-214.901,-82.638,-243.996,-64.693,-259.963,-55.967C-266.966,-52.14,-272.891,-46.591,-277.091,-39.805C-278.293,-37.862,-279.303,-35.994,-279.844,-34.485C-279.847,-34.475,-279.853,-34.468,-279.861,-34.462C-279.942,-34.409,-280.421,-34.089,-281.055,-33.667C-283.448,-32.071,-284.886,-29.385,-284.886,-26.51C-284.886,-26.502,-284.887,-26.494,-284.891,-26.487C-285.137,-26.004,-293.666,-9.135,-292.023,2.445C-292.021,2.456,-292.024,2.467,-292.029,2.477L-297.472,11.689C-297.474,11.692,-297.477,11.696,-297.48,11.699C-300.605,14.824,-302.597,18.905,-303.118,23.293C-304.969,38.875,-306.81,75.959,-284.476,86.809C-284.469,86.812,-284.462,86.814,-284.455,86.814L-282.548,86.91C-282.518,86.911,-282.492,86.886,-282.495,86.855C-282.604,85.371,-282.678,83.878,-282.678,82.367C-282.678,48.862,-255.515,21.698,-222.008,21.698C-188.502,21.698,-161.339,48.862,-161.339,82.367C-161.339,85.95,-161.667,89.455,-162.262,92.867C-162.268,92.898,-162.245,92.925,-162.215,92.927L-158.574,93.109L127.87,99.801C127.899,99.802,127.923,99.779,127.923,99.75L127.923,82.951C127.923,48.286,156.283,20.434,190.922,21.742C223.349,22.966,249.263,49.642,249.263,82.367L249.263,107.315C249.263,107.344,249.284,107.367,249.313,107.367C258.654,107.215,291.376,105.577,299.258,90.161C299.259,90.154,306.81,36.445,276.179,4.135Z" /></g><g id="Group 22" transform="matrix(1,0,0,1,276.569,50.201)"><path fill="#ffffff" fill-opacity="1" d="M177.207,32.543L177.207,39.02C177.207,39.02,-170.142,13.075,-177.207,5.736L-177.207,-4.546C-177.207,-4.546,-140.623,-24.076,-114.803,-32.216C-114.803,-32.216,-13.307,-39.02,41.799,-27.507C41.799,-27.507,100.672,-14.555,177.207,32.543Z" /></g><g id="Group 21" transform="matrix(1,0,0,1,266.534,46.433)"><path fill="#1a1a1a" fill-opacity="1" d="M9.127,-29.126L9.127,-29.126C0.155,-29.548,-8.897,-29.778,-17.714,-29.871L-14.331,27.061C-3.772,28.002,6.961,28.942,17.714,29.871L9.127,-29.126Z" /></g><g id="Group 20" transform="matrix(1,0,0,1,296.487,157.718)"><path fill="#1a1a1a" fill-opacity="1" d="M259.836,49.701L138.496,45.519L-150.952,36.812L-271.917,36.812L-280.31,1.998L-245.813,-39.045L-123.601,-49.701L76.948,-29.898L157.289,-36.058L233.543,-39.381L276.763,-2.111L280.31,23.817L259.836,49.701Z" /></g><g id="Group 19" transform="matrix(1,0,0,1,276.57,50.201)"><path fill="#1a1a1a" fill-opacity="1" d="M-107.255,-13.908C-107.255,-13.908,-5.759,-20.71,49.347,-9.197C49.347,-9.197,97.205,1.336,162.714,37.925C171.944,38.627,177.207,39.02,177.207,39.02L177.207,32.544C100.672,-14.554,41.799,-27.507,41.799,-27.507C-13.307,-39.02,-114.803,-32.216,-114.803,-32.216C-140.623,-24.076,-177.207,-4.546,-177.207,-4.546L-177.207,5.736C-176.348,6.629,-170.436,7.799,-160.737,9.163C-148.277,2.878,-125.178,-8.258,-107.255,-13.908Z" /></g><g id="Group 18" transform="matrix(1,0,0,1,255.154,45.463)"><path fill="#333333" fill-opacity="1" d="M9.127,-28.598L9.127,-28.598C0.155,-29.013,-8.897,-29.239,-17.714,-29.331L-14.331,26.572C-3.772,27.496,6.961,28.419,17.714,29.331L9.127,-28.598Z" /></g><g id="Group 17" transform="matrix(1,0,0,1,426.127,70.914)"><path fill="#333333" fill-opacity="1" d="M-25.509,14.234C6.478,16.726,27.65,18.307,27.65,18.307L27.65,11.831C7.785,-0.393,-10.885,-10.313,-27.65,-18.307L-25.509,14.234Z" /></g><g id="Group 16" transform="matrix(1,0,0,1,305.848,145.199)"><path fill="#252525" fill-opacity="1" d="M-290.817,-35.105L-296.26,-25.893C-296.262,-25.89,-296.265,-25.886,-296.268,-25.883C-299.393,-22.759,-301.385,-18.677,-301.906,-14.289C-303.756,1.293,-305.598,38.377,-283.263,49.227C-283.257,49.23,-283.25,49.232,-283.243,49.232L-281.336,49.328C-281.305,49.329,-281.28,49.303,-281.282,49.273C-281.392,47.789,-281.466,46.296,-281.466,44.785C-281.466,11.28,-254.302,-15.884,-220.795,-15.884C-187.289,-15.884,-160.126,11.28,-160.126,44.785C-160.126,48.368,-160.455,51.873,-161.05,55.285C-161.055,55.316,-161.033,55.343,-161.002,55.345L-157.362,55.527L129.083,62.219C129.111,62.22,129.135,62.197,129.135,62.168L129.135,45.368C129.135,10.704,157.495,-17.148,192.135,-15.84C224.561,-14.616,250.475,12.06,250.475,44.785L250.475,69.733C250.475,69.762,250.497,69.785,250.526,69.785C259.866,69.633,292.584,67.995,300.469,52.583C300.471,52.58,300.471,52.58,300.472,52.577C300.516,52.262,305.597,15.497,289.96,-15.412C289.944,-15.443,289.902,-15.45,289.877,-15.425L287.869,-13.416C287.849,-13.397,287.818,-13.396,287.798,-13.414C273.032,-26.71,214.187,-34.834,214.187,-34.834C210.297,-36.446,-244.46,-68.342,-244.46,-68.342C-261.249,-69.785,-272.952,-69.478,-278.973,-69.102C-281.617,-68.936,-283.673,-66.741,-283.673,-64.092C-283.673,-64.084,-283.675,-64.076,-283.679,-64.069C-283.924,-63.586,-292.453,-46.717,-290.811,-35.137C-290.809,-35.126,-290.811,-35.115,-290.817,-35.105Z" /></g><g id="Group 15" transform="matrix(1,0,0,1,559.622,124.136)"><path fill="#ffffff" fill-opacity="1" d="M27.227,-3.4C27.227,-3.4,37.734,10.506,39.589,23.487C39.589,23.487,-10.596,12.639,-39.589,-13.771C-39.589,-13.771,-12.643,-23.487,27.227,-3.4Z" /></g><g id="Group 14" transform="matrix(1,0,0,1,37.376,90.052)"><path fill="#d32a2a" fill-opacity="1" d="M-15.201,-8.932C-15.201,-8.932,-24.013,8.278,-22.336,20.027C-3.336,12.038,24.013,-13.195,24.013,-13.195L21.069,-16.905C6.94,-20.027,-10.165,-16.905,-10.165,-16.905L-11.361,-16.108C-13.76,-14.508,-15.201,-11.816,-15.201,-8.932Z" /></g><g id="Group 13" transform="matrix(1,0,0,1,258.766,102.849)"><path fill="#000000" fill-opacity="1" d="M-84.118,84.217L163.612,93.507C182.462,-11.089,161.051,-42.198,159.865,-43.81C91.573,-90.188,9.96,-92.535,-5.712,-92.535C-6.945,-92.535,-7.596,-92.518,-7.6,-92.518C-18.825,-93.199,-29.722,-93.544,-40.037,-93.544C-142.601,-93.544,-169.445,-59.73,-171.41,-57.039L-167.576,-23.798C-156.049,1.223,-87.998,79.75,-84.118,84.217ZM164.588,94.721L164.077,94.703L-84.671,85.374L-84.839,85.182C-85.559,84.356,-156.926,2.293,-168.686,-23.392L-168.735,-23.569L-172.63,-57.338L-172.513,-57.516C-172.263,-57.899,-166.158,-66.996,-146.714,-76.196C-128.851,-84.646,-95.843,-94.721,-40.037,-94.721C-29.698,-94.721,-18.779,-94.375,-7.582,-93.694C-7.58,-93.697,-6.923,-93.713,-5.712,-93.713C10.027,-93.713,92.013,-91.351,160.606,-44.728L160.735,-44.61C161.703,-43.399,184.222,-13.714,164.679,94.219L164.588,94.721Z" /></g><g id="Group 12" transform="matrix(1,0,0,1,276.57,52.604)"><path fill="#1a1a1a" fill-opacity="1" d="M-48.963,-39.221L-48.963,-36.615L-48.966,-39.221C-84.695,-39.221,-114.678,-37.239,-114.977,-37.219C-115.184,-37.205,-115.388,-37.166,-115.586,-37.104C-141.339,-28.985,-178.066,-9.443,-178.434,-9.247C-179.282,-8.794,-179.812,-7.911,-179.812,-6.949L-179.812,3.333C-179.812,4.007,-179.551,4.653,-179.083,5.138C-177.853,6.416,-175.994,8.347,-119.117,14.219C-89.411,17.286,-48.517,21.022,2.43,25.322C89.16,32.642,176.144,39.149,177.013,39.214C177.078,39.219,177.143,39.221,177.207,39.221C177.862,39.221,178.495,38.975,178.979,38.526C179.51,38.033,179.812,37.341,179.812,36.617L179.812,30.141C179.812,29.236,179.342,28.397,178.572,27.922C138.86,3.484,103.983,-11.618,81.719,-19.985C57.537,-29.071,42.967,-32.32,42.359,-32.453C42.35,-32.455,42.341,-32.457,42.332,-32.459C20.858,-36.945,-9.858,-39.221,-48.963,-39.221ZM-48.97,-36.615C-18.459,-36.616,16.54,-35.187,41.799,-29.91C41.799,-29.91,100.672,-16.958,177.207,30.141L177.207,36.617C177.207,36.617,-170.142,10.671,-177.207,3.333L-177.207,-6.949C-177.207,-6.949,-140.623,-26.481,-114.803,-34.62C-114.803,-34.62,-85.021,-36.615,-48.97,-36.615Z" /></g><g id="Group 11" transform="matrix(1,0,0,1,129.386,45.71)"><path fill="#1a1a1a" fill-opacity="1" d="M-1.766,15.184C-0.618,15.324,0.563,15.466,1.766,15.608L1.766,-15.608C0.575,-15.07,-0.603,-14.532,-1.766,-13.996L-1.766,15.184Z" /></g><g id="Group 10" transform="matrix(1,0,0,1,254.521,104.895)"><path fill="#000000" fill-opacity="1" d="M-2.142,98.258L1.381,98.341L1.381,85.851C9.84,18.874,1.435,-29.083,0.913,-31.948L-1.604,-88.599L-1.604,-98.24C-2.762,-98.274,-3.94,-98.307,-5.135,-98.341L-5.134,-88.521L-2.611,-31.668L-2.581,-31.414C-2.489,-30.935,6.492,17.313,-2.137,85.518L-2.142,98.258Z" /></g><g id="Group 9" transform="matrix(1,0,0,1,132.478,96.112)"><path fill="#000000" fill-opacity="1" d="M-17.583,-6.892C-17.583,-6.892,-17.437,0.646,-11.017,5.754C-11.017,5.754,4.304,7.797,15.248,7.944L17.582,6.046C17.582,6.046,16.851,-12.485,-17.583,-6.892Z" /></g><g id="Group 8" transform="matrix(1,0,0,1,131.878,91.719)"><path fill="#1e1e1e" fill-opacity="1" d="M-16.982,-2.499C-16.982,-2.499,-16.927,0.446,-15.317,3.9L16.982,6.355C14.476,1.256,6.759,-6.356,-16.982,-2.499Z" /></g><g id="Group 7" transform="matrix(1,0,0,1,284.117,102.84)"><path fill="#000000" fill-opacity="1" d="M-17.582,-6.892C-17.582,-6.892,-17.437,0.646,-11.017,5.754C-11.017,5.754,4.305,7.798,15.249,7.944L17.582,6.046C17.582,6.046,16.852,-12.485,-17.582,-6.892Z" /></g><g id="Group 6" transform="matrix(1,0,0,1,283.517,98.447)"><path fill="#1e1e1e" fill-opacity="1" d="M-16.982,-2.499C-16.982,-2.499,-16.927,0.446,-15.317,3.9L16.982,6.355C14.476,1.256,6.759,-6.356,-16.982,-2.499Z" /></g><g id="Group 5" transform="matrix(1,0,0,1,590.195,183.972)"><path fill="#636363" fill-opacity="1" d="M16.569,-11.61C16.563,-11.615,12.716,-14.878,-1.183,-15.414C-1.183,-15.414,-13.854,-6.954,-16.945,6.011C-16.945,6.011,-13.24,20.071,16.123,13.805C16.123,13.805,17.625,3.106,16.569,-11.61Z" /></g><g id="Group 4" transform="matrix(1,0,0,1,16.177,184.482)"><path fill="#202121" fill-opacity="1" d="M9.535,-7.168L-9.539,-10.048C-6.649,-1.439,-1.722,5.998,6.418,9.949L8.392,10.048C8.281,8.545,8.206,7.032,8.206,5.501C8.206,1.157,8.67,-3.078,9.539,-7.163L9.535,-7.168Z" /></g><g id="Group 3" transform="matrix(1,0,0,1,289.886,196.993)"><path fill="#202121" fill-opacity="1" d="M-144.265,-10.427C-144.202,-9.294,-144.164,-8.156,-144.164,-7.009C-144.164,-3.406,-144.496,0.118,-145.098,3.548L-141.4,3.734L145.098,10.427L145.098,0.424L-144.262,-10.427L-144.265,-10.427Z" /></g><g id="Group 2" transform="matrix(1,0,0,1,581.32,206.381)"><path fill="#202121" fill-opacity="1" d="M24.998,-8.604C14.842,-6.286,-24.998,-5.575,-24.998,-5.575L-24.998,8.604C-15.725,8.457,17.102,6.84,24.998,-8.604Z" /></g><g id="Group 1" transform="matrix(1,0,0,1,304.647,159.75)"><path fill="#303030" fill-opacity="1" d="M299.863,-4.156L294.576,-12.11C294.569,-12.121,294.558,-12.128,294.545,-12.131C293.703,-12.315,265.26,-18.595,239.046,-32.936C239.025,-32.947,239,-32.944,238.984,-32.928L231.783,-25.376C231.765,-25.358,231.737,-25.355,231.716,-25.37C220.298,-33.752,206.224,-38.716,191.007,-38.716C153.006,-38.716,122.086,-7.815,122.056,30.178C122.056,30.207,122.035,30.231,122.005,30.229C118.312,29.984,-84.145,16.474,-151.341,-0.447C-151.356,-0.451,-151.369,-0.461,-151.375,-0.475C-163.121,-26.464,-189.271,-44.602,-219.594,-44.602C-243.731,-44.602,-265.222,-33.106,-278.917,-15.313L-278.93,-15.315C-278.93,-15.315,-288.343,-38.164,-279.021,-55.139C-278.996,-55.185,-279.046,-55.234,-279.091,-55.206C-282.718,-52.993,-286.282,-51.071,-289.592,-49.678C-289.602,-49.674,-289.61,-49.667,-289.615,-49.657L-295.059,-40.445C-295.061,-40.441,-295.063,-40.438,-295.066,-40.435C-298.202,-37.3,-300.188,-33.203,-300.709,-28.8C-302.558,-13.196,-304.378,23.834,-282.062,34.675C-282.056,34.678,-282.049,34.68,-282.041,34.681L-280.135,34.776C-280.104,34.778,-280.079,34.752,-280.081,34.721C-280.19,33.237,-280.264,31.744,-280.264,30.233C-280.264,-3.271,-253.101,-30.435,-219.594,-30.435C-186.088,-30.435,-158.925,-3.271,-158.925,30.233C-158.925,33.816,-159.254,37.322,-159.849,40.734C-159.854,40.764,-159.832,40.792,-159.801,40.793L-156.161,40.976L130.284,47.668C130.313,47.668,130.336,47.645,130.336,47.616L130.336,30.977C130.336,-3.68,159.023,-31.861,193.648,-30.378C225.928,-28.995,251.676,-2.386,251.676,30.233L251.676,55.181C251.676,55.21,251.698,55.233,251.726,55.233C261.065,55.082,293.778,53.444,301.667,38.036C301.67,38.03,301.671,38.029,301.672,38.023C301.72,37.681,304.378,18.273,299.871,-4.136C299.869,-4.143,299.867,-4.15,299.863,-4.156Z" /></g></g></g></g><g opacity="0.5" id="dust front"><g transform="translate(736.622,663.763)"><g transform="scale(0.6,0.6)"><animateTransform repeatCount="indefinite" type="scale" attributeName="transform" dur="1s" begin="0s" calcMode="spline" values="0.6 0.6; 1.14 1.14; 0.6 0.6" keyTimes="0; 0.5; 1" keySplines="0.333 0 0.667 1; 0.333 0 0.667 1" fill="freeze" /><g transform="translate(-136.722,-33.902)"><g id="Group 1" transform="matrix(1,0,0,1,67.638,17.076)"><path fill="#969696" fill-opacity="1" d="M59.046,13.654C59.046,13.654,37.92,-2.697,15.958,-3.162C-6.003,-3.628,-8.47,-9.415,-24.511,-11.883C-40.551,-14.351,-49.497,-16.826,-58.443,-9.461C-67.389,-2.096,-60.911,16.826,-60.911,16.826L67.388,16.795C67.388,16.795,63.11,14.373,59.046,13.654Z" /></g></g></g></g></g><g opacity="0.5" id="dust back"><g transform="translate(327.709,663.744)"><g transform="scale(0.5,0.5)"><animateTransform repeatCount="indefinite" type="scale" attributeName="transform" dur="1s" begin="0s" calcMode="spline" values="0.5 0.5; 1.04 1.04; 0.5 0.5" keyTimes="0; 0.5; 1" keySplines="0.333 0 0.667 1; 0.333 0 0.667 1" fill="freeze" /><g transform="translate(-104.032,-38.827)"><g id="Group 1" transform="matrix(1,0,0,1,52.773,19.595)"><path fill="#969696" fill-opacity="1" d="M52.523,19.345C52.523,19.345,35.674,1.394,20.98,-1.694C6.285,-4.781,15.107,2.59,-4.496,-1.694C-24.1,-5.977,-32.921,-19.345,-42.723,-9.072C-52.524,1.2,-36.351,19.345,-36.351,19.345L52.523,19.345Z" /></g></g></g></g></g><g transform="matrix(1,0,0,1,127.085,657.762)" id="base"><g id="Group 1"><path stroke-linejoin="miter" stroke-linecap="round" stroke-width="6" stroke-opacity="1" stroke="#252525" d="M3,3L834.83,3" /></g></g><g id="line 3"><g transform="translate(238.741,430.619)"><animateTransform repeatCount="indefinite" type="translate" attributeName="transform" dur="1s" begin="0s" calcMode="spline" values="238.741 430.619; 196.741 430.619; 238.7 430.619" keyTimes="0; 0.5; 1" keySplines="0.333 0 0.667 1; 0.333 0 0.667 1" fill="freeze" /><g transform="scale(1,1) translate(-42.336,-2)"><g id="Group 1"><path stroke-linejoin="miter" stroke-linecap="round" stroke-width="4" stroke-opacity="1" stroke="#252525" d="M82.672,2L2,2" /></g></g></g></g><g id="line 2"><g transform="translate(173.43,475.098)"><animateTransform repeatCount="indefinite" type="translate" attributeName="transform" dur="1s" begin="0s" calcMode="spline" values="173.43 475.098; 141.43 475.098; 173.4 475.098" keyTimes="0; 0.5; 1" keySplines="0.333 0 0.667 1; 0.333 0 0.667 1" fill="freeze" /><g transform="scale(1,1) translate(-35.239,-2)"><g id="Group 1"><path stroke-linejoin="miter" stroke-linecap="round" stroke-width="4" stroke-opacity="1" stroke="#252525" d="M68.477,2L2,2" /></g></g></g></g><g id="line 1"><g transform="translate(206.668,594.974)"><animateTransform repeatCount="indefinite" type="translate" attributeName="transform" dur="1s" begin="0s" calcMode="spline" values="206.668 594.974; 176.668 594.974; 206.7 594.974" keyTimes="0; 0.5; 1" keySplines="0.333 0 0.667 1; 0.333 0 0.667 1" fill="freeze" /><g transform="scale(1,1) translate(-33.966,-2)"><g id="Group 1"><path stroke-linejoin="miter" stroke-linecap="round" stroke-width="4" stroke-opacity="1" stroke="#252525" d="M65.932,2L2,2" /></g></g></g></g><g id="front tyre"><g transform="translate(736.621,612.476)"><g transform="rotate(0)"><animateTransform repeatCount="indefinite" type="rotate" attributeName="transform" dur="1s" begin="0s" calcMode="spline" values="0; 360" keyTimes="0; 1" keySplines="0.333 0 0.667 1" fill="freeze" /><g transform="scale(1,1) translate(-51.538,-51.536)"><g id="Group 17" transform="matrix(1,0,0,1,51.538,51.537)"><path fill="#3a3a3a" fill-opacity="1" d="M1.456,27.463C0.975,27.488,0.489,27.501,0.001,27.501C-15.189,27.501,-27.504,15.187,-27.504,-0.001C-27.504,-15.191,-15.189,-27.502,0.001,-27.502C0.489,-27.502,0.975,-27.49,1.456,-27.465C15.967,-26.709,27.504,-14.704,27.504,-0.001C27.504,14.699,15.967,26.708,1.456,27.463ZM1.456,-51.268C0.971,-51.281,0.486,-51.286,0.001,-51.286C-28.325,-51.286,-51.288,-28.327,-51.288,-0.004C-51.288,28.322,-28.325,51.286,0.001,51.286C0.486,51.286,0.971,51.279,1.456,51.267C29.105,50.496,51.288,27.837,51.288,-0.004C51.288,-27.842,29.105,-50.497,1.456,-51.268Z" /></g><g id="Group 16" transform="matrix(1,0,0,1,77.91,51.537)"><path fill="#4c4c4c" fill-opacity="1" d="M24.917,-0.004C24.917,27.837,2.733,50.496,-24.917,51.267L-24.917,27.463C-10.406,26.708,1.131,14.699,1.131,-0.001C1.131,-14.704,-10.406,-26.709,-24.917,-27.465L-24.917,-51.267C2.733,-50.496,24.917,-27.842,24.917,-0.004Z" /></g><g id="Group 15" transform="matrix(1,0,0,1,51.539,51.536)"><path fill="#ffffff" fill-opacity="1" d="M0.001,-32.772C-18.07,-32.772,-32.772,-18.07,-32.772,0C-32.772,18.07,-18.07,32.771,0.001,32.771C18.071,32.771,32.772,18.07,32.772,0C32.772,-18.07,18.071,-32.772,0.001,-32.772ZM0.001,35.983C-19.841,35.983,-35.984,19.842,-35.984,0C-35.984,-19.841,-19.841,-35.983,0.001,-35.983C19.842,-35.983,35.984,-19.841,35.984,0C35.984,19.842,19.842,35.983,0.001,35.983Z" /></g><g id="Group 14" transform="matrix(1,0,0,1,51.538,51.536)"><path fill="#cccccc" fill-opacity="1" d="M14.31,0C14.31,7.903,7.903,14.31,0.001,14.31C-7.903,14.31,-14.31,7.903,-14.31,0C-14.31,-7.903,-7.903,-14.31,0.001,-14.31C7.903,-14.31,14.31,-7.903,14.31,0Z" /></g><g id="Group 13" transform="matrix(1,0,0,1,51.539,51.535)"><path fill="#ffffff" fill-opacity="1" d="M0.001,-20.622C-11.37,-20.622,-20.621,-11.371,-20.621,0C-20.621,11.371,-11.37,20.622,0.001,20.622C11.371,20.622,20.621,11.371,20.621,0C20.621,-11.371,11.371,-20.622,0.001,-20.622ZM0.001,22.228C-12.256,22.228,-22.228,12.257,-22.228,0C-22.228,-12.257,-12.256,-22.228,0.001,-22.228C12.257,-22.228,22.228,-12.257,22.228,0C22.228,12.257,12.257,22.228,0.001,22.228Z" /></g><g id="Group 12" transform="matrix(1,0,0,1,51.54,51.536)"><path fill="#cccccc" fill-opacity="1" d="M8.449,0C8.449,4.666,4.666,8.449,0,8.449C-4.666,8.449,-8.449,4.666,-8.449,0C-8.449,-4.666,-4.666,-8.449,0,-8.449C4.666,-8.449,8.449,-4.666,8.449,0Z" /></g><g id="Group 11" transform="matrix(1,0,0,1,51.539,51.536)"><path fill="#333333" fill-opacity="1" d="M3.421,0C3.421,1.889,1.888,3.42,-0.001,3.42C-1.89,3.42,-3.421,1.889,-3.421,0C-3.421,-1.888,-1.89,-3.42,-0.001,-3.42C1.888,-3.42,3.421,-1.888,3.421,0Z" /></g><g id="Group 10" transform="matrix(1,0,0,1,62.259,48.117)"><path fill="#333333" fill-opacity="1" d="M0,-1.695C-0.936,-1.695,-1.695,-0.935,-1.695,0.001C-1.695,0.937,-0.936,1.695,0,1.695C0.936,1.695,1.695,0.937,1.695,0.001C1.695,-0.935,0.936,-1.695,0,-1.695Z" /></g><g id="Group 9" transform="matrix(1,0,0,1,51.539,40.561)"><path fill="#333333" fill-opacity="1" d="M0,-1.695C-0.935,-1.695,-1.694,-0.935,-1.694,0.001C-1.694,0.937,-0.935,1.695,0,1.695C0.937,1.695,1.694,0.937,1.694,0.001C1.694,-0.935,0.937,-1.695,0,-1.695Z" /></g><g id="Group 8" transform="matrix(1,0,0,1,58.294,60.663)"><path fill="#333333" fill-opacity="1" d="M0,-1.695C-0.936,-1.695,-1.695,-0.935,-1.695,0.001C-1.695,0.937,-0.936,1.695,0,1.695C0.936,1.695,1.695,0.937,1.695,0.001C1.695,-0.935,0.936,-1.695,0,-1.695Z" /></g><g id="Group 7" transform="matrix(1,0,0,1,44.785,60.663)"><path fill="#333333" fill-opacity="1" d="M0,-1.695C-0.935,-1.695,-1.694,-0.935,-1.694,0.001C-1.694,0.937,-0.935,1.695,0,1.695C0.937,1.695,1.694,0.937,1.694,0.001C1.694,-0.935,0.937,-1.695,0,-1.695Z" /></g><g id="Group 6" transform="matrix(1,0,0,1,40.809,48.117)"><path fill="#333333" fill-opacity="1" d="M0,-1.695C-0.936,-1.695,-1.695,-0.935,-1.695,0.001C-1.695,0.937,-0.936,1.695,0,1.695C0.936,1.695,1.695,0.937,1.695,0.001C1.695,-0.935,0.936,-1.695,0,-1.695Z" /></g><g id="Group 5" transform="matrix(1,0,0,1,51.539,31.713)"><path fill="#ffffff" fill-opacity="1" d="M0.001,14.507C-3.306,14.507,-5.999,11.817,-5.999,8.51L-5.999,-14.507L-4.392,-14.507L-4.392,8.51C-4.392,10.931,-2.421,12.901,0.001,12.901C2.423,12.901,4.392,10.931,4.392,8.51L4.392,-14.507L5.999,-14.507L5.999,8.51C5.999,11.817,3.308,14.507,0.001,14.507Z" /></g><g id="Group 4" transform="matrix(1,0,0,1,32.008,44.63)"><path fill="#ffffff" fill-opacity="1" d="M8.766,9.407C8.153,9.407,7.531,9.313,6.918,9.114L-14.971,2.002L-14.475,0.473L7.414,7.585C9.716,8.334,12.198,7.068,12.947,4.765C13.31,3.649,13.217,2.461,12.684,1.415C12.151,0.37,11.244,-0.407,10.128,-0.769L-11.761,-7.881L-11.264,-9.407L10.625,-2.296C12.148,-1.801,13.387,-0.741,14.115,0.686C14.842,2.114,14.971,3.738,14.475,5.262C13.651,7.794,11.294,9.407,8.766,9.407Z" /></g><g id="Group 3" transform="matrix(1,0,0,1,39.096,68.364)"><path fill="#ffffff" fill-opacity="1" d="M-2.883,14.471L-4.183,13.527L9.347,-5.094C10.769,-7.052,10.332,-9.803,8.374,-11.229C6.414,-12.652,3.661,-12.215,2.238,-10.257L-11.289,8.363L-12.588,7.418L0.938,-11.201C2.883,-13.877,6.642,-14.471,9.318,-12.528C11.993,-10.582,12.588,-6.824,10.646,-4.15L-2.883,14.471Z" /></g><g id="Group 2" transform="matrix(1,0,0,1,64.293,68.364)"><path fill="#ffffff" fill-opacity="1" d="M2.571,14.47L-10.956,-4.15C-11.898,-5.445,-12.279,-7.03,-12.029,-8.612C-11.778,-10.195,-10.926,-11.587,-9.628,-12.529C-6.951,-14.471,-3.194,-13.877,-1.251,-11.202L12.279,7.418L10.979,8.363L-2.551,-10.258C-3.973,-12.217,-6.724,-12.65,-8.685,-11.228C-9.634,-10.538,-10.258,-9.521,-10.442,-8.362C-10.626,-7.204,-10.347,-6.042,-9.657,-5.094L3.871,13.527L2.571,14.47Z" /></g><g id="Group 1" transform="matrix(1,0,0,1,70.807,44.63)"><path fill="#ffffff" fill-opacity="1" d="M-8.503,9.408C-11.031,9.408,-13.39,7.795,-14.214,5.262C-15.235,2.116,-13.506,-1.274,-10.362,-2.295L11.526,-9.408L12.022,-7.88L-9.867,-0.767C-12.169,-0.02,-13.432,2.462,-12.685,4.766C-11.936,7.07,-9.452,8.336,-7.151,7.586L14.738,0.474L15.234,2.001L-6.654,9.114C-7.268,9.313,-7.89,9.408,-8.503,9.408Z" /></g></g></g></g></g><g id="back tyre"><g transform="translate(326.253,612.476)"><g transform="rotate(0)"><animateTransform repeatCount="indefinite" type="rotate" attributeName="transform" dur="1s" begin="0s" calcMode="spline" values="0; 360" keyTimes="0; 1" keySplines="0.333 0 0.667 1" fill="freeze" /><g transform="scale(1,1) translate(-51.539,-51.536)"><g id="Group 17" transform="matrix(1,0,0,1,51.538,51.537)"><path fill="#3a3a3a" fill-opacity="1" d="M1.456,27.463C0.974,27.488,0.49,27.501,0.002,27.501C-15.188,27.501,-27.503,15.187,-27.503,-0.001C-27.503,-15.191,-15.188,-27.502,0.002,-27.502C0.49,-27.502,0.974,-27.49,1.456,-27.465C15.967,-26.709,27.503,-14.704,27.503,-0.001C27.503,14.699,15.967,26.708,1.456,27.463ZM1.456,-51.268C0.971,-51.281,0.487,-51.286,0.002,-51.286C-28.324,-51.286,-51.288,-28.327,-51.288,-0.004C-51.288,28.322,-28.324,51.286,0.002,51.286C0.487,51.286,0.971,51.279,1.456,51.267C29.105,50.496,51.288,27.837,51.288,-0.004C51.288,-27.842,29.105,-50.497,1.456,-51.268Z" /></g><g id="Group 16" transform="matrix(1,0,0,1,77.91,51.537)"><path fill="#4c4c4c" fill-opacity="1" d="M24.917,-0.004C24.917,27.837,2.733,50.496,-24.917,51.267L-24.917,27.463C-10.406,26.708,1.132,14.699,1.132,-0.001C1.132,-14.704,-10.406,-26.709,-24.917,-27.465L-24.917,-51.267C2.733,-50.496,24.917,-27.842,24.917,-0.004Z" /></g><g id="Group 15" transform="matrix(1,0,0,1,51.539,51.536)"><path fill="#ffffff" fill-opacity="1" d="M0.001,-32.772C-18.07,-32.772,-32.772,-18.07,-32.772,0C-32.772,18.07,-18.07,32.771,0.001,32.771C18.071,32.771,32.772,18.07,32.772,0C32.772,-18.07,18.071,-32.772,0.001,-32.772ZM0.001,35.983C-19.841,35.983,-35.984,19.842,-35.984,0C-35.984,-19.841,-19.841,-35.983,0.001,-35.983C19.842,-35.983,35.984,-19.841,35.984,0C35.984,19.842,19.842,35.983,0.001,35.983Z" /></g><g id="Group 14" transform="matrix(1,0,0,1,51.538,51.536)"><path fill="#cccccc" fill-opacity="1" d="M14.31,0C14.31,7.903,7.903,14.31,0.001,14.31C-7.903,14.31,-14.31,7.903,-14.31,0C-14.31,-7.903,-7.903,-14.31,0.001,-14.31C7.903,-14.31,14.31,-7.903,14.31,0Z" /></g><g id="Group 13" transform="matrix(1,0,0,1,51.539,51.535)"><path fill="#ffffff" fill-opacity="1" d="M0.001,-20.622C-11.37,-20.622,-20.621,-11.371,-20.621,0C-20.621,11.371,-11.37,20.622,0.001,20.622C11.371,20.622,20.621,11.371,20.621,0C20.621,-11.371,11.371,-20.622,0.001,-20.622ZM0.001,22.228C-12.256,22.228,-22.228,12.257,-22.228,0C-22.228,-12.257,-12.256,-22.228,0.001,-22.228C12.257,-22.228,22.228,-12.257,22.228,0C22.228,12.257,12.257,22.228,0.001,22.228Z" /></g><g id="Group 12" transform="matrix(1,0,0,1,51.54,51.536)"><path fill="#cccccc" fill-opacity="1" d="M8.449,0C8.449,4.666,4.666,8.449,0,8.449C-4.666,8.449,-8.449,4.666,-8.449,0C-8.449,-4.666,-4.666,-8.449,0,-8.449C4.666,-8.449,8.449,-4.666,8.449,0Z" /></g><g id="Group 11" transform="matrix(1,0,0,1,51.539,51.536)"><path fill="#333333" fill-opacity="1" d="M3.421,0C3.421,1.889,1.888,3.42,-0.001,3.42C-1.89,3.42,-3.421,1.889,-3.421,0C-3.421,-1.888,-1.89,-3.42,-0.001,-3.42C1.888,-3.42,3.421,-1.888,3.421,0Z" /></g><g id="Group 10" transform="matrix(1,0,0,1,62.259,48.117)"><path fill="#333333" fill-opacity="1" d="M0,-1.695C-0.936,-1.695,-1.695,-0.935,-1.695,0.001C-1.695,0.937,-0.936,1.695,0,1.695C0.936,1.695,1.695,0.937,1.695,0.001C1.695,-0.935,0.936,-1.695,0,-1.695Z" /></g><g id="Group 9" transform="matrix(1,0,0,1,51.539,40.561)"><path fill="#333333" fill-opacity="1" d="M0,-1.695C-0.935,-1.695,-1.694,-0.935,-1.694,0.001C-1.694,0.937,-0.935,1.695,0,1.695C0.937,1.695,1.694,0.937,1.694,0.001C1.694,-0.935,0.937,-1.695,0,-1.695Z" /></g><g id="Group 8" transform="matrix(1,0,0,1,58.294,60.663)"><path fill="#333333" fill-opacity="1" d="M0,-1.695C-0.936,-1.695,-1.695,-0.935,-1.695,0.001C-1.695,0.937,-0.936,1.695,0,1.695C0.936,1.695,1.695,0.937,1.695,0.001C1.695,-0.935,0.936,-1.695,0,-1.695Z" /></g><g id="Group 7" transform="matrix(1,0,0,1,44.785,60.663)"><path fill="#333333" fill-opacity="1" d="M0,-1.695C-0.935,-1.695,-1.694,-0.935,-1.694,0.001C-1.694,0.937,-0.935,1.695,0,1.695C0.937,1.695,1.694,0.937,1.694,0.001C1.694,-0.935,0.937,-1.695,0,-1.695Z" /></g><g id="Group 6" transform="matrix(1,0,0,1,40.809,48.117)"><path fill="#333333" fill-opacity="1" d="M0,-1.695C-0.936,-1.695,-1.695,-0.935,-1.695,0.001C-1.695,0.937,-0.936,1.695,0,1.695C0.936,1.695,1.695,0.937,1.695,0.001C1.695,-0.935,0.936,-1.695,0,-1.695Z" /></g><g id="Group 5" transform="matrix(1,0,0,1,51.54,31.713)"><path fill="#ffffff" fill-opacity="1" d="M0,14.507C-3.307,14.507,-5.998,11.817,-5.998,8.51L-5.998,-14.507L-4.392,-14.507L-4.392,8.51C-4.392,10.931,-2.422,12.901,0,12.901C2.422,12.901,4.392,10.931,4.392,8.51L4.392,-14.507L5.998,-14.507L5.998,8.51C5.998,11.817,3.307,14.507,0,14.507Z" /></g><g id="Group 4" transform="matrix(1,0,0,1,32.007,44.63)"><path fill="#ffffff" fill-opacity="1" d="M8.767,9.407C8.154,9.407,7.531,9.313,6.918,9.114L-14.97,2.002L-14.475,0.473L7.414,7.585C9.717,8.334,12.2,7.068,12.948,4.765C13.311,3.649,13.218,2.461,12.685,1.415C12.152,0.37,11.245,-0.407,10.129,-0.769L-11.759,-7.881L-11.264,-9.407L10.625,-2.296C12.148,-1.8,13.389,-0.741,14.116,0.686C14.844,2.114,14.97,3.738,14.475,5.262C13.652,7.794,11.295,9.407,8.767,9.407Z" /></g><g id="Group 3" transform="matrix(1,0,0,1,39.096,68.364)"><path fill="#ffffff" fill-opacity="1" d="M-2.883,14.471L-4.182,13.527L9.346,-5.094C10.768,-7.052,10.333,-9.804,8.374,-11.229C6.414,-12.652,3.661,-12.216,2.237,-10.257L-11.289,8.363L-12.589,7.418L0.939,-11.201C2.883,-13.877,6.642,-14.471,9.319,-12.528C11.994,-10.582,12.589,-6.824,10.646,-4.15L-2.883,14.471Z" /></g><g id="Group 2" transform="matrix(1,0,0,1,64.292,68.364)"><path fill="#ffffff" fill-opacity="1" d="M2.572,14.471L-10.955,-4.149C-11.897,-5.444,-12.279,-7.03,-12.028,-8.613C-11.778,-10.195,-10.924,-11.586,-9.627,-12.528C-6.951,-14.471,-3.194,-13.876,-1.251,-11.201L12.278,7.418L10.98,8.363L-2.549,-10.257C-3.972,-12.215,-6.723,-12.649,-8.684,-11.228C-9.633,-10.538,-10.257,-9.52,-10.441,-8.361C-10.625,-7.203,-10.347,-6.042,-9.657,-5.094L3.87,13.527L2.572,14.471Z" /></g><g id="Group 1" transform="matrix(1,0,0,1,70.808,44.63)"><path fill="#ffffff" fill-opacity="1" d="M-8.504,9.408C-11.033,9.408,-13.39,7.795,-14.214,5.262C-15.234,2.115,-13.507,-1.274,-10.363,-2.295L11.525,-9.408L12.022,-7.88L-9.867,-0.767C-12.169,-0.02,-13.433,2.462,-12.686,4.766C-11.937,7.07,-9.454,8.337,-7.151,7.586L14.738,0.474L15.234,2.001L-6.655,9.114C-7.268,9.313,-7.891,9.408,-8.504,9.408Z" /></g></g></g></g></g></svg>