<?xml version="1.0" encoding="utf-8"?><svg fill="none" viewBox="0 0 300 300" xmlns="http://www.w3.org/2000/svg"><defs /><g transform="matrix(1,0,0,1,83,36)" id="6 Outlines"><animate repeatCount="indefinite" begin="0s" calcMode="discrete" fill="freeze" dur="0.333s" values="visible; hidden" keyTimes="0; 1" attributeName="visibility" /><g id="Group 1"><path stroke-linejoin="round" stroke-linecap="round" stroke-width="10" stroke-opacity="1" stroke="#000000" d="M5,5L155,5" /></g></g><g transform="matrix(1,0,0,1,83,36)" visibility="hidden" id="6 Outlines 5"><animate repeatCount="indefinite" begin="1s" calcMode="discrete" fill="freeze" dur="0.333s" values="visible; hidden" keyTimes="0; 1" attributeName="visibility" /><g id="Group 1"><path stroke-linejoin="round" stroke-linecap="round" stroke-width="10" stroke-opacity="1" stroke="#000000" d="M5,5L155,5" /></g></g><g transform="matrix(1,0,0,1,83,36)" visibility="hidden" id="6 Outlines 11"><animate repeatCount="indefinite" begin="2s" calcMode="discrete" fill="freeze" dur="0.333s" values="visible; hidden" keyTimes="0; 1" attributeName="visibility" /><g id="Group 1"><path stroke-linejoin="round" stroke-linecap="round" stroke-width="10" stroke-opacity="1" stroke="#000000" d="M5,5L155,5" /></g></g><g transform="matrix(1,0,0,1,43,66)" visibility="hidden" id="6 Outlines"><animate repeatCount="indefinite" begin="0.167s" calcMode="discrete" fill="freeze" dur="0.333s" values="visible; hidden" keyTimes="0; 1" attributeName="visibility" /><g id="Group 1"><path stroke-linejoin="round" stroke-linecap="round" stroke-width="10" stroke-opacity="1" stroke="#000000" d="M5,5L125,5" /></g></g><g transform="matrix(1,0,0,1,43,66)" visibility="hidden" id="6 Outlines 6"><animate repeatCount="indefinite" begin="1.167s" calcMode="discrete" fill="freeze" dur="0.333s" values="visible; hidden" keyTimes="0; 1" attributeName="visibility" /><g id="Group 1"><path stroke-linejoin="round" stroke-linecap="round" stroke-width="10" stroke-opacity="1" stroke="#000000" d="M5,5L125,5" /></g></g><g transform="matrix(1,0,0,1,43,66)" visibility="hidden" id="6 Outlines 12"><animate repeatCount="indefinite" begin="2.167s" calcMode="discrete" fill="freeze" dur="0.333s" values="visible; hidden" keyTimes="0; 1" attributeName="visibility" /><g id="Group 1"><path stroke-linejoin="round" stroke-linecap="round" stroke-width="10" stroke-opacity="1" stroke="#000000" d="M5,5L125,5" /></g></g><g transform="matrix(1,0,0,1,201,66)" visibility="hidden" id="6 Outlines"><animate repeatCount="indefinite" begin="0.333s" calcMode="discrete" fill="freeze" dur="0.333s" values="visible; hidden" keyTimes="0; 1" attributeName="visibility" /><g id="Group 1"><path stroke-linejoin="round" stroke-linecap="round" stroke-width="10" stroke-opacity="1" stroke="#000000" d="M5,5L65,5" /></g></g><g transform="matrix(1,0,0,1,201,66)" visibility="hidden" id="6 Outlines 7"><animate repeatCount="indefinite" begin="1.333s" calcMode="discrete" fill="freeze" dur="0.333s" values="visible; hidden" keyTimes="0; 1" attributeName="visibility" /><g id="Group 1"><path stroke-linejoin="round" stroke-linecap="round" stroke-width="10" stroke-opacity="1" stroke="#000000" d="M5,5L65,5" /></g></g><g transform="matrix(1,0,0,1,201,66)" visibility="hidden" id="6 Outlines 13"><animate repeatCount="indefinite" begin="2.333s" calcMode="discrete" fill="freeze" dur="0.333s" values="visible; hidden" keyTimes="0; 1" attributeName="visibility" /><g id="Group 1"><path stroke-linejoin="round" stroke-linecap="round" stroke-width="10" stroke-opacity="1" stroke="#000000" d="M5,5L65,5" /></g></g><g id="6 Outlines"><g transform="translate(199,262)"><animateTransform repeatCount="indefinite" type="translate" attributeName="transform" dur="2.167s" begin="0.833s" calcMode="spline" values="199 262; 119 262" keyTimes="0; 1" keySplines="0 0 1 1" fill="freeze" /><g transform="scale(1,1) translate(-59,-5)"><g id="Group 1"><path stroke-linejoin="round" stroke-linecap="round" stroke-width="10" stroke-opacity="1" stroke="#000000" d="M5,5L113,5" /></g></g></g></g><g transform="matrix(1,0,0,1,20,235)" id="6 Outlines"><g id="Group 1"><path stroke-linejoin="round" stroke-linecap="round" stroke-width="10" stroke-opacity="1" stroke="#000000" d="M5,5L254,5" /></g></g><g id="6 Outlines"><g transform="translate(149.5,176.345)"><animateTransform repeatCount="indefinite" type="translate" attributeName="transform" dur="2.667s" begin="0.167s" calcMode="spline" values="149.5 176.345; 149.5 175.345; 149.5 176.345; 149.5 175.345; 149.5 176.345; 149.5 175.345; 149.5 176.345; 149.5 175.345; 149.5 176.345; 149.5 175.345; 149.5 176.345; 149.5 175.345; 149.5 176.345; 149.5 175.345; 149.5 176.345; 149.5 175.345; 149.5 176.345" keyTimes="0; 0.063; 0.125; 0.188; 0.25; 0.313; 0.375; 0.438; 0.5; 0.563; 0.625; 0.688; 0.75; 0.813; 0.875; 0.938; 1" keySplines="0 0 1 1; 0 0 1 1; 0 0 1 1; 0 0 1 1; 0 0 1 1; 0 0 1 1; 0 0 1 1; 0 0 1 1; 0 0 1 1; 0 0 1 1; 0 0 1 1; 0 0 1 1; 0 0 1 1; 0 0 1 1; 0 0 1 1; 0 0 1 1" fill="freeze" /><g transform="scale(-1,1) translate(-149.5,-88.095)"><g id="Group 8" transform="matrix(1,0,0,1,149.5,103.25)"><path stroke-linejoin="round" stroke-linecap="round" stroke-width="10" stroke-opacity="1" stroke="#000000" d="M124.5,-17.242L124.5,27.5L102.988,27.5C102.988,15.5,93.768,6.913,82.401,6.913C71.027,6.913,61.807,15.5,61.807,27.5L-56.705,27.5C-56.705,15.5,-65.926,6.913,-77.292,6.913C-88.667,6.913,-97.887,15.5,-97.887,27.5L-124.5,27.5L-124.5,4.98C-124.5,-13.325,-109.284,-27.5,-90.979,-27.5L114.288,-27.5C120.321,-27.5,124.5,-23.276,124.5,-17.242Z" /></g><g id="Group 7" transform="matrix(1,0,0,1,41.949,86.508)"><path stroke-linejoin="round" stroke-linecap="round" stroke-width="10" stroke-opacity="1" stroke="#000000" d="M-14.689,10.423L3.954,10.423C9.883,10.423,14.689,5.616,14.689,-0.312L14.689,-10.423" /></g><g id="Group 6" transform="matrix(1,0,0,1,72.204,130.603)"><path stroke-linejoin="round" stroke-linecap="round" stroke-width="10" stroke-opacity="1" stroke="#000000" d="M20.59,0C20.59,11.374,11.37,20.587,0.003,20.587C-11.372,20.587,-20.59,11.374,-20.59,0C-20.59,-11.374,-11.372,-20.587,0.003,-20.587C11.37,-20.587,20.59,-11.374,20.59,0Z" /></g><g id="Group 5" transform="matrix(1,0,0,1,231.898,130.603)"><path stroke-linejoin="round" stroke-linecap="round" stroke-width="10" stroke-opacity="1" stroke="#000000" d="M20.59,0C20.59,11.374,11.37,20.587,0.003,20.587C-11.372,20.587,-20.59,11.374,-20.59,0C-20.59,-11.374,-11.372,-20.587,0.003,-20.587C11.37,-20.587,20.59,-11.374,20.59,0Z" /></g><g id="Group 4" transform="matrix(1,0,0,1,261.781,86.34)"><path stroke-linejoin="round" stroke-linecap="round" stroke-width="10" stroke-opacity="1" stroke="#000000" d="M-11.552,-10.59L-11.552,-1.65C-11.552,5.11,-6.072,10.59,0.689,10.59L11.552,10.59" /></g><g id="Group 3" transform="matrix(1,0,0,1,155.568,50.168)"><path stroke-linejoin="round" stroke-linecap="round" stroke-width="10" stroke-opacity="1" stroke="#000000" d="M46.501,-25.168L-39.525,-25.168C-44.609,-25.168,-49.33,-22.529,-51.993,-18.197L-83.362,25.168L83.362,25.168L59.715,-16.825C57.288,-21.921,52.146,-25.168,46.501,-25.168Z" /></g><g id="Group 2"><path stroke-linejoin="round" stroke-linecap="round" stroke-width="10" stroke-opacity="1" stroke="#000000" d="M160,25.75L160,75.75" /></g><g id="Group 1"><path stroke-linejoin="round" stroke-linecap="round" stroke-width="10" stroke-opacity="1" stroke="#000000" d="M106,89.75L211,89.75" /></g></g></g></g></svg>