<?xml version="1.0" encoding="UTF-8"?>
<svg version="1.1" xmlns="http://www.w3.org/2000/svg" width="500" height="485">
<path d="M0 0 C1.72799835 0.00544579 1.72799835 0.00544579 3.49090576 0.01100159 C4.35919006 0.0156694 5.22747437 0.02033722 6.12207031 0.02514648 C6.32457397 0.96044189 6.52707764 1.8957373 6.73571777 2.859375 C19.41730965 61.53723962 19.41730965 61.53723962 33.37496948 119.9208374 C33.86425625 121.8690332 34.35169883 123.81769186 34.83911133 125.76635742 C37.98013432 138.28482103 41.25266578 150.75905068 44.82519531 163.16186523 C45.09765076 164.11547943 45.3701062 165.06909363 45.65081787 166.05160522 C50.65039164 183.09595163 57.71748703 199.80366874 73.46582031 209.46264648 C96.32386283 221.61502352 131.65288207 221.30416131 156.12207031 214.02514648 C169.74979278 209.32158742 179.62838126 200.57684852 186.18457031 187.77514648 C194.98860013 169.43684124 199.53521456 149.44696344 204.36196136 129.78707123 C204.88008139 127.68006838 205.40126734 125.57384611 205.92340088 123.46783447 C216.08122094 82.48794753 225.25582429 41.30196213 234.12207031 0.02514648 C242.43409757 -0.0875618 250.59889441 0.15925957 258.87207031 0.96264648 C259.85433594 1.0496582 260.83660156 1.13666992 261.84863281 1.22631836 C268.99098265 1.89405882 268.99098265 1.89405882 270.12207031 3.02514648 C270.64754908 12.02122924 269.84277756 21.09689061 269.25512695 30.07275391 C269.16086635 31.55541282 269.06692276 33.03809192 268.9732666 34.52078915 C268.71795491 38.5459652 268.45773875 42.57081024 268.19642568 46.59560061 C267.97426899 50.02540261 267.75474251 53.45537111 267.53516096 56.88533878 C266.8830938 67.06854053 266.2230232 77.25121363 265.5604248 87.43373489 C265.24731423 92.24559579 264.93529233 97.05752654 264.62361085 101.86948019 C261.33558295 152.6247047 257.91571222 203.36755037 254.12207031 254.08764648 C254.02996906 255.32268795 253.93786781 256.55772942 253.84297562 257.83019638 C252.15440241 280.46556552 250.44174074 303.09903948 248.43457031 325.70874023 C248.37372253 326.40797167 248.31287476 327.1072031 248.25018311 327.82762337 C248.08349673 329.73040935 247.90966959 331.63256596 247.73535156 333.53466797 C247.64036377 334.58138168 247.54537598 335.6280954 247.44750977 336.70652771 C247.12207031 339.02514648 247.12207031 339.02514648 246.12207031 340.02514648 C243.30739954 340.41379574 240.51041377 340.74184701 237.68457031 341.02514648 C236.40815674 341.15542236 236.40815674 341.15542236 235.10595703 341.28833008 C222.12494124 342.56605518 209.16667921 343.23256959 196.12207031 343.02514648 C195.58027466 341.12886172 195.03855044 339.23255653 194.49707031 337.33618164 C193.985075 335.54519805 193.47200706 333.75452083 192.95800781 331.96411133 C191.39831242 326.52378746 189.85513945 321.07935601 188.33822632 315.62696838 C187.48513616 312.56506005 186.62526035 309.50507406 185.76483154 306.44522095 C185.34264071 304.93772586 184.92331895 303.42942374 184.50714111 301.92025757 C177.93978209 275.14005695 177.93978209 275.14005695 161.12207031 255.02514648 C140.42213804 244.57098606 108.00132112 246.43535783 86.12207031 252.02514648 C77.58232321 254.84078774 72.72370904 259.28384226 68.45019531 267.07202148 C59.04972235 286.1225375 54.1439555 306.89118799 48.765625 327.33520508 C48.53211334 328.22141037 48.29860168 329.10761566 48.05801392 330.02067566 C47.61433212 331.70783852 47.1728176 333.39557319 46.73373413 335.0839386 C45.23187544 340.80553622 45.23187544 340.80553622 44.12207031 343.02514648 C34.80530757 343.15733387 25.59999644 342.76955699 16.30957031 342.08764648 C15.05208984 342.00063477 13.79460937 341.91362305 12.49902344 341.82397461 C-5.34783562 340.55524055 -5.34783562 340.55524055 -6.87792969 339.02514648 C-7.0963857 337.52482127 -7.25245281 336.01535263 -7.38299561 334.50483704 C-7.46947609 333.52792971 -7.55595657 332.55102238 -7.64505768 331.5445118 C-7.73576286 330.46473501 -7.82646805 329.38495823 -7.91992188 328.27246094 C-8.01787804 327.1450392 -8.1158342 326.01761745 -8.21675873 324.85603142 C-8.54138577 321.09642858 -8.85854042 317.33624277 -9.17480469 313.57592773 C-9.34304538 311.59831647 -9.51128643 309.62070523 -9.67957377 307.64309794 C-11.95964172 280.79750095 -13.95684793 253.93237312 -15.8559761 227.05728531 C-16.08620671 223.80248903 -16.31737076 220.54776109 -16.54914516 217.29307443 C-19.75821894 172.2288679 -22.75153711 127.1511662 -25.63761902 82.06518936 C-25.83936711 78.91387188 -26.04157133 75.76258421 -26.24421692 72.61132431 C-26.82185197 63.62850504 -27.39571876 54.64546171 -27.96301842 45.66198349 C-28.1356302 42.92971628 -28.30969382 40.19754799 -28.48508644 37.46545792 C-28.72498309 33.71643502 -28.96040229 29.96715732 -29.19458008 26.21777344 C-29.26461872 25.13652789 -29.33465736 24.05528234 -29.40681839 22.94127178 C-30.24595163 9.30176799 -30.24595163 9.30176799 -29.87792969 3.02514648 C-27.48702977 0.63424657 -21.85591376 1.24858996 -18.62792969 0.96264648 C-17.69207031 0.87176758 -16.75621094 0.78088867 -15.79199219 0.68725586 C-10.51431472 0.20910116 -5.30057008 -0.02177216 0 0 Z " fill="#DA241C" transform="translate(129.8779296875,33.974853515625)"/>
<path d="M0 0 C6.05294824 0.0113934 12.10572053 0.00460393 18.1586628 -0.00687599 C55.29442329 -0.06664363 92.40432763 0.53209904 129.39160156 4.13574219 C130.29200165 4.22066925 131.19240173 4.30559631 132.12008667 4.39309692 C169.33055549 7.91559418 210.09257107 12.42855683 236.10253906 42.43652344 C258.80487782 72.06430488 257.6316419 110.26298895 257.58227539 145.68188477 C257.57769011 149.24223625 257.58440264 152.80224233 257.6027832 156.36254883 C257.77148579 189.39144407 256.00590552 222.16215898 251.89160156 254.94824219 C251.7867746 255.80433075 251.68194763 256.66041931 251.57394409 257.54244995 C240.20227117 350.19734296 240.20227117 350.19734296 209.14550781 377.03417969 C192.78822879 389.6849925 174.26442147 395.15144343 154.26660156 399.26074219 C153.53763672 399.41140137 152.80867188 399.56206055 152.05761719 399.71728516 C76.73161775 414.67326587 -8.48762451 410.17054309 -84.73339844 405.26074219 C-85.57360535 405.20746765 -86.41381226 405.15419312 -87.27947998 405.0993042 C-175.9966733 399.40397933 -175.9966733 399.40397933 -204.73339844 367.26074219 C-211.9200485 358.30880641 -216.59530723 347.88658705 -220.73339844 337.26074219 C-221.17296875 336.15085937 -221.61253906 335.04097656 -222.06542969 333.89746094 C-235.07466863 298.09107947 -237.60991716 257.29289123 -240.97167969 219.63183594 C-241.03493942 218.93425674 -241.09819916 218.23667755 -241.16337585 217.51795959 C-242.4030696 203.15204858 -242.89501153 188.85028325 -242.90136719 174.43652344 C-242.90459569 172.67506384 -242.90796083 170.91360448 -242.91145325 169.15214539 C-242.91738643 165.48561992 -242.91929919 161.81911781 -242.91870117 158.15258789 C-242.91861996 154.44192628 -242.92556363 150.73138826 -242.93920898 147.02075195 C-243.23534972 65.15850376 -243.23534972 65.15850376 -215.29589844 35.44824219 C-188.67519685 10.40058205 -149.13374657 7.31429213 -114.54589844 4.07324219 C-113.72847168 3.9944281 -112.91104492 3.91561401 -112.06884766 3.83441162 C-74.80916771 0.30603284 -37.39487134 -0.07093248 0 0 Z M-173.73339844 35.26074219 C-174.72082031 35.69902344 -175.70824219 36.13730469 -176.72558594 36.58886719 C-193.25977713 44.73886511 -203.59888412 59.29265485 -209.82324219 76.22558594 C-218.41581767 102.97605677 -217.00678271 132.9128793 -217.04589844 160.69824219 C-217.04719631 161.45694233 -217.04849419 162.21564247 -217.04983139 162.99733353 C-217.08633648 191.24171313 -215.86095899 219.1711035 -212.73339844 247.26074219 C-212.63438232 248.15774841 -212.53536621 249.05475464 -212.43334961 249.97894287 C-206.58618111 312.38437432 -206.58618111 312.38437432 -174.04589844 363.57324219 C-148.31599736 382.4922871 -116.01871664 384.67421805 -85.17089844 386.94824219 C-83.93539246 387.03964981 -83.93539246 387.03964981 -82.67492676 387.13290405 C-76.69742173 387.56601016 -70.71759106 387.93338525 -64.73339844 388.26074219 C-63.84065216 388.31019989 -62.94790588 388.35965759 -62.02810669 388.41061401 C-41.30832807 389.50412062 -20.56966541 389.44820321 0.17260742 389.44604492 C4.16321405 389.44596429 8.15370434 389.45282244 12.14428711 389.46655273 C33.66333931 389.5393503 55.1319433 389.3592715 76.62988281 388.33496094 C77.50536207 388.29334524 78.38084133 388.25172955 79.28285027 388.20885277 C141.2930318 386.61646216 141.2930318 386.61646216 194.26660156 358.26074219 C220.26768018 329.58744831 223.21688655 283.94789804 227.26660156 247.26074219 C227.36690674 246.35986877 227.46721191 245.45899536 227.57055664 244.53082275 C230.61736628 216.82213585 231.63815872 189.23737334 231.64160156 161.38574219 C231.64257969 160.65787884 231.64355782 159.93001549 231.64456558 159.18009567 C233.26614204 99.84423961 233.26614204 99.84423961 207.70410156 48.57324219 C181.89266169 24.0854659 141.06618199 22.465855 107.34814453 19.93481445 C106.22814104 19.8506918 106.22814104 19.8506918 105.08551121 19.76486969 C102.81264897 19.59533395 100.53965196 19.42773438 98.26660156 19.26074219 C96.98205582 19.16578964 95.69751007 19.0708371 94.3740387 18.9730072 C68.00706841 17.10198915 41.66995542 16.91727416 15.24536133 16.94506836 C10.49103281 16.94968036 5.73696134 16.94283023 0.98266602 16.92456055 C-88.12734211 14.50236464 -88.12734211 14.50236464 -173.73339844 35.26074219 Z " fill="#DA241C" transform="translate(242.7333984375,-0.2607421875)"/>
<path d="M0 0 C15.18 0 30.36 0 46 0 C46 2.97 46 5.94 46 9 C42.7 9.66 39.4 10.32 36 11 C35.34 14.96 34.68 18.92 34 23 C45.22 23 56.44 23 68 23 C67.505 17.555 67.505 17.555 67 12 C63.67485327 10.86642725 60.4120992 9.8530248 57 9 C57 6.03 57 3.06 57 0 C72.18 0 87.36 0 103 0 C103 2.97 103 5.94 103 9 C99.7 9.66 96.4 10.32 93 11 C93 22.88 93 34.76 93 47 C96.3 47.66 99.6 48.32 103 49 C103 51.97 103 54.94 103 58 C87.82 58 72.64 58 57 58 C57 55.03 57 52.06 57 49 C57.95712891 48.80083984 57.95712891 48.80083984 58.93359375 48.59765625 C59.75988281 48.42105469 60.58617187 48.24445313 61.4375 48.0625 C62.26121094 47.88847656 63.08492187 47.71445312 63.93359375 47.53515625 C65.97661204 47.19247006 65.97661204 47.19247006 67 46 C67.33 42.37 67.66 38.74 68 35 C56.78 35 45.56 35 34 35 C34.28800934 43.87268146 34.28800934 43.87268146 36 47 C38.34907875 47.68931344 38.34907875 47.68931344 41.0625 48.125 C41.98160156 48.29257812 42.90070312 48.46015625 43.84765625 48.6328125 C44.91306641 48.81457031 44.91306641 48.81457031 46 49 C46 51.97 46 54.94 46 58 C30.82 58 15.64 58 0 58 C0 55.03 0 52.06 0 49 C0.95712891 48.80083984 0.95712891 48.80083984 1.93359375 48.59765625 C2.75988281 48.42105469 3.58617187 48.24445313 4.4375 48.0625 C5.26121094 47.88847656 6.08492187 47.71445312 6.93359375 47.53515625 C8.97661204 47.19247006 8.97661204 47.19247006 10 46 C10.08847743 43.47905924 10.11527301 40.98569107 10.09765625 38.46484375 C10.0962413 37.71159317 10.09482635 36.95834259 10.09336853 36.18226624 C10.08775376 33.7673044 10.07519883 31.35243399 10.0625 28.9375 C10.0574869 27.30403779 10.05292366 25.67057414 10.04882812 24.03710938 C10.03777954 20.02470415 10.02050506 16.01236759 10 12 C8.906875 11.690625 7.81375 11.38125 6.6875 11.0625 C4.44592006 10.41662103 2.2130649 9.7376883 0 9 C0 6.03 0 3.06 0 0 Z " fill="#DA241C" transform="translate(3,425)"/>
<path d="M0 0 C5.74744858 -0.07426628 11.4946166 -0.12865726 17.24243164 -0.16479492 C19.19690823 -0.17986301 21.15135112 -0.20032124 23.10571289 -0.22631836 C25.91821623 -0.26278865 28.73027174 -0.27974622 31.54296875 -0.29296875 C32.41398727 -0.30845261 33.2850058 -0.32393646 34.18241882 -0.33988953 C38.96150289 -0.34120938 42.13850141 -0.12905192 46 3 C47.53881836 4.59960938 47.53881836 4.59960938 48.83984375 6.34375 C49.33911377 7.0044751 49.83838379 7.6652002 50.3527832 8.34594727 C50.87573975 9.05678467 51.39869629 9.76762207 51.9375 10.5 C52.48946045 11.23597412 53.0414209 11.97194824 53.61010742 12.73022461 C55.41697374 15.14605022 57.20948661 17.57203373 59 20 C60.32029643 21.78256399 61.64060913 23.56511592 62.9609375 25.34765625 C66.32119028 29.88845152 69.65932975 34.44454057 73 39 C73 30.09 73 21.18 73 12 C69.6984852 10.89949507 66.37619502 9.84404875 63 9 C63 6.03 63 3.06 63 0 C75.21 0 87.42 0 100 0 C100 2.97 100 5.94 100 9 C96.7 9.66 93.4 10.32 90 11 C89.67 26.51 89.34 42.02 89 58 C84.153125 58.061875 79.30625 58.12375 74.3125 58.1875 C72.03146362 58.22846802 72.03146362 58.22846802 69.7043457 58.27026367 C68.49866943 58.27775635 67.29299316 58.28524902 66.05078125 58.29296875 C64.20480347 58.31653442 64.20480347 58.31653442 62.3215332 58.34057617 C57.53221973 57.84949993 55.02766024 56.16632789 51.88671875 52.6015625 C51.16097656 51.61929688 50.43523437 50.63703125 49.6875 49.625 C48.82851075 48.47497219 47.96910336 47.32525663 47.109375 46.17578125 C46.62919922 45.52818848 46.14902344 44.8805957 45.65429688 44.21337891 C43.7318734 41.641258 41.78169776 39.09150923 39.828125 36.54296875 C39.10407471 35.5979248 38.38002441 34.65288086 37.6340332 33.67919922 C36.17957646 31.78098525 34.72498843 29.88287186 33.27026367 27.98486328 C32.6022876 27.10942871 31.93431152 26.23399414 31.24609375 25.33203125 C30.64466553 24.54546143 30.0432373 23.7588916 29.42358398 22.94848633 C28 21 28 21 27 19 C27 28.57 27 38.14 27 48 C30.3 48.33 33.6 48.66 37 49 C37 51.97 37 54.94 37 58 C24.79 58 12.58 58 0 58 C0 55.03 0 52.06 0 49 C3.3 48.34 6.6 47.68 10 47 C10.33 35.12 10.66 23.24 11 11 C7.37 10.34 3.74 9.68 0 9 C0 6.03 0 3.06 0 0 Z " fill="#DA241C" transform="translate(201,425)"/>
<path d="M0 0 C7.8246782 -0.05121227 15.64931231 -0.08594591 23.47412109 -0.10986328 C26.129476 -0.11870509 28.78460755 -0.13343775 31.43994141 -0.15087891 C75.48997269 -0.43271953 75.48997269 -0.43271953 87 9.7734375 C92.45536932 15.7795893 93.87188014 22.00997946 94 30 C93.48836672 37.43573699 91.10154883 43.51006165 86 49 C73.73668039 58.57687334 59.22599181 58.16080139 44.3359375 58.09765625 C43.06271637 58.0962413 41.78949524 58.09482635 40.47769165 58.09336853 C37.12735022 58.08875005 33.77707973 58.07979885 30.42675781 58.06866455 C26.99414679 58.0583512 23.56152837 58.05384986 20.12890625 58.04882812 C13.4192516 58.03785054 6.70962988 58.02115135 0 58 C0 55.03 0 52.06 0 49 C4.95 48.505 4.95 48.505 10 48 C10 36.12 10 24.24 10 12 C6.6984852 10.89949507 3.37619502 9.84404875 0 9 C0 6.03 0 3.06 0 0 Z M34 12 C34 23.22 34 34.44 34 46 C36.949375 46.061875 39.89875 46.12375 42.9375 46.1875 C43.84749756 46.21481201 44.75749512 46.24212402 45.69506836 46.27026367 C52.55751399 46.33891027 59.02385427 45.38091659 64.5 41 C67.77886858 34.44226285 67.6236835 26.86160302 65.71484375 19.875 C64.62590152 17.01875808 63.56325243 15.68635028 61 14 C54.8740396 12.10516302 49.38001309 11.74860774 43 11.875 C38.545 11.936875 38.545 11.936875 34 12 Z " fill="#DA241C" transform="translate(304,425)"/>
<path d="M0 0 C5.21789184 5.78735719 6.89371504 12.8895162 6.75 20.53515625 C6.02268946 28.02376109 2.73553848 34.33420427 -2.4609375 39.70703125 C-15.70930218 50.46783378 -35.16035078 50.55628578 -51.39453125 49.1796875 C-61.96672878 48.06798196 -72.96060797 44.84692761 -80.3984375 36.89453125 C-86.29754092 29.42326112 -87.50870592 22.13694707 -86.4609375 12.70703125 C-84.70015687 4.56048621 -80.4013992 -0.78617544 -73.4609375 -5.29296875 C-52.1023877 -15.45407765 -18.60982599 -16.78283394 0 0 Z M-56.3359375 5.70703125 C-59.4467545 10.09877289 -59.64342689 13.2368261 -59.7109375 18.51953125 C-59.73671875 19.72222656 -59.7625 20.92492187 -59.7890625 22.1640625 C-59.34283078 26.98230261 -57.65701148 30.22224976 -54.6484375 33.95703125 C-48.77984293 38.6519069 -41.63849484 38.30987071 -34.4609375 37.70703125 C-30.2772288 36.84050259 -27.23322746 35.43867437 -24.0859375 32.45703125 C-20.25434111 25.97279121 -19.30723913 18.80854121 -20.9609375 11.49609375 C-22.46367966 6.90248419 -24.21657264 4.2733914 -28.4609375 1.70703125 C-37.33035201 -2.61951241 -49.64092031 -1.9173226 -56.3359375 5.70703125 Z " fill="#DA241C" transform="translate(193.4609375,435.29296875)"/>
<path d="M0 0 C6.17469663 -0.07423798 12.34913261 -0.12864413 18.52416992 -0.16479492 C20.62415086 -0.17986772 22.7241004 -0.20032941 24.82397461 -0.22631836 C27.84496824 -0.26276754 30.86554511 -0.27974159 33.88671875 -0.29296875 C34.82335861 -0.30845261 35.75999847 -0.32393646 36.72502136 -0.33988953 C41.61559258 -0.34114804 45.11556443 -0.31449897 49 3 C50.73828125 5.13452148 50.73828125 5.13452148 52.3125 7.62109375 C52.90643555 8.54760742 53.50037109 9.47412109 54.11230469 10.42871094 C55.04671387 11.91806152 55.04671387 11.91806152 56 13.4375 C56.65645508 14.45489258 57.31291016 15.47228516 57.98925781 16.52050781 C61.24808895 21.58229709 64.42198466 26.68030014 67.484375 31.86328125 C68.03609375 32.77215088 68.5878125 33.68102051 69.15625 34.61743164 C70.18997055 36.3249391 71.19710456 38.04893839 72.171875 39.79077148 C75.12845822 44.62384103 77.35267521 46.5197756 82.890625 48.046875 C84.58722565 48.397759 86.28910666 48.72720459 88 49 C88 51.97 88 54.94 88 58 C71.83 58 55.66 58 39 58 C39 55.03 39 52.06 39 49 C41.97 48.34 44.94 47.68 48 47 C47.34 44.69 46.68 42.38 46 40 C41.19398068 40.06874423 36.38884258 40.15664272 31.58349609 40.26245117 C29.94817866 40.29574214 28.31274518 40.32376106 26.67724609 40.34643555 C24.32859757 40.37990628 21.98101663 40.43221436 19.6328125 40.48828125 C18.53273361 40.49786613 18.53273361 40.49786613 17.41043091 40.50764465 C15.12675244 40.53994543 15.12675244 40.53994543 12 41 C9.7226499 43.81509993 9.7226499 43.81509993 10 47 C12.64 47.66 15.28 48.32 18 49 C18 51.97 18 54.94 18 58 C5.79 58 -6.42 58 -19 58 C-19 55.03 -19 52.06 -19 49 C-18.35571045 48.97091553 -17.7114209 48.94183105 -17.04760742 48.91186523 C-12.97670232 48.46172616 -10.01694915 48.03031991 -7.06884766 45.04345703 C-5.32551249 42.44840031 -3.79797762 39.81323618 -2.3125 37.0625 C-1.2115039 35.14811164 -0.10994643 33.23404602 0.9921875 31.3203125 C1.50749023 30.40024414 2.02279297 29.48017578 2.55371094 28.53222656 C4.81557329 24.57205839 7.36674936 20.83208146 9.92578125 17.05859375 C11.30841567 14.79596595 11.30841567 14.79596595 11 11 C7.37 10.34 3.74 9.68 0 9 C0 6.03 0 3.06 0 0 Z M28 14 C26.49726004 16.31076085 24.99770448 18.62347911 23.5 20.9375 C22.85611328 21.9265332 22.85611328 21.9265332 22.19921875 22.93554688 C19.99414781 25.76044936 19.99414781 25.76044936 19 29 C25.27 29 31.54 29 38 29 C36.906875 27.081875 35.81375 25.16375 34.6875 23.1875 C33.76517578 21.56908203 33.76517578 21.56908203 32.82421875 19.91796875 C31.34608744 17.55359169 30.07489444 15.81952282 28 14 Z " fill="#DA241C" transform="translate(411,425)"/>
</svg>
