<?xml version="1.0" encoding="UTF-8"?>
<svg version="1.1" xmlns="http://www.w3.org/2000/svg" width="2560" height="1440">
<path d="M0 0 C0.76344727 0.1093689 1.52689453 0.21873779 2.31347656 0.3314209 C72.98161784 10.52278713 144.06975119 27.79670377 209 58 C210.04091797 58.47937012 211.08183594 58.95874023 212.15429688 59.45263672 C240.48161926 72.54172398 267.83044048 88.11650903 292 108 C292.55268555 108.45262207 293.10537109 108.90524414 293.67480469 109.37158203 C307.33208957 120.61585192 319.57289579 132.67688306 330 147 C330.42909668 147.58475098 330.85819336 148.16950195 331.30029297 148.77197266 C350.31481918 175.00064324 358.17186422 204.23108797 354.72753906 236.55712891 C353.98227167 241.20502173 352.59210058 245.58711252 351 250 C350.61328125 251.14082031 350.61328125 251.14082031 350.21875 252.3046875 C338.31628114 287.24063775 318.69116268 318.59868713 293 345 C292.35659668 345.66918457 291.71319336 346.33836914 291.05029297 347.02783203 C282.40417618 355.99784923 273.64641447 364.35256783 263.63232422 371.7734375 C262.03443267 372.97412657 260.4716703 374.22111804 258.91015625 375.46875 C185.35928589 434.08684593 84.05368905 453.9145742 -184.0625 463.5625 C-185.11700348 463.50105804 -186.17150696 463.43961609 -187.25796509 463.37631226 C-200.55058025 462.59268279 -213.77151573 461.52677579 -227 460 C-216.507388 438.55059667 -205.01763315 417.66426636 -192.84912109 397.12304688 C-190.899638 393.83049503 -188.95920586 390.53271354 -187.01953125 387.234375 C-170.43080039 359.05948434 -152.9965779 331.43705415 -134.99316406 304.14575195 C-133.10159788 301.27700842 -131.21476863 298.40518574 -129.328125 295.53320312 C-123.95500479 287.37035838 -118.58957064 279.23592494 -112.76269531 271.38793945 C-109.50785214 266.97857365 -106.42667453 262.44671903 -103.3125 257.9375 C-92.97625743 243.0311702 -82.31705002 228.37519016 -71.53515625 213.7890625 C-69.18011245 210.60263558 -66.83422272 207.40979549 -64.49609375 204.2109375 C-58.09283655 195.46118945 -51.58202925 186.8149138 -44.8984375 178.27709961 C-41.72024122 174.21691799 -38.57844597 170.1368396 -35.5 166 C-30.01126442 158.63407604 -24.34947617 151.40325632 -18.69287109 144.16601562 C-17.16478576 142.21084212 -15.63887216 140.25399478 -14.11328125 138.296875 C-8.76683564 131.45211166 -3.32681204 124.68962707 2.16430664 117.96044922 C5.65563277 113.67528728 9.0981275 109.35643519 12.5 105 C18.01525128 97.94168388 23.662073 90.99410425 29.32519531 84.05419922 C32.13892712 80.60307103 34.94371251 77.14468171 37.75 73.6875 C41.42779348 69.15863333 45.1132882 64.63638866 48.8125 60.125 C52.91665495 55.1164109 56.96699254 50.06598485 61 45 C54.22662226 49.74136442 48.33846511 55.23900195 42.328125 60.88671875 C39.25407959 63.77443235 36.11446563 66.57212796 32.921875 69.328125 C30.58894926 71.35758073 28.29488755 73.427647 26 75.5 C23.08511071 78.13180445 20.15726789 80.74286926 17.1875 83.3125 C11.92996698 87.89436613 6.84007282 92.65990048 1.72753906 97.40185547 C0.00770555 98.99287161 -1.71779041 100.57749459 -3.4453125 102.16015625 C-8.7635777 107.03740205 -14.00559194 111.94429149 -19.06251526 117.09495544 C-20.81902105 118.82205126 -22.6199161 120.41804058 -24.49975586 122.00805664 C-30.15466779 126.92687806 -35.40064587 132.2564203 -40.69140625 137.55859375 C-41.80649011 138.67300218 -42.92172222 139.78726229 -44.03709412 140.90138245 C-46.36253762 143.22536021 -48.68618511 145.55111464 -51.00854492 147.87817383 C-53.96587903 150.84120451 -56.92768128 153.7997217 -59.89085484 156.75691128 C-62.19110598 159.05352632 -64.48894231 161.35254566 -66.78608513 163.65226936 C-67.87645297 164.74329806 -68.9675468 165.83360177 -70.05941963 166.92312431 C-75.43009775 172.28477308 -80.73929398 177.65879528 -85.66148376 183.44129944 C-87.34341041 185.39990102 -89.14338506 187.20740627 -91 189 C-94.14578336 192.10375954 -97.07294016 195.31876298 -99.953125 198.66796875 C-102.58167382 201.66270853 -105.28947025 204.57955829 -108 207.5 C-112.4151451 212.26619639 -116.76922516 217.0684757 -121 222 C-121.41685059 222.4851709 -121.83370117 222.9703418 -122.26318359 223.47021484 C-124.78280676 226.40320684 -127.29904572 229.33906381 -129.8125 232.27734375 C-131.91232 234.73163705 -134.01652637 237.1820438 -136.125 239.62890625 C-142.18857355 246.67035134 -148.14842222 253.78052092 -154 261 C-155.03080794 262.26077822 -156.06208999 263.52116891 -157.09375 264.78125 C-163.36469898 272.45098904 -169.53412538 280.17682624 -175.52734375 288.06640625 C-177.25158513 290.3303306 -178.98517594 292.58696445 -180.71875 294.84375 C-189.3445722 306.09142168 -197.7839745 317.44982112 -206 329 C-206.49951172 329.70044434 -206.99902344 330.40088867 -207.51367188 331.12255859 C-229.34747741 361.76512638 -249.96495899 393.24198477 -270.19482422 424.9597168 C-276.0085183 434.05575264 -281.97348 443.04414 -288 452 C-301.23804471 450.82581256 -314.28516483 449.16641535 -327.375 446.875 C-328.24518768 446.72449188 -329.11537537 446.57398376 -330.01193237 446.41891479 C-359.97768725 441.22260967 -389.57136878 434.65723013 -419 427 C-417.15234806 422.97247358 -414.47256361 420.28672525 -411.3125 417.25 C-407.89660896 413.90688427 -404.53346747 410.5847007 -401.4375 406.9375 C-397.81699775 402.67964773 -393.83880166 398.80730045 -389.84375 394.90625 C-387.73395865 392.80238503 -385.78030434 390.60767425 -383.84375 388.34375 C-378.73237314 382.44086221 -373.09931841 377.04162023 -367.54296875 371.56347656 C-366.10980594 370.14866287 -364.67986733 368.73064302 -363.25 367.3125 C-361.98929688 366.06919922 -361.98929688 366.06919922 -360.703125 364.80078125 C-358.61046744 362.6325219 -356.62904182 360.44429994 -354.66186523 358.16625977 C-350.99728805 353.94250158 -347.11888024 349.97432625 -343.16015625 346.02734375 C-342.07147499 344.9372274 -342.07147499 344.9372274 -340.96080017 343.8250885 C-339.43676444 342.30037704 -337.91148431 340.7769085 -336.38500977 339.25463867 C-334.06867537 336.94366109 -331.75772922 334.62739229 -329.44726562 332.31054688 C-327.95604966 330.8199918 -326.46452347 329.329747 -324.97265625 327.83984375 C-324.29219742 327.15736069 -323.61173859 326.47487762 -322.91065979 325.77171326 C-319.00092918 321.88072631 -314.97921645 318.18703352 -310.80467224 314.58229065 C-308.47935365 312.54351054 -306.29439982 310.3906794 -304.125 308.1875 C-302.86429688 306.91519531 -302.86429688 306.91519531 -301.578125 305.6171875 C-300.72734375 304.75351562 -299.8765625 303.88984375 -299 303 C-293.72744738 297.64756022 -288.4473736 292.41132737 -282.7421875 287.51953125 C-280.37761971 285.45716159 -278.1881296 283.24726824 -276 281 C-272.50973578 277.41540431 -268.86457158 274.10805174 -265.08789062 270.83398438 C-261.73254469 267.88667863 -258.49494533 264.81771396 -255.25 261.75 C-244.93998965 252.04646085 -234.56129023 242.44473884 -223.78515625 233.2578125 C-222.58578591 232.23455265 -221.38657183 231.21110963 -220.1875 230.1875 C-219.58139893 229.67026367 -218.97529785 229.15302734 -218.35083008 228.62011719 C-214.60948459 225.4151062 -210.9389307 222.14798497 -207.3125 218.8125 C-203.00605963 214.86336255 -198.56133821 211.1495087 -194.015625 207.48046875 C-190.45329019 204.55030993 -186.97545747 201.53219049 -183.5 198.5 C-178.39706001 194.05418929 -173.24708686 189.6873615 -167.98828125 185.42578125 C-164.97670442 182.98108947 -161.98232073 180.51666014 -158.99072266 178.04760742 C-134.40953996 157.76165717 -134.40953996 157.76165717 -122.44921875 148.640625 C-119.17917683 146.14569703 -115.93892826 143.61364851 -112.69897461 141.07983398 C-91.65231955 124.63195144 -70.12537183 108.79850102 -48.44140625 93.203125 C-45.52209464 91.10249684 -42.61393943 88.98780822 -39.71484375 86.859375 C-30.17874301 79.87816447 -20.46280196 73.22187097 -10.58544922 66.73120117 C-5.79179379 63.5725001 -1.07172118 60.35701019 3.5546875 56.95703125 C8.80680181 53.09934178 14.20426699 49.51878379 19.6875 46 C20.59177734 45.41605469 21.49605469 44.83210938 22.42773438 44.23046875 C24.61669328 42.81748999 26.80743136 41.40736808 29 40 C0.1154735 53.03918248 -28.49455716 66.98066814 -56.17431641 82.42675781 C-59.30161861 84.16793074 -62.43749215 85.89305355 -65.57421875 87.6171875 C-79.87142035 95.49215467 -94.01656058 103.58078324 -108 112 C-108.93263672 112.56041992 -109.86527344 113.12083984 -110.82617188 113.69824219 C-132.37016259 126.66412662 -153.45377437 140.2445637 -174.375 154.1875 C-175.72399887 155.08628876 -175.72399887 155.08628876 -177.10025024 156.00323486 C-198.82268319 170.47921267 -198.82268319 170.47921267 -220.125 185.5625 C-221.64949726 186.6696046 -223.17423926 187.77637225 -224.69921875 188.8828125 C-225.42931152 189.41293945 -226.1594043 189.94306641 -226.91162109 190.48925781 C-229.35590041 192.25745987 -231.81221073 194.00807267 -234.27197266 195.75463867 C-247.54330503 205.17996927 -260.6244518 214.84545115 -273.43603516 224.88745117 C-278.28266435 228.68229267 -283.18163803 232.39484435 -288.125 236.0625 C-294.25948838 240.62408157 -300.22412522 245.36303388 -306.13452148 250.21069336 C-310.44080064 253.74219156 -314.79176241 257.20568409 -319.1875 260.625 C-324.88901533 265.07007177 -330.42030863 269.68921766 -335.91796875 274.3828125 C-338.74683013 276.79496524 -341.61575122 279.15419998 -344.5 281.5 C-349.10612915 285.24917489 -353.643896 289.07185188 -358.16845703 292.91845703 C-361.5385099 295.77846938 -364.94026308 298.59255733 -368.375 301.375 C-374.08015403 306.02027055 -379.62378615 310.84156796 -385.171875 315.671875 C-388.78734452 318.81941722 -392.42094841 321.94519655 -396.0625 325.0625 C-396.63371582 325.55194092 -397.20493164 326.04138184 -397.79345703 326.5456543 C-400.72569709 329.05705211 -403.66161476 331.56403582 -406.6015625 334.06640625 C-413.01568239 339.53315376 -419.33808745 345.06989988 -425.55078125 350.765625 C-428.32499872 353.29649006 -431.14707121 355.76639391 -433.98046875 358.23046875 C-438.02665089 361.77576954 -442.00743187 365.39458999 -446 369 C-455.4921875 377.57173295 -455.4921875 377.57173295 -459.875 381.375 C-462.74776782 383.87633926 -465.57286012 386.4246809 -468.37597656 389.00390625 C-469.41446381 389.95731418 -470.45677991 390.90656881 -471.50292969 391.8515625 C-473.90899885 394.03144598 -476.19927135 396.21343603 -478.41796875 398.58984375 C-479.14628906 399.34394531 -479.87460937 400.09804688 -480.625 400.875 C-481.23601562 401.55304688 -481.84703125 402.23109375 -482.4765625 402.9296875 C-487.66844269 405.13181625 -493.22070597 401.70338445 -498.16943359 399.74707031 C-501.7580695 398.27186299 -505.32068623 396.74299737 -508.875 395.1875 C-509.52251221 394.90543701 -510.17002441 394.62337402 -510.8371582 394.33276367 C-545.15861623 379.34356315 -577.6618138 361.39928211 -607 338 C-608.32451172 336.96552734 -608.32451172 336.96552734 -609.67578125 335.91015625 C-643.28493793 309.17220494 -673.43597185 272.7501531 -678.75 228.75 C-678.8595459 227.16826406 -678.94159884 225.58444886 -679 224 C-679.05994141 222.515 -679.05994141 222.515 -679.12109375 221 C-679.64013832 195.59734801 -670.96796906 171.35643792 -656 151 C-655.27039063 149.97390625 -654.54078125 148.9478125 -653.7890625 147.890625 C-642.21429774 132.10001097 -627.51136071 117.6742877 -611.65380859 106.20507812 C-609.93113392 104.94981946 -608.24033241 103.65881149 -606.55078125 102.359375 C-539.5015395 51.26768771 -452.43925929 26.25539237 -211 -10 C-209.68950684 -10.07347656 -208.37901367 -10.14695312 -207.02880859 -10.22265625 C-138.19294811 -13.8481337 -68.18465924 -9.80029609 0 0 Z M-383 34 C-384.19737793 34.30518555 -385.39475586 34.61037109 -386.62841797 34.92480469 C-452.47237425 51.92986766 -521.54264217 81.36881661 -564 137 C-564.42345703 137.5470459 -564.84691406 138.0940918 -565.28320312 138.65771484 C-581.06909742 159.12827201 -597.74668034 184.92005296 -595 212 C-592.7538836 228.10728517 -584.74175879 241.13217103 -572 251 C-556.5839338 261.93103939 -540.37952746 268.71125433 -522 273 C-521.04029297 273.24975586 -520.08058594 273.49951172 -519.09179688 273.75683594 C-515.10935774 274.07004735 -513.32924769 273.02684724 -509.87890625 271.0546875 C-509.30650711 270.73363541 -508.73410797 270.41258331 -508.1443634 270.08180237 C-506.27456755 269.02819786 -504.41894997 267.95191675 -502.5625 266.875 C-501.25493959 266.13266042 -499.94649694 265.39187283 -498.63720703 264.65258789 C-495.35423414 262.79460589 -492.08169896 260.91904139 -488.8114624 259.03875732 C-485.25838586 257.00129617 -481.68739239 254.99557439 -478.11914062 252.98486328 C-475.34391129 251.41996973 -472.57221426 249.84894905 -469.80078125 248.27734375 C-452.88637005 238.70386269 -435.85740881 229.34008393 -418.75390625 220.109375 C-413.20082494 217.11214812 -407.66193027 214.08942868 -402.125 211.0625 C-384.15724488 201.25289242 -366.14505329 191.53531758 -347.97265625 182.109375 C-343.76039732 179.92284744 -339.5590957 177.7161859 -335.36097717 175.50268555 C-283.52513726 148.17269668 -230.92771316 122.42684722 -177.30732727 98.78735352 C-172.88392818 96.8361775 -168.46803059 94.86932122 -164.05859375 92.88671875 C-111.02968513 69.06045783 -56.84590189 47.78016929 -2.265625 27.79296875 C-1.61254868 27.55330383 -0.95947235 27.31363892 -0.28660583 27.06671143 C2.64516295 25.99116215 5.57881627 24.92174206 8.51733398 23.86474609 C9.49516846 23.50848145 10.47300293 23.1522168 11.48046875 22.78515625 C12.31473389 22.48488525 13.14899902 22.18461426 14.00854492 21.87524414 C16.1752012 21.06669005 16.1752012 21.06669005 18 19 C-83.12201557 6.90657687 -185.78863798 4.90507264 -383 34 Z M100 44 C99.63463135 44.63574951 99.2692627 45.27149902 98.89282227 45.92651367 C70.58076438 95.1623969 70.58076438 95.1623969 56.65966797 117.35302734 C54.86330299 120.21801544 53.0737844 123.08720711 51.28515625 125.95703125 C45.48552767 135.25769564 39.66684792 144.54617399 33.8125 153.8125 C33.32539551 154.58360107 32.83829102 155.35470215 32.33642578 156.14916992 C29.95999905 159.90833878 27.57806292 163.66386693 25.1875 167.4140625 C10.28268422 190.83154143 -3.8331311 214.56550542 -17 239 C-17.51256348 239.94391602 -18.02512695 240.88783203 -18.55322266 241.86035156 C-26.1099684 255.80137756 -32.80853708 270.09804706 -39.39892578 284.51708984 C-40.90229433 287.78745516 -42.42807826 291.04600128 -43.96484375 294.30078125 C-50.05243205 307.23728859 -55.74287289 320.30794066 -61.25 333.5 C-61.58868103 334.30896729 -61.92736206 335.11793457 -62.27630615 335.95141602 C-63.2356124 338.24700959 -64.18930733 340.54483602 -65.140625 342.84375 C-65.43061371 343.53831299 -65.72060242 344.23287598 -66.01937866 344.94848633 C-67.50284647 348.36102608 -67.50284647 348.36102608 -68 352 C-18.04974416 374.03687758 76.71052302 340.71096094 125 325 C126.20897949 324.60844727 127.41795898 324.21689453 128.66357422 323.81347656 C170.87370357 310.01582859 213.45077479 292.07507552 246 261 C246.6703125 260.39285156 247.340625 259.78570313 248.03125 259.16015625 C263.89834318 244.26901523 273.56294065 224.46949379 274.4375 202.6875 C273.36572127 167.49028635 252.11675036 134.08922034 229 109 C228.15695312 108.08476562 227.31390625 107.16953125 226.4453125 106.2265625 C220.39475029 99.93794538 213.74028925 94.57124328 206.77929688 89.33935547 C205.63488727 88.47790773 204.49513499 87.61021894 203.36132812 86.73486328 C173.9969778 64.08262118 136.43457491 49.90089161 100 44 Z " fill="#FF0000" transform="translate(1421,297)"/>
<path d="M0 0 C23.70993018 -0.55064046 45.86459352 4.56187087 63.54296875 21.2109375 C68.36187191 26.42150768 72.31409403 32.21941263 76.234375 38.12109375 C76.86601563 37.45464844 77.49765625 36.78820312 78.1484375 36.1015625 C100.77034783 12.7951275 125.11462073 0.60587355 157.921875 -0.06640625 C181.64468435 0.24288722 202.06114638 6.00770217 219.234375 23.12109375 C219.87117188 23.7346875 220.50796875 24.34828125 221.1640625 24.98046875 C242.87787962 47.56283856 240.68386773 83.51928644 240.53855681 112.4576273 C240.51956903 116.88846485 240.51802243 121.31931114 240.51448059 125.75018311 C240.5052241 134.10774294 240.48069873 142.46518247 240.45043212 150.82268977 C240.41035431 162.1394406 240.39438144 173.45622524 240.37692547 184.77302933 C240.34887156 202.55580726 240.28906003 220.33833154 240.234375 238.12109375 C209.874375 238.12109375 179.514375 238.12109375 148.234375 238.12109375 C148.19699219 228.13085938 148.15960937 218.140625 148.12109375 207.84765625 C148.09081252 201.51300704 148.05978475 195.17837601 148.02539062 188.84375 C147.97095548 178.79249738 147.91954026 168.74129522 147.88793945 158.68994141 C147.86490804 151.36874552 147.83145289 144.04768268 147.78567344 136.72659242 C147.7618103 132.85298297 147.74303642 128.97950471 147.73676109 125.10582352 C147.73067875 121.45318657 147.71056664 117.80088501 147.68009949 114.14837265 C147.66723446 112.18224754 147.66888055 110.21604388 147.6710968 108.24987793 C147.55894916 97.59044719 146.14999482 88.23434007 138.48046875 80.30859375 C132.66106024 74.84222177 127.3882037 72.05971987 119.359375 71.74609375 C111.01678056 72.04038773 102.61092417 74.58103813 96.234375 80.12109375 C86.3532869 92.04113653 84.94276445 105.44895195 84.91552734 120.39526367 C84.90548172 121.67458771 84.8954361 122.95391174 84.88508606 124.27200317 C84.85803474 127.74436916 84.84271148 131.21669516 84.82965803 134.68913817 C84.81391729 138.33132314 84.78716262 141.97342772 84.7616272 145.61555481 C84.71503156 152.49648042 84.67819514 159.37742148 84.64495432 166.25842315 C84.59940937 175.56799761 84.53860736 184.877472 84.47870636 194.18696308 C84.38487506 208.83162288 84.31127174 223.47631255 84.234375 238.12109375 C53.874375 238.12109375 23.514375 238.12109375 -7.765625 238.12109375 C-7.81460938 228.28683594 -7.86359375 218.45257812 -7.9140625 208.3203125 C-7.94945772 202.08137153 -7.98534334 195.84243973 -8.0234375 189.60351562 C-8.08377975 179.70599477 -8.1421489 169.80849109 -8.1875 159.91088867 C-8.22054327 152.70141124 -8.26044168 145.4920091 -8.30841506 138.28261501 C-8.33355803 134.46880089 -8.3553746 130.65503594 -8.36896896 126.84116173 C-8.38190102 123.243579 -8.40407251 119.64616592 -8.43300819 116.04867744 C-8.44624939 114.1149436 -8.44998379 112.18115178 -8.45332336 110.24737549 C-8.55415242 99.62321278 -8.7749479 87.67805375 -16.3359375 79.40234375 C-22.79621047 73.49249763 -30.05487075 70.94712719 -38.765625 71.12109375 C-48.07369469 72.27691746 -56.23458662 75.77316143 -62.390625 83.0390625 C-67.07544116 90.02445802 -69.1418709 98.131541 -69.92724609 106.41333008 C-70.04648217 107.61782539 -70.04648217 107.61782539 -70.16812706 108.84665394 C-71.24490972 121.01291265 -71.12531359 133.2418365 -71.1796875 145.4453125 C-71.19843811 148.13101642 -71.21792332 150.81670514 -71.2383728 153.50239563 C-71.28470667 159.79514781 -71.32166655 166.08791673 -71.35504568 172.38074952 C-71.39739182 180.26626192 -71.45263051 188.15167815 -71.5078125 196.03710938 C-71.60592399 210.06505057 -71.68491843 224.0930177 -71.765625 238.12109375 C-102.125625 238.12109375 -132.485625 238.12109375 -163.765625 238.12109375 C-163.80300781 225.95363281 -163.84039062 213.78617188 -163.87890625 201.25 C-163.90918062 193.54360838 -163.94020329 185.83723182 -163.97460938 178.13085938 C-164.02908574 165.89788171 -164.08049918 153.66494588 -164.11206055 141.43188477 C-164.13506125 132.52235502 -164.1684825 123.61293515 -164.21432656 114.70349258 C-164.23823078 109.98763561 -164.25697792 105.27188728 -164.26323891 100.55597115 C-164.26930242 96.11295656 -164.28934797 91.67021984 -164.31990051 87.22730827 C-164.32866046 85.60081286 -164.33240757 83.9742811 -164.33063316 82.34776306 C-164.32270756 71.72601672 -164.43146617 61.64457563 -171.765625 53.12109375 C-177.43353249 49.40599472 -183.04858236 48.08225194 -189.77734375 47.83984375 C-190.69966797 47.80246094 -191.62199219 47.76507812 -192.57226562 47.7265625 C-194.50454165 47.65582155 -196.4368336 47.5855142 -198.36914062 47.515625 C-199.28759766 47.47824219 -200.20605469 47.44085937 -201.15234375 47.40234375 C-201.98983154 47.37205078 -202.82731934 47.34175781 -203.69018555 47.31054688 C-205.765625 47.12109375 -205.765625 47.12109375 -207.765625 46.12109375 C-207.21819079 41.16377285 -205.61401703 37.21290782 -203.265625 32.87109375 C-202.73376587 31.88701538 -202.73376587 31.88701538 -202.19116211 30.88305664 C-195.89683689 19.6550811 -187.11649447 11.2047524 -174.98046875 6.6640625 C-168.67453315 5.11816294 -162.32411636 4.97800438 -155.87109375 5.00756836 C-154.59650047 5.00734932 -154.59650047 5.00734932 -153.29615784 5.00712585 C-150.51512002 5.00781703 -147.73415097 5.01557183 -144.953125 5.0234375 C-143.01399777 5.02530451 -141.07487006 5.02672708 -139.13574219 5.02772522 C-134.05261921 5.03152811 -128.96952518 5.04133921 -123.88641357 5.0524292 C-118.69120678 5.06269139 -113.49599527 5.06723311 -108.30078125 5.07226562 C-98.12238112 5.08296362 -87.94401001 5.10054221 -77.765625 5.12109375 C-77.435625 15.68109375 -77.105625 26.24109375 -76.765625 37.12109375 C-73.300625 33.16109375 -73.300625 33.16109375 -69.765625 29.12109375 C-67.13933019 26.67285283 -64.54223663 24.38068114 -61.765625 22.12109375 C-60.91484375 21.40953125 -60.0640625 20.69796875 -59.1875 19.96484375 C-41.7445045 6.04857411 -21.98990137 0.96283466 0 0 Z " fill="#656565" transform="translate(587.765625,950.87890625)"/>
<path d="M0 0 C0 76.89 0 153.78 0 233 C-21.12 233 -42.24 233 -64 233 C-64.33 225.74 -64.66 218.48 -65 211 C-66.381875 212.629375 -67.76375 214.25875 -69.1875 215.9375 C-79.26712632 227.25236636 -92.41054656 235.20645507 -107.80810547 236.17700195 C-130.29770549 236.6275119 -148.72364233 235.43914572 -165.79296875 219.203125 C-166.52128906 218.47609375 -167.24960938 217.7490625 -168 217 C-168.82951172 216.18789062 -168.82951172 216.18789062 -169.67578125 215.359375 C-189.15330495 194.5693497 -192.77935681 164.19453676 -192.13623047 137.11132812 C-191.14523968 114.47837722 -183.20518648 92.67639781 -166.69140625 76.77734375 C-150.04337605 62.58961358 -130.25852154 58.77405384 -109 60 C-94.64757246 61.81188698 -79.44594682 67.55405318 -69 78 C-68.87551473 72.3441553 -68.78524626 66.68912461 -68.7253418 61.03222656 C-68.70034513 59.11183768 -68.66633588 57.19154249 -68.62280273 55.27148438 C-68.05556991 39.02663093 -68.05556991 39.02663093 -75.65087891 25.12402344 C-79.94561319 20.75968907 -85.15705287 19.34023335 -91 18 C-88.85920491 11.14945572 -83.97062292 4.92804139 -78 1 C-52.77422213 -5.30644447 -26.00213666 0 0 0 Z M-118 119 C-126.45481762 132.20663917 -126.16272086 149.47827954 -123.8125 164.4609375 C-121.90574719 172.76631274 -118.45940235 180.18768373 -111.125 184.8828125 C-103.6381679 188.81890438 -97.357555 189.79532663 -89 188 C-82.07387668 185.75598456 -76.43184048 181.14397739 -72.74609375 174.86328125 C-66.49715881 161.65058856 -65.69231734 144.69768198 -69.625 130.6875 C-72.84002315 121.98670307 -78.00987172 115.74413867 -86 111 C-98.00812491 106.19675003 -109.6460925 109.25079318 -118 119 Z " fill="#656565" transform="translate(1836,956)"/>
<path d="M0 0 C0.69457621 -0.00024107 1.38915241 -0.00048214 2.10477638 -0.00073051 C4.33381984 0.00075196 6.56252097 0.01593507 8.79150391 0.03173828 C10.17537271 0.03468204 11.55924375 0.03672043 12.94311523 0.0378418 C18.05146644 0.04829063 23.15976985 0.0762132 28.26806641 0.10205078 C39.69431641 0.14330078 51.12056641 0.18455078 62.89306641 0.22705078 C63.22306641 27.61705078 63.55306641 55.00705078 63.89306641 83.22705078 C66.20306641 80.91705078 68.51306641 78.60705078 70.89306641 76.22705078 C73.17548776 74.55552808 75.37455982 73.01728093 77.76806641 71.53955078 C78.38246582 71.15653809 78.99686523 70.77352539 79.62988281 70.37890625 C96.92452445 59.76018728 117.53827862 57.67036828 137.39306641 61.35205078 C150.95892263 64.79128194 161.86971999 71.90164756 169.76806641 83.53955078 C177.57791244 96.75197266 179.22190234 111.53705958 179.12011719 126.62670898 C179.12040924 127.78928223 179.12070129 128.95185547 179.1210022 130.1496582 C179.11962339 133.94246225 179.10413111 137.73506286 179.08837891 141.52783203 C179.08464361 144.17726473 179.08170053 146.82668657 179.07980347 149.47612 C179.07362498 155.70538995 179.05726419 161.93458843 179.03710449 168.16382712 C179.01242049 175.96288267 179.00157877 183.7619502 178.99072266 191.56103516 C178.97132969 205.44976249 178.93125136 219.33833421 178.89306641 233.22705078 C156.78306641 233.22705078 134.67306641 233.22705078 111.89306641 233.22705078 C111.83699219 222.82431641 111.83699219 222.82431641 111.77978516 212.21142578 C111.74948484 207.7999433 111.7183234 203.38850015 111.68408203 198.97705078 C111.6298957 191.98553525 111.57878035 184.99409753 111.54663086 178.00244141 C111.52049099 172.3612899 111.48001359 166.72040186 111.42988014 161.07941437 C111.41328344 158.93464706 111.40172461 156.78983425 111.3954525 154.6450119 C112.07667607 134.64705889 112.07667607 134.64705889 103.89306641 117.22705078 C98.31593332 112.73710567 92.17857958 112.61823571 85.23681641 112.84814453 C78.88060163 113.56841653 74.92467844 115.85812874 70.58056641 120.47705078 C64.28950959 128.46053864 63.75284138 137.8255352 63.68774414 147.62890625 C63.67784454 148.55637161 63.66794495 149.48383698 63.65774536 150.43940735 C63.62627369 153.4909921 63.60142981 156.54259239 63.57666016 159.59423828 C63.55607824 161.71559035 63.53508145 163.83693844 63.51368713 165.95828247 C63.45859425 171.53129845 63.40912875 177.10435066 63.36083984 182.6774292 C63.30168015 189.36975044 63.23552273 196.06200572 63.17053986 202.75427246 C63.07269126 212.91182482 62.98372509 223.06942024 62.89306641 233.22705078 C40.45306641 233.22705078 18.01306641 233.22705078 -5.10693359 233.22705078 C-5.12880737 224.42919922 -5.12880737 224.42919922 -5.15112305 215.45361328 C-5.20142302 196.09136202 -5.26785948 176.72919109 -5.34264851 157.36701965 C-5.38760519 145.6258738 -5.42702022 133.88475826 -5.45336914 122.14355469 C-5.47635017 111.90937409 -5.50974951 101.67528947 -5.55563515 91.441185 C-5.57956581 86.02280759 -5.59829568 80.60452523 -5.6045475 75.18609619 C-5.61059898 70.08401762 -5.63060143 64.98218223 -5.66120911 59.88019371 C-5.66998826 58.00977963 -5.67371217 56.13933377 -5.67194176 54.26889992 C-5.67028451 51.70966737 -5.68702637 49.15117219 -5.70820618 46.59204102 C-5.7033586 45.85660883 -5.69851102 45.12117664 -5.69351655 44.36345863 C-5.78136387 37.90542853 -7.22484674 32.45583785 -11.48193359 27.41455078 C-16.1708943 23.87390699 -22.46332605 23.25696729 -28.10693359 22.22705078 C-25.02209158 14.11666802 -21.19436548 6.2044763 -13.10693359 2.22705078 C-8.58383245 0.46106342 -4.84496779 -0.01749086 0 0 Z " fill="#656565" transform="translate(1101.10693359375,955.77294921875)"/>
<path d="M0 0 C1.22197083 0.00090637 1.22197083 0.00090637 2.46862793 0.00183105 C60.38398458 0.11817824 60.38398458 0.11817824 79.1875 18.1875 C93.72415919 34.64584975 95.63817895 56.7595695 95.56762505 77.70505333 C95.55835704 80.71355802 95.56891229 83.72146007 95.58424377 86.72993469 C95.62392793 95.27055171 95.62554654 103.81111255 95.62329102 112.35180664 C95.62323963 117.60940696 95.64253747 122.86667625 95.67262459 128.12418556 C95.68333234 131.06492706 95.6713959 134.00500549 95.65879822 136.94572449 C95.68119409 148.26552028 96.84023885 157.32567507 101.31834412 167.84355164 C102.1875 170.1875 102.1875 170.1875 102.1875 173.1875 C94.19029735 173.37305702 86.193997 173.51509902 78.19517231 173.60199738 C74.48065864 173.64371076 70.76761978 173.70025646 67.05395508 173.79101562 C63.46821366 173.87809759 59.88388798 173.92580313 56.29717064 173.94651794 C54.93065278 173.96127372 53.56421053 173.99009259 52.1982975 174.03334045 C41.50555442 174.35835699 41.50555442 174.35835699 38.24882507 171.46533203 C36.9189253 169.39709022 35.99796775 167.50405571 35.1875 165.1875 C34.80980469 164.135625 34.43210937 163.08375 34.04296875 162 C33.82253906 161.071875 33.60210938 160.14375 33.375 159.1875 C33.14167969 158.23875 32.90835938 157.29 32.66796875 156.3125 C32.50941406 155.61125 32.35085938 154.91 32.1875 154.1875 C31.77242187 154.6 31.35734375 155.0125 30.9296875 155.4375 C14.01450458 171.29106056 -8.25418735 176.56327841 -30.86254883 176.55810547 C-32.98016092 176.56245921 -35.09564734 176.59885376 -37.21289062 176.63671875 C-54.62748769 176.77900807 -70.66638909 172.74967588 -83.5546875 160.5078125 C-93.21088691 150.58431346 -97.06972452 139.91830605 -97.0612793 126.13232422 C-96.89292655 116.11594107 -94.32522293 107.52340527 -88.8125 99.1875 C-88.1525 98.176875 -87.4925 97.16625 -86.8125 96.125 C-72.09543536 79.77773743 -44.53393072 77.19761689 -24.375 73.1875 C-9.5256123 70.22937024 5.10793107 67.30425803 19.44946289 62.38671875 C22.72231344 61.33673887 25.7880447 60.64000653 29.1875 60.1875 C27.52429046 50.3719141 27.52429046 50.3719141 21.1875 43.1875 C12.34967235 38.35170751 0.62188299 39.0574621 -8.9375 41.4375 C-17.34583969 44.1774373 -21.53152418 48.61561118 -25.8125 56.1875 C-26.1425 57.1775 -26.4725 58.1675 -26.8125 59.1875 C-33.75955247 59.30926775 -40.51028793 58.84244661 -47.41796875 58.12890625 C-48.50080643 58.0202977 -49.5836441 57.91168915 -50.69929504 57.79978943 C-52.97446664 57.57070194 -55.24942336 57.33947126 -57.52416992 57.10620117 C-60.99935241 56.75006636 -64.47517774 56.40084897 -67.95117188 56.05273438 C-70.16931174 55.82852931 -72.38741213 55.60393338 -74.60546875 55.37890625 C-76.15720039 55.22259483 -76.15720039 55.22259483 -77.74028015 55.06312561 C-82.46270496 54.57690978 -87.14062614 54.05203723 -91.8125 53.1875 C-88.27601578 36.60762988 -82.91252921 23.1989337 -68.25 13.5 C-47.84081509 0.66253317 -23.40714875 -0.03204345 0 0 Z M23 94.76171875 C21.3746936 95.26481567 21.3746936 95.26481567 19.71655273 95.77807617 C18.55196533 96.14006104 17.38737793 96.5020459 16.1875 96.875 C9.05695302 99.09078374 1.92969161 101.28553979 -5.26489258 103.28442383 C-18.46100886 106.85060117 -18.46100886 106.85060117 -27.8125 116.1875 C-29.56647887 120.75661496 -30.32460369 124.70434703 -28.8125 129.4375 C-26.47484248 134.58444771 -22.85468249 137.32978335 -17.6875 139.5 C-4.61591032 141.81915301 5.7632432 139.4562779 16.703125 132.0703125 C23.84674859 126.65643425 26.96485064 120.79220392 28.5859375 112.03515625 C29.42269585 105.78208374 29.28337627 99.48337511 29.1875 93.1875 C27.09787145 93.1875 24.96738841 94.15015853 23 94.76171875 Z " fill="#656565" transform="translate(962.8125,1015.8125)"/>
<path d="M0 0 C1.23592896 0.00415421 1.23592896 0.00415421 2.49682617 0.00839233 C58.6039442 0.22881122 58.6039442 0.22881122 78.37109375 18.17578125 C93.12752445 33.43432112 94.84438918 54.10156571 94.7890625 74.12890625 C94.79899767 76.11418222 94.81094946 78.09944901 94.82479858 80.08470154 C94.85691409 85.27253182 94.86752965 90.46015142 94.87164307 95.64807129 C94.88045134 103.95122943 94.91633196 112.25421665 94.9638176 120.55723381 C94.97624123 123.42962722 94.97565931 126.30179524 94.97354126 129.17420959 C94.80850119 147.5248487 94.80850119 147.5248487 99.875 164.9375 C102.25 170.01011561 102.25 170.01011561 102.25 173.25 C81.46 173.25 60.67 173.25 39.25 173.25 C34.75910493 165.16638887 33.59902746 162.51031647 33.25 154.25 C32.21101563 154.98605469 31.17203125 155.72210937 30.1015625 156.48046875 C11.00609399 169.8952476 -7.26134576 176.62599128 -30.80004883 176.62060547 C-32.91766092 176.62495921 -35.03314734 176.66135376 -37.15039062 176.69921875 C-54.41159249 176.84139854 -71.87658892 172.74417571 -84.71484375 160.51171875 C-94.91649169 149.17437872 -97.54311942 137.77561932 -97.09765625 122.95703125 C-96.45147644 111.4439135 -92.10322022 101.14156651 -83.75 93.125 C-65.90209183 79.05710732 -40.69553319 76.41390556 -19.11987305 72.203125 C-4.24569779 69.28657849 10.10170447 65.78430941 24.4289093 60.80331421 C26.25 60.25 26.25 60.25 28.25 60.25 C27.96515154 58.51969709 27.67180062 56.79079286 27.375 55.0625 C27.21257813 54.09957031 27.05015625 53.13664062 26.8828125 52.14453125 C26.26333247 49.31098369 25.51346817 46.85993791 24.25 44.25 C21.98398135 42.95957237 21.98398135 42.95957237 19.25 42.25 C18.36054688 41.9096875 17.47109375 41.569375 16.5546875 41.21875 C5.39220621 37.94653326 -7.59390877 40.14452645 -18.0625 44.6875 C-22.40079016 48.82400922 -24.92403524 54.0145133 -27.75 59.25 C-39.83160447 58.69097294 -51.8375215 57.75822824 -63.86816406 56.52050781 C-66.53925991 56.24596475 -69.21096182 55.97802544 -71.8828125 55.7109375 C-73.60420489 55.53683582 -75.32556055 55.36237053 -77.046875 55.1875 C-77.83439148 55.10830322 -78.62190796 55.02910645 -79.43328857 54.94750977 C-83.57000969 54.51961568 -87.65379255 53.98617724 -91.75 53.25 C-90.127946 40.95144129 -86.21146553 30.46121564 -77.75 21.25 C-77.20085937 20.64671875 -76.65171875 20.0434375 -76.0859375 19.421875 C-56.74854067 0.51041202 -25.28322319 -0.16765298 0 0 Z M23.04296875 94.5703125 C22.15561035 94.85543701 21.26825195 95.14056152 20.35400391 95.43432617 C19.39155762 95.74474854 18.42911133 96.0551709 17.4375 96.375 C11.51555078 98.27990499 5.59336324 100.16828838 -0.37890625 101.91015625 C-1.26280029 102.16845215 -2.14669434 102.42674805 -3.05737305 102.69287109 C-4.71972497 103.17496422 -6.38386338 103.65095659 -8.05004883 104.11962891 C-14.692068 106.04974047 -21.75441487 108.19893328 -26.1875 113.8125 C-26.66058594 114.39128906 -27.13367187 114.97007813 -27.62109375 115.56640625 C-30.14041961 119.32360156 -30.04733637 122.86428854 -29.75 127.25 C-27.89854641 132.39292664 -25.18802125 135.11727911 -20.75 138.25 C-11.52194538 141.91050433 -1.85541535 141.09362644 7.32421875 137.640625 C16.95356954 133.06379071 23.74180148 127.22015167 27.36328125 117.15625 C28.6587967 112.42076519 28.46621091 107.68526735 28.375 102.8125 C28.36597656 101.89017578 28.35695313 100.96785156 28.34765625 100.01757812 C28.3242766 97.76144191 28.29150916 95.50586316 28.25 93.25 C26.44235957 93.25 24.74919106 94.01881686 23.04296875 94.5703125 Z " fill="#656565" transform="translate(2111.75,1015.75)"/>
<path d="M0 0 C12.40184879 11.89727678 17.09323263 29.70217688 17.65156746 46.41629219 C17.68476707 49.41806659 17.68628151 52.41822506 17.67602539 55.42016602 C17.67617142 56.55289444 17.67631744 57.68562286 17.6764679 58.85267639 C17.67577525 62.56977298 17.66801335 66.28681849 17.66015625 70.00390625 C17.65828977 72.59179151 17.65686695 75.17967713 17.65586853 77.76756287 C17.65244992 83.86590227 17.64458093 89.96422082 17.63451904 96.06255239 C17.62220436 103.69339081 17.61676219 111.32423223 17.61132812 118.95507812 C17.60161441 132.5533995 17.58157792 146.15168138 17.5625 159.75 C-4.8775 159.75 -27.3175 159.75 -50.4375 159.75 C-50.46328125 152.43070313 -50.4890625 145.11140625 -50.515625 137.5703125 C-50.54080384 132.9218404 -50.56714486 128.27343269 -50.59765625 123.625 C-50.6459306 116.25357859 -50.68999828 108.8823063 -50.70849609 101.51074219 C-50.72368641 95.56481259 -50.75817494 89.61927421 -50.80580902 83.67351913 C-50.82059819 81.4098743 -50.82853959 79.14617361 -50.82938385 76.88248062 C-50.8317626 73.70134463 -50.85891659 70.52128182 -50.89160156 67.34033203 C-50.8865712 66.41315872 -50.88154083 65.48598541 -50.87635803 64.53071594 C-51.00011044 56.69964751 -52.88446343 49.89219886 -57.875 43.75 C-64.35634822 38.69138675 -71.52548373 38.92259961 -79.4375 39.75 C-85.35125229 41.49759962 -90.21101731 44.34992572 -93.48046875 49.67578125 C-99.64494308 63.03633582 -98.62494567 78.39178381 -98.75390625 92.7578125 C-98.7745091 94.69408579 -98.79550637 96.63035493 -98.81687927 98.56661987 C-98.87175625 103.63322556 -98.92131537 108.69986949 -98.96972656 113.76654053 C-99.02908648 119.86158376 -99.09512306 125.95655795 -99.16002655 132.05154419 C-99.25760278 141.2843202 -99.34675465 150.51714295 -99.4375 159.75 C-121.5475 159.75 -143.6575 159.75 -166.4375 159.75 C-166.49357422 145.0546875 -166.49357422 145.0546875 -166.55078125 130.0625 C-166.58105766 123.85545461 -166.61208183 117.64842787 -166.64648438 111.44140625 C-166.70094857 101.58969823 -166.75236251 91.73804201 -166.78393555 81.88623047 C-166.80694535 74.71081314 -166.84037659 67.53553204 -166.88620156 60.36022282 C-166.9100937 56.56268877 -166.92884867 52.76528932 -166.93511391 48.96768188 C-166.94118302 45.38891704 -166.96124811 41.81049638 -166.99177551 38.23185921 C-167.00468073 36.30113358 -167.00299081 34.37032742 -167.0007782 32.43955994 C-167.08720775 24.41754341 -167.41420365 17.984224 -173.125 11.875 C-176.99872335 9.38996993 -179.94573844 8.60188581 -184.4375 7.75 C-183.86878063 3.96299808 -182.84532636 1.32573476 -180.75 -1.875 C-180.27175781 -2.63039063 -179.79351563 -3.38578125 -179.30078125 -4.1640625 C-176.17430034 -7.66414805 -172.77542341 -9.1038711 -168.13442993 -9.61076355 C-166.34239639 -9.6007708 -166.34239639 -9.6007708 -164.51416016 -9.59057617 C-163.8500412 -9.59101425 -163.18592224 -9.59145233 -162.50167847 -9.59190369 C-160.3263312 -9.58982875 -158.1517736 -9.56656086 -155.9765625 -9.54296875 C-154.4605654 -9.53736814 -152.94456284 -9.53310024 -151.42855835 -9.53010559 C-147.45331632 -9.51869329 -143.47840712 -9.48925776 -139.5032959 -9.45599365 C-135.44104514 -9.42521441 -131.3787402 -9.41158353 -127.31640625 -9.39648438 C-119.35660165 -9.36438406 -111.39713067 -9.3116462 -103.4375 -9.25 C-102.9425 2.63 -102.9425 2.63 -102.4375 14.75 C-100.7875 12.77 -99.1375 10.79 -97.4375 8.75 C-72.37904816 -16.10092843 -28.87901964 -23.14773058 0 0 Z " fill="#656565" transform="translate(1596.4375,1029.25)"/>
<path d="M0 0 C-0.58789209 5.70052603 -2.71633254 10.38756926 -5.03515625 15.5546875 C-5.43327011 16.45623566 -5.83138397 17.35778381 -6.24156189 18.28665161 C-7.50877937 21.15233367 -8.78548276 24.01367349 -10.0625 26.875 C-10.9257605 28.82263742 -11.78839776 30.77055121 -12.65039062 32.71875 C-14.75971802 37.48239178 -16.87683986 42.24250867 -19 47 C-22.71684766 46.50590408 -26.19418596 45.9458826 -29.8125 44.9375 C-37.40881302 42.99801582 -45.04934449 43.13506151 -52 47 C-64.47884733 57.15720131 -66.19822255 73.71725146 -67.79944038 88.75149536 C-68.39242311 95.39951568 -68.36474244 102.08060534 -68.4140625 108.75 C-68.43283527 110.38623971 -68.45241287 112.02247036 -68.4727478 113.65869141 C-68.52343138 117.90647973 -68.56339229 122.15429924 -68.60089111 126.40222168 C-68.64848427 131.53047435 -68.70980075 136.65858021 -68.76873779 141.78671265 C-68.85616944 149.52441371 -68.92648993 157.26209791 -69 165 C-91.11 165 -113.22 165 -136 165 C-136.04898437 155.35910156 -136.09796875 145.71820312 -136.1484375 135.78515625 C-136.18382707 129.6738192 -136.21970899 123.5624916 -136.2578125 117.45117188 C-136.31818703 107.7531958 -136.37656389 98.05523745 -136.421875 88.35717773 C-136.45488716 81.29347934 -136.49476889 74.22985828 -136.54279006 67.1662454 C-136.56796365 63.42850728 -136.58977154 59.69081984 -136.60334396 55.9530201 C-136.61864996 51.77333654 -136.64929717 47.59389686 -136.68115234 43.41430664 C-136.68331253 42.18431442 -136.68547272 40.9543222 -136.68769836 39.6870575 C-136.61601165 28.64531472 -136.61601165 28.64531472 -140.625 18.625 C-143.91686054 16.37267437 -147.21623326 15.26125558 -151 14 C-151.32947186 8.7284503 -151.0958058 3.47820964 -148 -1 C-143.537919 -3.68410114 -140.25128402 -4.36943095 -135.07666016 -4.34057617 C-134.4125412 -4.34101425 -133.74842224 -4.34145233 -133.06417847 -4.34190369 C-130.8888312 -4.33982875 -128.7142736 -4.31656086 -126.5390625 -4.29296875 C-125.0230654 -4.28736814 -123.50706284 -4.28310024 -121.99105835 -4.28010559 C-118.01581632 -4.26869329 -114.04090712 -4.23925776 -110.0657959 -4.20599365 C-106.00354514 -4.17521441 -101.9412402 -4.16158353 -97.87890625 -4.14648438 C-89.91910165 -4.11438406 -81.95963067 -4.0616462 -74 -4 C-73.505 7.385 -73.505 7.385 -73 19 C-71.824375 17.164375 -70.64875 15.32875 -69.4375 13.4375 C-62.42386816 2.96019409 -54.62754478 -4.48688925 -42.10546875 -7.4921875 C-27.1346711 -9.94024246 -13.44740054 -6.60574062 0 0 Z " fill="#656565" transform="translate(2012,1024)"/>
<path d="M0 0 C22.44 0 44.88 0 68 0 C68 55.77 68 111.54 68 169 C45.56 169 23.12 169 0 169 C0 113.23 0 57.46 0 0 Z " fill="#656565" transform="translate(1321,1020)"/>
<path d="M0 0 C5.428861 4.52405083 9.39161967 8.67944253 10.5625 15.86328125 C10.72673669 21.97083304 8.28875229 26.73111974 4.5625 31.4375 C-3.40911386 39.84453814 -14.12494331 42.15354663 -25.3125 42.5 C-34.66272955 42.31995707 -45.4084764 39.94790305 -52.3515625 33.29296875 C-57.60142964 27.47058524 -59.81081481 23.56108659 -59.625 15.65234375 C-59.01957228 9.6832048 -55.76843216 5.9951412 -51.375 2.1875 C-36.35247599 -9.11292543 -16.16049083 -8.67878211 0 0 Z " fill="#656565" transform="translate(1379.375,959.8125)"/>
</svg>
