<?xml version="1.0" encoding="UTF-8"?>
<svg version="1.1" xmlns="http://www.w3.org/2000/svg" width="870" height="470">
<path d="M0 0 C287.1 0 574.2 0 870 0 C870 155.1 870 310.2 870 470 C582.9 470 295.8 470 0 470 C0 314.9 0 159.8 0 0 Z " fill="#FEFDFD" transform="translate(0,0)"/>
<path d="M0 0 C2.29454385 0.01857228 4.58868861 0.02050669 6.88330078 0.02026367 C18.68750987 0.05958914 18.68750987 0.05958914 22.63720703 1.20581055 C24.88517236 1.38022165 27.13570499 1.52286994 29.38720703 1.64331055 C34.73153461 1.98918561 39.51630465 2.66953983 44.63720703 4.20581055 C44.63720703 4.86581055 44.63720703 5.52581055 44.63720703 6.20581055 C46.18408203 6.23674805 46.18408203 6.23674805 47.76220703 6.26831055 C55.47625597 7.19289244 62.87567508 11.93938189 69.41845703 15.8815918 C71.58169729 17.27241827 71.58169729 17.27241827 73.94970703 18.01831055 C81.26650262 21.25131325 85.98642564 26.49464918 90.68017578 32.83862305 C92.59626068 35.32871334 92.59626068 35.32871334 95.32470703 37.30737305 C97.63720703 39.20581055 97.63720703 39.20581055 98.44970703 42.45581055 C98.51158203 43.36331055 98.57345703 44.27081055 98.63720703 45.20581055 C97.67234375 45.02405273 97.67234375 45.02405273 96.68798828 44.83862305 C89.35859125 43.47939107 82.00942077 42.30754042 74.63720703 41.20581055 C74.63720703 40.54581055 74.63720703 39.88581055 74.63720703 39.20581055 C73.67298828 39.14522461 72.70876953 39.08463867 71.71533203 39.0222168 C70.45205078 38.93842773 69.18876953 38.85463867 67.88720703 38.76831055 C66.63423828 38.68709961 65.38126953 38.60588867 64.09033203 38.5222168 C60.63720703 38.20581055 60.63720703 38.20581055 58.67626953 37.7019043 C55.42083041 36.90987217 52.09702445 36.87102168 48.76220703 36.70581055 C41.3727462 36.33565203 41.3727462 36.33565203 37.76464844 35.69873047 C32.49230506 34.86774989 27.21418626 35.02134068 21.88720703 35.01831055 C20.73865234 35.00606445 19.59009766 34.99381836 18.40673828 34.98120117 C17.31232422 34.97926758 16.21791016 34.97733398 15.09033203 34.9753418 C14.09163086 34.97123291 13.09292969 34.96712402 12.06396484 34.96289062 C9.45557211 34.96533833 9.45557211 34.96533833 7.63720703 37.20581055 C7.32455421 39.07689364 7.32455421 39.07689364 7.35873413 41.2427063 C7.34757065 42.08687103 7.33640717 42.93103577 7.3249054 43.80078125 C7.32274521 44.72866455 7.32058502 45.65654785 7.31835938 46.61254883 C7.30831375 47.58819794 7.29826813 48.56384705 7.28791809 49.56906128 C7.25694438 52.80474235 7.2400116 56.04034017 7.22314453 59.27612305 C7.20444429 61.51529667 7.18487176 63.75446316 7.16445923 65.99362183 C7.11301115 71.8954855 7.07345338 77.79737206 7.03631592 83.69934082 C6.99635557 89.71848265 6.94522698 95.73752826 6.89501953 101.7565918 C6.79811022 113.57293059 6.71375362 125.38932354 6.63720703 137.20581055 C3.66720703 137.20581055 0.69720703 137.20581055 -2.36279297 137.20581055 C-2.37087982 135.95744415 -2.37896667 134.70907776 -2.38729858 133.42288208 C-2.46465599 121.67992856 -2.5523686 109.9370924 -2.65032005 98.19429207 C-2.70034691 92.1566512 -2.74667625 86.11902838 -2.78466797 80.08129883 C-2.8214402 74.25869602 -2.86777785 68.43624192 -2.92085648 62.61376572 C-2.93944342 60.38815789 -2.95453532 58.16251814 -2.96613693 55.93686295 C-2.98292599 52.82860205 -3.01194286 49.72068496 -3.04394531 46.61254883 C-3.0461055 45.68466553 -3.04826569 44.75678223 -3.05049133 43.80078125 C-3.06165482 42.95661652 -3.0728183 42.11245178 -3.08432007 41.2427063 C-3.08985083 40.5071155 -3.09538158 39.7715247 -3.10107994 39.01364326 C-3.21505627 36.95454546 -3.21505627 36.95454546 -5.36279297 35.20581055 C-7.45689689 34.89464298 -7.45689689 34.89464298 -9.89404297 34.94018555 C-10.83828125 34.93631836 -11.78251953 34.93245117 -12.75537109 34.9284668 C-13.78082031 34.93749023 -14.80626953 34.94651367 -15.86279297 34.95581055 C-16.91402344 34.95967773 -17.96525391 34.96354492 -19.04833984 34.9675293 C-31.19359908 35.0963535 -43.27314936 36.09926089 -55.36279297 37.20581055 C-55.36279297 37.86581055 -55.36279297 38.52581055 -55.36279297 39.20581055 C-56.08982422 39.24319336 -56.81685547 39.28057617 -57.56591797 39.3190918 C-63.00569685 39.67476965 -68.09400357 40.27710443 -73.36279297 41.70581055 C-79.33810752 43.32610087 -85.19349524 43.88859488 -91.36279297 44.20581055 C-91.36279297 44.86581055 -91.36279297 45.52581055 -91.36279297 46.20581055 C-92.68279297 46.20581055 -94.00279297 46.20581055 -95.36279297 46.20581055 C-94.10728244 35.61006264 -82.24724916 26.47594188 -74.36279297 20.20581055 C-71.78019992 18.55148048 -69.22101167 17.30467582 -66.36279297 16.20581055 C-65.66025391 15.9222168 -64.95771484 15.63862305 -64.23388672 15.34643555 C-61.57986343 14.31024229 -59.0008661 13.32171951 -56.19091797 12.8112793 C-55.28599609 12.51157227 -55.28599609 12.51157227 -54.36279297 12.20581055 C-54.03279297 11.21581055 -53.70279297 10.22581055 -53.36279297 9.20581055 C-48.61262662 7.00451395 -44.48197442 7.02928705 -39.36279297 7.20581055 C-39.36279297 6.54581055 -39.36279297 5.88581055 -39.36279297 5.20581055 C-26.42924358 0.73568979 -13.5492643 -0.11362376 0 0 Z " fill="#4A6CAE" transform="translate(433.36279296875,113.794189453125)"/>
<path d="M0 0 C0.75031494 -0.01305176 1.50062988 -0.02610352 2.27368164 -0.03955078 C8.03568137 -0.04871864 11.5066415 1.025261 16.25 4.1875 C18.55800695 15.30564099 14.9340644 30.74947914 11.98046875 41.484375 C10.84835089 45.6738165 10.0516724 49.92448912 9.25 54.1875 C8.59 54.1875 7.93 54.1875 7.25 54.1875 C7.25 57.4875 7.25 60.7875 7.25 64.1875 C6.59 64.1875 5.93 64.1875 5.25 64.1875 C4.7859375 65.8890625 4.7859375 65.8890625 4.3125 67.625 C3.25 71.1875 3.25 71.1875 2.25 72.1875 C1.85333773 74.36769479 1.50684763 76.5571463 1.1875 78.75 C1.01089844 79.94753906 0.83429688 81.14507812 0.65234375 82.37890625 C0.51957031 83.30574219 0.38679688 84.23257813 0.25 85.1875 C-0.41386719 85.04441406 -1.07773437 84.90132813 -1.76171875 84.75390625 C-5.34583713 84.07456355 -8.9461572 83.59218304 -12.5625 83.125 C-13.25537109 83.03412109 -13.94824219 82.94324219 -14.66210938 82.84960938 C-16.35787692 82.62740535 -18.05391201 82.40724473 -19.75 82.1875 C-19.75 81.1975 -19.75 80.2075 -19.75 79.1875 C-20.83861328 79.26484375 -20.83861328 79.26484375 -21.94921875 79.34375 C-25.16591386 79.164297 -26.81615577 78.32710849 -29.5625 76.6875 C-30.35269531 76.2234375 -31.14289063 75.759375 -31.95703125 75.28125 C-32.54871094 74.9203125 -33.14039063 74.559375 -33.75 74.1875 C-33.75 73.5275 -33.75 72.8675 -33.75 72.1875 C-34.306875 72.084375 -34.86375 71.98125 -35.4375 71.875 C-39.9127195 70.54452934 -42.99432584 68.11636129 -46.171875 64.7578125 C-48.24323934 62.69670244 -50.47136985 60.8417795 -52.6875 58.9375 C-59.33817158 52.97960671 -63.56317124 46.47325477 -66.75 38.1875 C-67.10191406 37.49140625 -67.45382812 36.7953125 -67.81640625 36.078125 C-69.15491226 31.93379678 -69.00042663 28.01287813 -68.9375 23.6875 C-68.93685547 22.84574219 -68.93621094 22.00398438 -68.93554688 21.13671875 C-68.90645648 17.03174142 -68.77520722 13.18990899 -67.75 9.1875 C-63.295 8.6925 -63.295 8.6925 -58.75 8.1875 C-58.75 7.5275 -58.75 6.8675 -58.75 6.1875 C-57.73292969 6.11402344 -57.73292969 6.11402344 -56.6953125 6.0390625 C-49.39338528 5.45248109 -42.42451614 4.20658883 -35.27734375 2.6484375 C-23.67737078 0.30394824 -11.80040942 0.11837856 0 0 Z " fill="#476AAC" transform="translate(401.75,161.8125)"/>
<path d="M0 0 C1.52318848 0.05873291 1.52318848 0.05873291 3.07714844 0.11865234 C4.52395996 0.18173584 4.52395996 0.18173584 6 0.24609375 C7.299375 0.30108032 7.299375 0.30108032 8.625 0.35717773 C10.86139027 0.55051698 12.83282777 1.00427647 15 1.5625 C18.41513465 1.78453662 21.82446357 1.9545573 25.24414062 2.08007812 C28.97228738 2.2635431 30.82605232 2.44653488 34 4.5625 C36.11841588 5.10607271 36.11841588 5.10607271 38.44921875 5.4140625 C39.29677734 5.54296875 40.14433594 5.671875 41.01757812 5.8046875 C41.89865234 5.93101562 42.77972656 6.05734375 43.6875 6.1875 C44.58017578 6.3215625 45.47285156 6.455625 46.39257812 6.59375 C48.59414427 6.92339627 50.79650647 7.24603914 53 7.5625 C55.06686745 16.64018186 54.2206489 25.60059549 52 34.5625 C51.34 34.5625 50.68 34.5625 50 34.5625 C50.05671875 35.29726562 50.1134375 36.03203125 50.171875 36.7890625 C49.96987312 40.04863832 49.15557509 41.32440941 47.25 43.9375 C45.33101525 46.63300416 43.60385287 49.22979426 42.125 52.1875 C37.93872002 58.83629762 31.08222094 64.1548682 24 67.5625 C23.01 67.5625 22.02 67.5625 21 67.5625 C20.505 69.0475 20.505 69.0475 20 70.5625 C18.3984375 71.625 18.3984375 71.625 16.375 72.5625 C15.29605469 73.06910156 15.29605469 73.06910156 14.1953125 73.5859375 C11.14299542 74.9437298 8.07673066 76.26080626 5 77.5625 C4.278125 77.954375 3.55625 78.34625 2.8125 78.75 C1 79.5625 1 79.5625 -3 79.5625 C-3 80.5525 -3 81.5425 -3 82.5625 C-4.41538717 82.90122513 -5.83237963 83.23324624 -7.25 83.5625 C-8.03890625 83.748125 -8.8278125 83.93375 -9.640625 84.125 C-12 84.5625 -12 84.5625 -16 84.5625 C-18.20399168 80.00758386 -18.58846263 75.53343824 -19 70.5625 C-19.66 70.5625 -20.32 70.5625 -21 70.5625 C-22.51918701 63.8392894 -23.4944354 57.12169762 -24.21435547 50.2734375 C-24.6828388 46.12372078 -25.65305145 42.50056645 -27 38.5625 C-27.24431886 36.81952423 -27.43595604 35.06796087 -27.5625 33.3125 C-27.7887928 29.80382035 -27.7887928 29.80382035 -29 26.5625 C-29.81911805 21.10171299 -30.12997948 15.70844402 -30.25 10.1875 C-30.27578125 9.00414062 -30.3015625 7.82078125 -30.328125 6.6015625 C-30 3.5625 -30 3.5625 -28.671875 1.7109375 C-21.56655361 -3.16982065 -8.20689098 -0.33139769 0 0 Z " fill="#476AAC" transform="translate(485,163.4375)"/>
<path d="M0 0 C9.57 0 19.14 0 29 0 C29.99 3.96 30.98 7.92 32 12 C33.80924093 15.20343151 33.80924093 15.20343151 35.81640625 18.28125 C38.23679174 21.7960012 39 23.60705128 39 28 C40.485 28.495 40.485 28.495 42 29 C42 30.65 42 32.3 42 34 C43.485 34.495 43.485 34.495 45 35 C45.11214844 35.87398438 45.11214844 35.87398438 45.2265625 36.765625 C46.27219856 43.2854734 48.54031408 48.41053655 51.6015625 54.234375 C54.16734581 59.30860567 55 63.23197177 55 69 C46.09 69 37.18 69 28 69 C27.28385417 65.41927083 26.56770833 61.83854167 25.8515625 58.2578125 C25.27762104 54.94075544 25.27762104 54.94075544 23 53 C22.7525 51.7315625 22.7525 51.7315625 22.5 50.4375 C22.2525 49.2309375 22.2525 49.2309375 22 48 C21.01 47.505 21.01 47.505 20 47 C18.37607665 44.25737391 17.54445159 41.60285498 16.875 38.5 C16.62363281 37.37078125 16.62363281 37.37078125 16.3671875 36.21875 C16 34 16 34 16 30 C13.51906867 32.19229112 12.48710889 33.89815529 11.5625 37.0625 C10.55781559 40.32772435 9.41818258 43.42748404 8.0625 46.5625 C5.90098564 51.81664259 4.59394299 57.21146418 3.30688477 62.73071289 C2.09167307 67.90832693 2.09167307 67.90832693 1 69 C-0.85369611 69.08737645 -2.71067541 69.10698153 -4.56640625 69.09765625 C-5.69111328 69.09443359 -6.81582031 69.09121094 -7.97460938 69.08789062 C-9.15861328 69.07951172 -10.34261719 69.07113281 -11.5625 69.0625 C-12.75037109 69.05798828 -13.93824219 69.05347656 -15.16210938 69.04882812 C-18.10812226 69.03699675 -21.05403681 69.02051287 -24 69 C-24.81827927 65.31640186 -24.99513062 62.86316186 -24.0625 59.1875 C-23.86785156 58.39730469 -23.67320312 57.60710937 -23.47265625 56.79296875 C-23.31667969 56.20128906 -23.16070312 55.60960937 -23 55 C-22.34 55 -21.68 55 -21 55 C-20.89429688 54.30132812 -20.78859375 53.60265625 -20.6796875 52.8828125 C-19.9028604 49.5879941 -18.62338529 46.90904385 -17.125 43.875 C-14.34933194 38.00492687 -12.51105658 32.29440126 -11 26 C-10.61206007 24.60195231 -10.21735065 23.20574466 -9.8125 21.8125 C-9.544375 20.884375 -9.27625 19.95625 -9 19 C-8.34 19 -7.68 19 -7 19 C-7.0825 18.29875 -7.165 17.5975 -7.25 16.875 C-6.91664845 13.04145716 -5.16701316 11.15764775 -3 8 C-2.01 5.36 -1.02 2.72 0 0 Z " fill="#4A6CAE" transform="translate(383,286)"/>
<path d="M0 0 C1.87171875 -0.00386719 1.87171875 -0.00386719 3.78125 -0.0078125 C5.74578125 0.00378906 5.74578125 0.00378906 7.75 0.015625 C9.0596875 0.00789063 10.369375 0.00015625 11.71875 -0.0078125 C12.9665625 -0.00523437 14.214375 -0.00265625 15.5 0 C16.64984375 0.00225586 17.7996875 0.00451172 18.984375 0.00683594 C21.75 0.265625 21.75 0.265625 23.75 2.265625 C25.44165661 5.74291915 25.97033069 8.40983797 25.75 12.265625 C26.74 12.595625 27.73 12.925625 28.75 13.265625 C28.75 14.915625 28.75 16.565625 28.75 18.265625 C29.41 18.265625 30.07 18.265625 30.75 18.265625 C30.94335938 19.04808594 31.13671875 19.83054687 31.3359375 20.63671875 C31.72652344 22.15458984 31.72652344 22.15458984 32.125 23.703125 C32.50785156 25.21712891 32.50785156 25.21712891 32.8984375 26.76171875 C33.47573954 29.42132824 33.47573954 29.42132824 35.75 30.265625 C36.45124037 32.21908031 37.06097386 34.20572664 37.625 36.203125 C39.12036893 41.3244825 40.84675088 46.17525006 43.015625 51.046875 C43.84785627 53.56127585 43.87972381 55.63408485 43.75 58.265625 C45.235 58.760625 45.235 58.760625 46.75 59.265625 C47.245 63.720625 47.245 63.720625 47.75 68.265625 C39.17 68.265625 30.59 68.265625 21.75 68.265625 C20.615625 65.460625 19.48125 62.655625 18.3125 59.765625 C17.95615479 58.89873047 17.59980957 58.03183594 17.23266602 57.13867188 C15.24632817 52.1265343 14.18776621 47.64213389 13.75 42.265625 C13.09 42.265625 12.43 42.265625 11.75 42.265625 C10.76 38.965625 9.77 35.665625 8.75 32.265625 C8.09 32.265625 7.43 32.265625 6.75 32.265625 C6.57984375 33.02746094 6.4096875 33.78929687 6.234375 34.57421875 C4.67964627 41.19835551 2.71255183 47.15061418 -0.25 53.265625 C-1.63150884 56.31948665 -2.2745907 58.46586353 -2.6875 61.828125 C-3.27900246 65.44286227 -3.67101927 66.74613044 -6.25 69.265625 C-9.0690918 69.71972656 -9.0690918 69.71972656 -12.44921875 69.65625 C-13.65771484 69.64335937 -14.86621094 69.63046875 -16.11132812 69.6171875 C-17.37396484 69.58367187 -18.63660156 69.55015625 -19.9375 69.515625 C-21.21173828 69.49757813 -22.48597656 69.47953125 -23.79882812 69.4609375 C-26.94996841 69.41372941 -30.0996114 69.34788884 -33.25 69.265625 C-32.63550003 65.92739543 -31.90439171 63.24353008 -30.25 60.265625 C-29.59 60.265625 -28.93 60.265625 -28.25 60.265625 C-28.0953125 58.8734375 -28.0953125 58.8734375 -27.9375 57.453125 C-27.21237678 52.27062668 -25.69330995 47.28543884 -24.25 42.265625 C-23.59 42.265625 -22.93 42.265625 -22.25 42.265625 C-22.146875 41.399375 -22.04375 40.533125 -21.9375 39.640625 C-21.212325 36.08067501 -19.86714463 33.49991426 -18.25 30.265625 C-17.54241674 27.0289287 -17.54241674 27.0289287 -17.25 24.265625 C-16.59 24.265625 -15.93 24.265625 -15.25 24.265625 C-15.25 22.945625 -15.25 21.625625 -15.25 20.265625 C-14.26 20.265625 -13.27 20.265625 -12.25 20.265625 C-12.270625 19.46125 -12.29125 18.656875 -12.3125 17.828125 C-12.25 15.265625 -12.25 15.265625 -11.25 14.265625 C-10.88239269 11.93744536 -10.54758419 9.6037865 -10.25 7.265625 C-9.59 7.265625 -8.93 7.265625 -8.25 7.265625 C-8.29125 6.481875 -8.3325 5.698125 -8.375 4.890625 C-8.11372963 -0.59605283 -4.56133074 0.0089488 0 0 Z " fill="#4B6CAE" transform="translate(525.25,285.734375)"/>
<path d="M0 0 C22.11 0 44.22 0 67 0 C67 6.6 67 13.2 67 20 C60.73 20 54.46 20 48 20 C48 36.17 48 52.34 48 69 C38.76 69 29.52 69 20 69 C20 52.83 20 36.66 20 20 C13.4 20 6.8 20 0 20 C0 13.4 0 6.8 0 0 Z " fill="#4F70B0" transform="translate(297,286)"/>
<path d="M0 0 C1.15249741 0.00222061 2.30499481 0.00444122 3.49241638 0.00672913 C5.4443264 0.00684242 5.4443264 0.00684242 7.43566895 0.00695801 C8.86661313 0.01206543 10.29755694 0.01728144 11.72850037 0.02259827 C13.18438672 0.02446249 14.64027369 0.02588637 16.09616089 0.02688599 C19.93488791 0.03071086 23.77357731 0.04054088 27.61228943 0.05158997 C31.52667227 0.06180474 35.44106117 0.06638375 39.35545349 0.07142639 C47.04101953 0.08216318 54.72654677 0.09975972 62.41209412 0.12025452 C62.41209412 6.72025452 62.41209412 13.32025452 62.41209412 20.12025452 C56.14209412 20.12025452 49.87209412 20.12025452 43.41209412 20.12025452 C43.41209412 35.96025452 43.41209412 51.80025452 43.41209412 68.12025452 C39.14271912 68.14087952 34.87334412 68.16150452 30.47459412 68.18275452 C28.4521759 68.19641052 28.4521759 68.19641052 26.38890076 68.21034241 C24.80903381 68.21408875 24.80903381 68.21408875 23.19725037 68.21791077 C21.57121887 68.22576599 21.57121887 68.22576599 19.91233826 68.23377991 C17.41209412 68.12025452 17.41209412 68.12025452 16.41209412 67.12025452 C16.28987887 65.67841159 16.23436654 64.23082308 16.20677185 62.78407288 C16.18682663 61.86319382 16.16688141 60.94231476 16.14633179 59.99353027 C16.12961929 58.99249771 16.1129068 57.99146515 16.09568787 56.96009827 C16.07490677 55.94049515 16.05412567 54.92089203 16.03271484 53.87039185 C15.9671056 50.59958404 15.90828177 47.32869315 15.84959412 44.05775452 C15.8064197 41.84615724 15.76280578 39.63456849 15.71873474 37.42298889 C15.61141266 31.98883016 15.51017766 26.55458753 15.41209412 21.12025452 C9.14209412 20.79025452 2.87209412 20.46025452 -3.58790588 20.12025452 C-3.61884338 15.44869202 -3.61884338 15.44869202 -3.65040588 10.68275452 C-3.65950989 9.69992493 -3.66861389 8.71709534 -3.67799377 7.70448303 C-3.68049133 6.93547668 -3.68298889 6.16647034 -3.68556213 5.37416077 C-3.69341736 4.18802185 -3.69341736 4.18802185 -3.70143127 2.97792053 C-3.52042372 0.01601405 -2.97718002 0.13834326 0 0 Z " fill="#4C6EAF" transform="translate(436.58790588378906,285.87974548339844)"/>
<path d="M0 0 C3 1 3 1 4 3 C4.33 2.34 4.66 1.68 5 1 C5.66 1 6.32 1 7 1 C7 33.34 7 65.68 7 99 C4.69 99 2.38 99 0 99 C0 66.33 0 33.66 0 0 Z " fill="#3D61A9" transform="translate(432,151)"/>
<path d="M0 0 C21.12 0 42.24 0 64 0 C64 5.94 64 11.88 64 18 C57.4 18 50.8 18 44 18 C46 16 46 16 49.4765625 15.8046875 C50.85950968 15.81798507 52.24238654 15.84183768 53.625 15.875 C54.33140625 15.88402344 55.0378125 15.89304687 55.765625 15.90234375 C57.51056098 15.92592397 59.25532295 15.96179539 61 16 C61 11.71 61 7.42 61 3 C41.86 3 22.72 3 3 3 C3 7.29 3 11.58 3 16 C7.29 16 11.58 16 16 16 C16 16.66 16 17.32 16 18 C10.72 18 5.44 18 0 18 C0 12.06 0 6.12 0 0 Z " fill="#3D62AA" transform="translate(434,287)"/>
<path d="M0 0 C1.75539345 0.00333092 1.75539345 0.00333092 3.54624939 0.00672913 C4.51207191 0.00651009 4.51207191 0.00651009 5.49740601 0.00628662 C7.63473327 0.00698567 9.77197438 0.01477761 11.9092865 0.02259827 C13.3875931 0.02446248 14.86590032 0.02588637 16.34420776 0.02688599 C20.24211827 0.03071093 24.13999174 0.040541 28.03788757 0.05158997 C32.01259358 0.0618046 35.98730554 0.06638372 39.96202087 0.07142639 C47.76607425 0.0821633 55.57009707 0.09923942 63.37413025 0.12025452 C63.37413025 0.45025452 63.37413025 0.78025452 63.37413025 1.12025452 C41.92413025 1.45025452 20.47413025 1.78025452 -1.62586975 2.12025452 C-1.95586975 8.39025452 -2.28586975 14.66025452 -2.62586975 21.12025452 C3.58205939 21.08067425 3.58205939 21.08067425 9.78990173 21.03016663 C10.55890808 21.02766907 11.32791443 21.02517151 12.120224 21.02259827 C13.30636292 21.01474304 13.30636292 21.01474304 14.51646423 21.00672913 C16.37413025 21.12025452 16.37413025 21.12025452 17.37413025 22.12025452 C17.4963455 23.56209745 17.55185782 25.00968596 17.57945251 26.45643616 C17.59939774 27.37731522 17.61934296 28.29819427 17.63989258 29.24697876 C17.65660507 30.24801132 17.67331757 31.24904388 17.6905365 32.28041077 C17.7113176 33.30001389 17.73209869 34.319617 17.75350952 35.37011719 C17.81911877 38.640925 17.87794259 41.91181588 17.93663025 45.18275452 C17.97980466 47.3943518 18.02341859 49.60594055 18.06748962 51.81752014 C18.17564228 57.25168088 18.27463098 62.68590075 18.37413025 68.12025452 C31.24413025 68.61525452 31.24413025 68.61525452 44.37413025 69.12025452 C44.37413025 53.28025452 44.37413025 37.44025452 44.37413025 21.12025452 C50.64413025 21.12025452 56.91413025 21.12025452 63.37413025 21.12025452 C63.37413025 21.45025452 63.37413025 21.78025452 63.37413025 22.12025452 C57.43413025 22.12025452 51.49413025 22.12025452 45.37413025 22.12025452 C45.37413025 38.29025452 45.37413025 54.46025452 45.37413025 71.12025452 C35.47413025 71.12025452 25.57413025 71.12025452 15.37413025 71.12025452 C15.37413025 54.95025452 15.37413025 38.78025452 15.37413025 22.12025452 C9.10413025 22.12025452 2.83413025 22.12025452 -3.62586975 22.12025452 C-3.65270176 18.64103716 -3.67262645 15.16202413 -3.68836975 11.68275452 C-3.69674866 10.68953186 -3.70512756 9.6963092 -3.71376038 8.67298889 C-3.71698303 7.72875061 -3.72020569 6.78451233 -3.723526 5.81166077 C-3.72876282 4.93711243 -3.73399963 4.06256409 -3.73939514 3.16151428 C-3.56614103 0.04629353 -3.1416307 0.14387434 0 0 Z " fill="#BBC6DF" transform="translate(435.62586975097656,284.87974548339844)"/>
<path d="M0 0 C1.63678711 0.00773438 1.63678711 0.00773438 3.30664062 0.015625 C5.0169043 0.0465625 5.0169043 0.0465625 6.76171875 0.078125 C7.89029297 0.08328125 9.01886719 0.0884375 10.18164062 0.09375 C15.4044209 0.14293451 20.29984724 0.42006094 25.44921875 1.328125 C27.92675373 1.49945837 30.40628463 1.64322694 32.88671875 1.765625 C51.91755197 2.81756941 51.91755197 2.81756941 59.44921875 5.328125 C59.44921875 5.988125 59.44921875 6.648125 59.44921875 7.328125 C60.62484375 7.245625 61.80046875 7.163125 63.01171875 7.078125 C70.06750731 7.03289559 76.7422791 9.34873833 83.44921875 11.328125 C82.95421875 9.348125 82.95421875 9.348125 82.44921875 7.328125 C83.43921875 7.658125 84.42921875 7.988125 85.44921875 8.328125 C85.44921875 9.648125 85.44921875 10.968125 85.44921875 12.328125 C79.27067803 11.6962069 73.19794995 10.82779499 67.0859375 9.734375 C65.29241475 9.42261829 63.49879141 9.1114398 61.70507812 8.80078125 C58.93830946 8.31928722 56.17231906 7.83450165 53.40795898 7.33935547 C41.82796429 5.272207 30.50880199 3.88370458 18.74536133 3.52148438 C14.92769985 3.3931523 11.22545793 2.91720655 7.44921875 2.328125 C5.34695021 2.21908091 3.24177095 2.1539989 1.13671875 2.140625 C0.10933594 2.12644531 -0.91804688 2.11226562 -1.9765625 2.09765625 C-4.71571975 2.0655735 -4.71571975 2.0655735 -6.55078125 4.328125 C-6.8477498 6.19999094 -6.8477498 6.19999094 -6.79129028 8.36502075 C-6.79403961 9.20918549 -6.79678894 10.05335022 -6.79962158 10.9230957 C-6.79243103 11.850979 -6.78524048 12.7788623 -6.77783203 13.73486328 C-6.77812408 14.71051239 -6.77841614 15.6861615 -6.77871704 16.69137573 C-6.77731993 19.92715241 -6.76174076 23.16270088 -6.74609375 26.3984375 C-6.74236498 28.63760248 -6.73951737 30.87676909 -6.73751831 33.11593628 C-6.72987117 39.0178882 -6.7102134 44.91974214 -6.68811035 50.82165527 C-6.66767517 56.84072545 -6.65852158 62.85981141 -6.6484375 68.87890625 C-6.62696854 80.69535562 -6.59281958 92.51173217 -6.55078125 104.328125 C-10.18078125 104.328125 -13.81078125 104.328125 -17.55078125 104.328125 C-17.55078125 103.998125 -17.55078125 103.668125 -17.55078125 103.328125 C-14.58078125 103.328125 -11.61078125 103.328125 -8.55078125 103.328125 C-8.560774 101.45890633 -8.560774 101.45890633 -8.57096863 99.55192566 C-8.63171034 87.82411989 -8.67672051 76.09634591 -8.70621777 64.36841869 C-8.72189225 58.3385635 -8.74316317 52.308835 -8.77709961 46.27905273 C-8.80962929 40.46300824 -8.82762083 34.64708583 -8.83541298 28.83095741 C-8.84096798 26.6089212 -8.85181513 24.38689188 -8.86797142 22.16490746 C-8.88966053 19.05925281 -8.89275172 15.95410652 -8.89135742 12.84838867 C-8.90214325 11.92410065 -8.91292908 10.99981262 -8.92404175 10.04751587 C-8.91991776 9.20197647 -8.91579376 8.35643707 -8.9115448 7.48527527 C-8.91431018 6.75060626 -8.91707556 6.01593725 -8.91992474 5.25900555 C-7.96509818 0.26458983 -4.46143965 -0.04196959 0 0 Z " fill="#B3C0DA" transform="translate(448.55078125,147.671875)"/>
<path d="M0 0 C21.12 0 42.24 0 64 0 C64 5.94 64 11.88 64 18 C61.40125 18.04125 58.8025 18.0825 56.125 18.125 C54.89934326 18.15231201 54.89934326 18.15231201 53.64892578 18.18017578 C51.76504951 18.19477217 49.88130688 18.09943482 48 18 C47.34 17.34 46.68 16.68 46 16 C51.28 16 56.56 16 62 16 C62 11.38 62 6.76 62 2 C42.53 2 23.06 2 3 2 C3 6.62 3 11.24 3 16 C7.95 16 12.9 16 18 16 C18.33 16.66 18.66 17.32 19 18 C12.73 18 6.46 18 0 18 C0 12.06 0 6.12 0 0 Z " fill="#365BA6" transform="translate(298,287)"/>
<path d="M0 0 C0.75031494 -0.01305176 1.50062988 -0.02610352 2.27368164 -0.03955078 C8.03568137 -0.04871864 11.5066415 1.025261 16.25 4.1875 C18.55800695 15.30564099 14.9340644 30.74947914 11.98046875 41.484375 C10.84835089 45.6738165 10.0516724 49.92448912 9.25 54.1875 C8.59 54.1875 7.93 54.1875 7.25 54.1875 C7.25 57.4875 7.25 60.7875 7.25 64.1875 C6.59 64.1875 5.93 64.1875 5.25 64.1875 C4.92 64.8475 4.59 65.5075 4.25 66.1875 C4.394375 65.383125 4.53875 64.57875 4.6875 63.75 C5.25080216 60.18241963 5.58777813 56.64167992 5.87109375 53.04296875 C5.99613281 52.43066406 6.12117188 51.81835938 6.25 51.1875 C6.91 50.8575 7.57 50.5275 8.25 50.1875 C8.71751788 47.83150765 8.71751788 47.83150765 8.875 45.125 C8.94976562 44.20589844 9.02453125 43.28679687 9.1015625 42.33984375 C9.17503906 41.27443359 9.17503906 41.27443359 9.25 40.1875 C9.91 40.1875 10.57 40.1875 11.25 40.1875 C11.229375 39.094375 11.20875 38.00125 11.1875 36.875 C11.25 33.1875 11.25 33.1875 12.25 30.1875 C13.12698976 21.95895411 13.79623465 13.4613484 13.25 5.1875 C12.10411899 3.81432912 12.10411899 3.81432912 9.01538086 4.07397461 C7.58185874 4.07413369 6.14833088 4.07982593 4.71484375 4.08984375 C3.96159317 4.0912587 3.20834259 4.09267365 2.43226624 4.09413147 C0.0173044 4.09974624 -2.39756601 4.11230117 -4.8125 4.125 C-6.44596221 4.1300131 -8.07942586 4.13457634 -9.71289062 4.13867188 C-13.72529585 4.14972046 -17.73763241 4.16699494 -21.75 4.1875 C-19.275 4.6825 -19.275 4.6825 -16.75 5.1875 C-16.75 5.5175 -16.75 5.8475 -16.75 6.1875 C-19.72 6.1875 -22.69 6.1875 -25.75 6.1875 C-25.75 5.5275 -25.75 4.8675 -25.75 4.1875 C-26.74 4.5175 -27.73 4.8475 -28.75 5.1875 C-31.963083 5.44540633 -35.17000017 5.62946144 -38.38867188 5.79296875 C-42.19515217 5.95450335 -42.19515217 5.95450335 -45.75 7.1875 C-47.9572923 7.25842842 -50.16667452 7.27165025 -52.375 7.25 C-53.56351562 7.24097656 -54.75203125 7.23195312 -55.9765625 7.22265625 C-56.89179688 7.21105469 -57.80703125 7.19945312 -58.75 7.1875 C-58.75 6.8575 -58.75 6.5275 -58.75 6.1875 C-57.73292969 6.11402344 -57.73292969 6.11402344 -56.6953125 6.0390625 C-49.39338528 5.45248109 -42.42451614 4.20658883 -35.27734375 2.6484375 C-23.67737078 0.30394824 -11.80040942 0.11837856 0 0 Z " fill="#7E96C5" transform="translate(401.75,161.8125)"/>
<path d="M0 0 C6.6 0 13.2 0 20 0 C20 16.17 20 32.34 20 49 C29.24 49 38.48 49 48 49 C48 49.33 48 49.66 48 50 C43.8882744 50.02465746 39.77657722 50.04283959 35.66479492 50.05493164 C34.26504772 50.0599708 32.8653058 50.06680216 31.46557617 50.07543945 C29.45754223 50.0875232 27.44947043 50.09269807 25.44140625 50.09765625 C24.23170166 50.10289307 23.02199707 50.10812988 21.77563477 50.11352539 C19 50 19 50 18 49 C17.90695982 47.52645652 17.88253735 46.04849409 17.88647461 44.57202148 C17.88655014 43.63112167 17.88662567 42.69022186 17.88670349 41.72080994 C17.89186478 40.69790359 17.89702606 39.67499725 17.90234375 38.62109375 C17.9037587 37.57929459 17.90517365 36.53749542 17.90663147 35.46412659 C17.9122492 32.12188906 17.9248047 28.77971743 17.9375 25.4375 C17.94251272 23.17773534 17.94707602 20.91796963 17.95117188 18.65820312 C17.96222439 13.10544318 17.9795009 7.55273278 18 2 C12.39 2 6.78 2 1 2 C0.67 1.34 0.34 0.68 0 0 Z " fill="#D4DDED" transform="translate(297,306)"/>
<path d="M0 0 C21.12 0 42.24 0 64 0 C64 5.94 64 11.88 64 18 C63.34 18 62.68 18 62 18 C62 12.72 62 7.44 62 2 C41.54 2 21.08 2 0 2 C0 1.34 0 0.68 0 0 Z " fill="#3359A4" transform="translate(434,287)"/>
<path d="M0 0 C0.66 0 1.32 0 2 0 C2 14.52 2 29.04 2 44 C3.98 43.505 3.98 43.505 6 43 C7.44098431 42.92233916 8.88508629 42.89203633 10.328125 42.90234375 C11.52695312 42.90717773 11.52695312 42.90717773 12.75 42.91210938 C13.575 42.92048828 14.4 42.92886719 15.25 42.9375 C16.09046875 42.94201172 16.9309375 42.94652344 17.796875 42.95117188 C19.86461401 42.96292039 21.93231624 42.98085478 24 43 C24.33 43.99 24.66 44.98 25 46 C16.75 46 8.5 46 0 46 C0 30.82 0 15.64 0 0 Z " fill="#3A5EA7" transform="translate(319,307)"/>
<path d="M0 0 C0.33 0 0.66 0 1 0 C1.33 14.19 1.66 28.38 2 43 C-5.92 43 -13.84 43 -22 43 C-22 42.01 -22 41.02 -22 40 C-11.605 39.505 -11.605 39.505 -1 39 C-1.01160156 36.26847656 -1.02320313 33.53695312 -1.03515625 30.72265625 C-1.04294642 28.08829871 -1.04902341 25.45394243 -1.05493164 22.81958008 C-1.05997231 20.98331125 -1.06680477 19.14704646 -1.07543945 17.31079102 C-1.08751672 14.67723599 -1.09323081 12.04373384 -1.09765625 9.41015625 C-1.10281754 8.58411392 -1.10797882 7.75807159 -1.11329651 6.90699768 C-1.11349205 4.93763632 -1.06204152 2.96838386 -1 1 C-0.67 0.67 -0.34 0.34 0 0 Z " fill="#3E61A9" transform="translate(476,310)"/>
<path d="M0 0 C0.6852475 0.00141495 1.370495 0.0028299 2.07650757 0.00428772 C4.26719511 0.0098895 6.4577808 0.02244219 8.6484375 0.03515625 C10.13281102 0.04017103 11.61718615 0.04473397 13.1015625 0.04882812 C16.74222065 0.05985948 20.38281914 0.07712526 24.0234375 0.09765625 C24.0234375 0.75765625 24.0234375 1.41765625 24.0234375 2.09765625 C19.56209177 2.38779998 15.10043148 2.67235125 10.63842773 2.95214844 C9.12661569 3.04768867 7.61489255 3.14464835 6.10327148 3.24316406 C-3.27060033 3.85294796 -12.57653536 4.24551031 -21.9765625 4.09765625 C-21.9765625 3.43765625 -21.9765625 2.77765625 -21.9765625 2.09765625 C-21.06132812 2.03707031 -20.14609375 1.97648438 -19.203125 1.9140625 C-17.42035156 1.78837891 -17.42035156 1.78837891 -15.6015625 1.66015625 C-14.41820312 1.57894531 -13.23484375 1.49773437 -12.015625 1.4140625 C-7.74988727 0.96994328 -4.47711275 -0.01819965 0 0 Z " fill="#3B60A8" transform="translate(403.9765625,144.90234375)"/>
<path d="M0 0 C1.32 0.66 2.64 1.32 4 2 C4.4046848 14.54522887 3.06148204 27.19024801 -0.26953125 39.296875 C-1.40164911 43.4863165 -2.1983276 47.73698912 -3 52 C-3.66 52 -4.32 52 -5 52 C-5 55.3 -5 58.6 -5 62 C-5.66 62 -6.32 62 -7 62 C-7.33 62.66 -7.66 63.32 -8 64 C-7.855625 63.195625 -7.71125 62.39125 -7.5625 61.5625 C-6.99919784 57.99491963 -6.66222187 54.45417992 -6.37890625 50.85546875 C-6.25386719 50.24316406 -6.12882812 49.63085938 -6 49 C-5.01 48.505 -5.01 48.505 -4 48 C-3.53248212 45.64400765 -3.53248212 45.64400765 -3.375 42.9375 C-3.26285156 41.55884766 -3.26285156 41.55884766 -3.1484375 40.15234375 C-3.09945313 39.44207031 -3.05046875 38.73179687 -3 38 C-2.34 38 -1.68 38 -1 38 C-1.020625 36.906875 -1.04125 35.81375 -1.0625 34.6875 C-1 31 -1 31 0 28 C1.87612617 13.87234613 1.87612617 13.87234613 0 0 Z " fill="#B8C4DF" transform="translate(414,164)"/>
<path d="M0 0 C0.99 0.495 0.99 0.495 2 1 C2.66 3.31 3.32 5.62 4 8 C9.94 8 15.88 8 22 8 C22 7.01 22 6.02 22 5 C22.99 5 23.98 5 25 5 C25.66 7.31 26.32 9.62 27 12 C18.75 12 10.5 12 2 12 C2 9.69 2 7.38 2 5 C1.34 5 0.68 5 0 5 C0 3.35 0 1.7 0 0 Z " fill="#3C5FA7" transform="translate(410,341)"/>
<path d="M0 0 C0.495 0.99 0.495 0.99 1 2 C0.2714803 3.95375738 -0.46293789 5.90576027 -1.2421875 7.83984375 C-2.15830205 10.21679016 -2.15830205 10.21679016 -2.5 13.75 C-3.04213635 17.27388625 -3.48514204 18.53244241 -6 21 C-8.8190918 21.45410156 -8.8190918 21.45410156 -12.19921875 21.390625 C-13.40771484 21.37773437 -14.61621094 21.36484375 -15.86132812 21.3515625 C-17.12396484 21.31804687 -18.38660156 21.28453125 -19.6875 21.25 C-20.96173828 21.23195313 -22.23597656 21.21390625 -23.54882812 21.1953125 C-26.69996841 21.14810441 -29.8496114 21.08226384 -33 21 C-32.38550003 17.66177043 -31.65439171 14.97790508 -30 12 C-29 14 -29 14 -30 19 C-22.08 19 -14.16 19 -6 19 C-5.34 15.7 -4.68 12.4 -4 9 C-2.9296875 6.0546875 -2.9296875 6.0546875 -1.875 3.875 C-1.52179687 3.12992187 -1.16859375 2.38484375 -0.8046875 1.6171875 C-0.53914062 1.08351563 -0.27359375 0.54984375 0 0 Z " fill="#8DA3CE" transform="translate(525,334)"/>
<path d="M0 0 C0.66 0.33 1.32 0.66 2 1 C2 2.65 2 4.3 2 6 C2.99 6.33 3.98 6.66 5 7 C5.07476562 7.58265625 5.14953125 8.1653125 5.2265625 8.765625 C6.27219856 15.2854734 8.54031408 20.41053655 11.6015625 26.234375 C14.16734581 31.30860567 15 35.23197177 15 41 C6.09 41 -2.82 41 -12 41 C-12 40.67 -12 40.34 -12 40 C-3.42 40 5.16 40 14 40 C13.34 38.68 12.68 37.36 12 36 C11.875 32.75 11.875 32.75 12 30 C11.34 30 10.68 30 10 30 C10 28.68 10 27.36 10 26 C9.34 26 8.68 26 8 26 C3.5078125 12.5234375 3.5078125 12.5234375 2.72753906 10.17480469 C2.09782594 8.29242733 1.4526645 6.41523119 0.8046875 4.5390625 C0 2 0 2 0 0 Z " fill="#99ABD3" transform="translate(423,314)"/>
<path d="M0 0 C1.59231445 0.02126953 1.59231445 0.02126953 3.21679688 0.04296875 C11.00495352 0.19245352 11.00495352 0.19245352 12.1875 1.375 C14.20344582 1.60927778 16.225974 1.78836124 18.25 1.9375 C19.35472656 2.02128906 20.45945312 2.10507813 21.59765625 2.19140625 C22.45230469 2.25199219 23.30695313 2.31257812 24.1875 2.375 C24.1875 2.705 24.1875 3.035 24.1875 3.375 C23.15343018 3.35928955 22.11936035 3.3435791 21.05395508 3.32739258 C17.20556473 3.27295946 13.35720821 3.23860151 9.50854492 3.21020508 C7.84507519 3.19514886 6.18164495 3.17469937 4.51831055 3.14868164 C2.12278478 3.11215793 -0.27221467 3.09524218 -2.66796875 3.08203125 C-3.4077446 3.06654739 -4.14752045 3.05106354 -4.90971375 3.03511047 C-9.38412048 3.03366281 -12.2813237 3.55886995 -15.8125 6.375 C-16.6231196 8.62839498 -16.6231196 8.62839498 -16.625 11.0625 C-16.67269531 11.87074219 -16.72039062 12.67898437 -16.76953125 13.51171875 C-16.78371094 14.12660156 -16.79789062 14.74148437 -16.8125 15.375 C-17.1425 15.375 -17.4725 15.375 -17.8125 15.375 C-17.97596226 13.81605441 -18.09157115 12.2520539 -18.1875 10.6875 C-18.25710938 9.81738281 -18.32671875 8.94726562 -18.3984375 8.05078125 C-17.70374744 4.87836331 -16.47291426 3.27558413 -13.87597656 1.32788086 C-9.50543162 -0.69036771 -4.71203136 -0.16901535 0 0 Z " fill="#BBC7DE" transform="translate(471.8125,160.625)"/>
<path d="M0 0 C0.99 0.495 0.99 0.495 2 1 C2.30859375 2.8984375 2.30859375 2.8984375 2.4375 5.375 C3.10442043 13.57695121 5.60038212 21.2451333 8.44921875 28.9296875 C9 31 9 31 9 36 C12.96 35.34 16.92 34.68 21 34 C21 34.66 21 35.32 21 36 C19.58461283 36.33872513 18.16762037 36.67074624 16.75 37 C15.96109375 37.185625 15.1721875 37.37125 14.359375 37.5625 C12 38 12 38 8 38 C5.79600832 33.44508386 5.41153737 28.97093824 5 24 C4.34 24 3.68 24 3 24 C1.11150323 16.04264468 0.44651878 8.15484303 0 0 Z " fill="#90A3CD" transform="translate(461,210)"/>
<path d="M0 0 C0.66 0.33 1.32 0.66 2 1 C0.7934375 2.051875 0.7934375 2.051875 -0.4375 3.125 C-3.26920655 6.30203661 -3.53263491 7.88718724 -4 12 C-4.99 12.495 -4.99 12.495 -6 13 C-4.081875 13.0309375 -4.081875 13.0309375 -2.125 13.0625 C-1.40570313 13.07410156 -0.68640625 13.08570313 0.0546875 13.09765625 C2.08185404 13.12649242 2.08185404 13.12649242 4 12 C5.70702735 11.93003986 7.41668003 11.91559846 9.125 11.9375 C10.03507812 11.94652344 10.94515625 11.95554688 11.8828125 11.96484375 C12.93082031 11.98224609 12.93082031 11.98224609 14 12 C14 12.33 14 12.66 14 13 C6.68925318 14.66594452 -0.52165033 15.51172287 -8 16 C-8 16.66 -8 17.32 -8 18 C-9.32 18 -10.64 18 -12 18 C-11.51179761 13.29784015 -9.59073557 10.86401468 -6.5625 7.3125 C-5.75941406 6.35988281 -4.95632813 5.40726563 -4.12890625 4.42578125 C-2.7980792 2.90937098 -1.42663953 1.42663953 0 0 Z " fill="#7891C2" transform="translate(350,142)"/>
<path d="M0 0 C1.42374435 -0.00287018 1.42374435 -0.00287018 2.87625122 -0.00579834 C4.87827826 -0.00715541 6.88031424 -0.00349245 8.88232422 0.00488281 C11.92826372 0.01556521 14.97361026 0.00498342 18.01953125 -0.0078125 C19.97135546 -0.00649036 21.9231793 -0.00392683 23.875 0 C24.77733368 -0.00404846 25.67966736 -0.00809692 26.60934448 -0.01226807 C32.09268923 0.02788416 36.80286147 0.72523784 42.0703125 2.265625 C42.0703125 2.595625 42.0703125 2.925625 42.0703125 3.265625 C40.8328125 3.28625 39.5953125 3.306875 38.3203125 3.328125 C37.62421875 3.33972656 36.928125 3.35132812 36.2109375 3.36328125 C34.0703125 3.265625 34.0703125 3.265625 32.41699219 2.76782227 C29.08170682 2.05406009 25.77699798 2.12314259 22.3828125 2.1328125 C21.64329346 2.13185577 20.90377441 2.13089905 20.1418457 2.12991333 C18.58186762 2.12923433 17.02188668 2.13106908 15.46191406 2.13525391 C13.07871128 2.14060614 10.69569695 2.13529947 8.3125 2.12890625 C6.79427042 2.12956708 5.27604095 2.13084835 3.7578125 2.1328125 C2.69203979 2.12977615 2.69203979 2.12977615 1.60473633 2.12667847 C-1.7326975 2.14243913 -4.72888333 2.30188612 -7.9296875 3.265625 C-9.34503528 3.33019379 -10.76306439 3.35173539 -12.1796875 3.328125 C-14.0359375 3.2971875 -14.0359375 3.2971875 -15.9296875 3.265625 C-15.9296875 2.935625 -15.9296875 2.605625 -15.9296875 2.265625 C-10.54342863 0.03949626 -5.72579405 -0.02557493 0 0 Z " fill="#BECAE2" transform="translate(421.9296875,112.734375)"/>
<path d="M0 0 C1.20028809 2.40057617 1.10030345 3.85977472 1.0625 6.53515625 C1.05476563 7.42654297 1.04703125 8.31792969 1.0390625 9.23632812 C1.02617187 10.16896484 1.01328125 11.10160156 1 12.0625 C0.97460434 13.90749493 0.95353273 15.75255621 0.9375 17.59765625 C0.92589844 18.41758057 0.91429687 19.23750488 0.90234375 20.08227539 C0.78568827 22.00909839 0.78568827 22.00909839 2 23 C2.07244053 25.01964199 2.08377188 27.04167124 2.0625 29.0625 C2.05347656 30.16722656 2.04445313 31.27195313 2.03515625 32.41015625 C2.02355469 33.26480469 2.01195312 34.11945313 2 35 C2.66 35 3.32 35 4 35 C4 37.64 4 40.28 4 43 C1.58423274 38.16846548 0.7214475 34.72064075 0.28125 29.3125 C0.12863953 26.97731545 0.12863953 26.97731545 -1 25 C-2.13652717 17.42315217 -2.59914025 9.64665434 -2 2 C-1.34 1.34 -0.68 0.68 0 0 Z " fill="#6381BA" transform="translate(457,165)"/>
<path d="M0 0 C0.81726563 0.16371094 1.63453125 0.32742188 2.4765625 0.49609375 C6.48768176 1.06974606 10.33248121 1.11001604 14.375 1.0625 C15.47908203 1.05573242 15.47908203 1.05573242 16.60546875 1.04882812 C18.40368158 1.03715142 20.20185197 1.01922011 22 1 C22 1.99 22 2.98 22 4 C14.41 4 6.82 4 -1 4 C-0.67 2.68 -0.34 1.36 0 0 Z " fill="#395EA7" transform="translate(496,349)"/>
<path d="M0 0 C0.33 0 0.66 0 1 0 C1.02685412 2.31243792 1.04632841 4.6249627 1.0625 6.9375 C1.07410156 8.22527344 1.08570313 9.51304687 1.09765625 10.83984375 C1 14 1 14 0 15 C-0.23287008 16.68183948 -0.41264166 18.3712416 -0.5625 20.0625 C-0.68818359 21.44115234 -0.68818359 21.44115234 -0.81640625 22.84765625 C-0.87699219 23.55792969 -0.93757813 24.26820313 -1 25 C-1.99 24.67 -2.98 24.34 -4 24 C-4 21.03 -4 18.06 -4 15 C-3.34 15 -2.68 15 -2 15 C-2.02320313 14.33613281 -2.04640625 13.67226562 -2.0703125 12.98828125 C-2.24956063 4.21792619 -2.24956063 4.21792619 0 0 Z " fill="#3C60AB" transform="translate(413,175)"/>
<path d="M0 0 C1.25159912 0.00523682 2.50319824 0.01047363 3.79272461 0.01586914 C4.78942421 0.01799156 4.78942421 0.01799156 5.80625916 0.02015686 C7.93590735 0.02577021 10.06545175 0.03832485 12.19506836 0.05102539 C13.63582205 0.05603868 15.07657739 0.06060188 16.51733398 0.06469727 C20.05577938 0.07574394 23.59416375 0.09301747 27.13256836 0.11352539 C27.13256836 1.10352539 27.13256836 2.09352539 27.13256836 3.11352539 C26.63756836 2.61852539 26.63756836 2.61852539 26.13256836 2.11352539 C24.05994759 2.02585427 21.98436542 2.00656666 19.90991211 2.01586914 C18.01982422 2.02070313 18.01982422 2.02070313 16.09155273 2.02563477 C14.75105727 2.03399136 13.41056248 2.04245632 12.07006836 2.05102539 C10.72566894 2.05603879 9.38126776 2.06060197 8.03686523 2.06469727 C4.73538895 2.07653051 1.43400033 2.09301568 -1.86743164 2.11352539 C-2.52743164 4.09352539 -3.18743164 6.07352539 -3.86743164 8.11352539 C-4.52743164 8.11352539 -5.18743164 8.11352539 -5.86743164 8.11352539 C-5.80555664 9.66040039 -5.80555664 9.66040039 -5.74243164 11.23852539 C-5.86318313 14.98182166 -6.51615182 17.65087086 -7.86743164 21.11352539 C-8.52743164 21.11352539 -9.18743164 21.11352539 -9.86743164 21.11352539 C-9.53743164 18.47352539 -9.20743164 15.83352539 -8.86743164 13.11352539 C-8.20743164 13.11352539 -7.54743164 13.11352539 -6.86743164 13.11352539 C-6.92930664 12.24727539 -6.99118164 11.38102539 -7.05493164 10.48852539 C-6.77981934 5.53650401 -5.46145026 0.216226 0 0 Z " fill="#C7D1E8" transform="translate(520.867431640625,284.886474609375)"/>
<path d="M0 0 C7.26 0 14.52 0 22 0 C22 0.99 22 1.98 22 3 C14.41 3 6.82 3 -1 3 C-0.67 2.01 -0.34 1.02 0 0 Z " fill="#3D5EA7" transform="translate(360,350)"/>
<path d="M0 0 C9.9 0 19.8 0 30 0 C30.99 2.64 31.98 5.28 33 8 C33.61875 9.36125 33.61875 9.36125 34.25 10.75 C35.09843999 13.29531998 34.91970901 14.51678568 34 17 C29.79420375 12.22068608 29 7.23842808 29 1 C19.43 1 9.86 1 0 1 C0 0.67 0 0.34 0 0 Z " fill="#CAD3E8" transform="translate(383,285)"/>
<path d="M0 0 C1.98 0 3.96 0 6 0 C6 0.33 6 0.66 6 1 C4.35 1 2.7 1 1 1 C0.97088997 4.89581756 0.95316413 8.791607 0.9375 12.6875 C0.92912109 13.79029297 0.92074219 14.89308594 0.91210938 16.02929688 C0.90888672 17.09599609 0.90566406 18.16269531 0.90234375 19.26171875 C0.89710693 20.24100342 0.89187012 21.22028809 0.88647461 22.22924805 C0.99691457 24.92469572 1.39465834 27.37545639 2 30 C-1.12405988 27.28342619 -1.85268497 25.0557256 -2.14526367 20.97290039 C-2.16987435 18.66928756 -2.1856496 16.36625386 -2.1875 14.0625 C-2.19974609 13.26392578 -2.21199219 12.46535156 -2.22460938 11.64257812 C-2.23539269 7.30409295 -2.02015379 3.9524748 0 0 Z " fill="#B2C2DD" transform="translate(333,170)"/>
<path d="M0 0 C0.33 0 0.66 0 1 0 C0.85982174 2.97953359 0.71313658 5.95849304 0.5625 8.9375 C0.52318359 9.78763672 0.48386719 10.63777344 0.44335938 11.51367188 C0.40146484 12.32255859 0.35957031 13.13144531 0.31640625 13.96484375 C0.27974854 14.7137085 0.24309082 15.46257324 0.20532227 16.23413086 C0 18 0 18 -1 19 C-6.75521805 19.63004492 -10.97911041 19.08977821 -16 16 C-12.80188585 14.40094293 -10.30385238 15.9746665 -7 17 C-5.66861244 17.34102208 -4.33572103 17.67636715 -3 18 C-2.95101563 17.11957031 -2.90203125 16.23914063 -2.8515625 15.33203125 C-2.77679688 14.17058594 -2.70203125 13.00914062 -2.625 11.8125 C-2.55539062 10.66394531 -2.48578125 9.51539063 -2.4140625 8.33203125 C-2.02490426 5.20040883 -1.3190149 2.84714191 0 0 Z " fill="#C0CBE7" transform="translate(405,229)"/>
<path d="M0 0 C12.69523838 0.20003364 23.91297684 0.91999218 36 5 C37.66077842 5.36153 39.32609713 5.70514738 41 6 C41 6.33 41 6.66 41 7 C38.86304199 6.76256022 36.72617717 6.52424527 34.58984375 6.28125 C32.89631536 6.09733741 31.20088743 5.92996823 29.50390625 5.78125 C28.71886719 5.7090625 27.93382812 5.636875 27.125 5.5625 C26.40570312 5.50191406 25.68640625 5.44132813 24.9453125 5.37890625 C23 5 23 5 20 3 C17.3322852 2.74892096 14.73495173 2.58134589 12.0625 2.5 C7.59728799 2.36335085 3.97385068 2.20506625 0 0 Z " fill="#B5C1DD" transform="translate(496,164)"/>
<path d="M0 0 C1.24887761 3.83945481 0.42603816 5.91446228 -1.09765625 9.62890625 C-2.75226244 13.97672425 -3.83392838 18.50111373 -5 23 C-4.34 23 -3.68 23 -3 23 C-3.33 23.99 -3.66 24.98 -4 26 C-4.33 25.34 -4.66 24.68 -5 24 C-5.66 24 -6.32 24 -7 24 C-7.12375 24.804375 -7.2475 25.60875 -7.375 26.4375 C-7.684375 27.7059375 -7.684375 27.7059375 -8 29 C-8.66 29.33 -9.32 29.66 -10 30 C-9.80664062 29.47792969 -9.61328125 28.95585937 -9.4140625 28.41796875 C-7.2712215 22.36073009 -6.00711777 16.33891775 -5 10 C-4.01 9.67 -3.02 9.34 -2 9 C-2.061875 7.88625 -2.061875 7.88625 -2.125 6.75 C-1.99601866 3.91241048 -1.42948778 2.41226062 0 0 Z " fill="#6C87BF" transform="translate(378,296)"/>
<path d="M0 0 C0.66 0 1.32 0 2 0 C2.66 1.65 3.32 3.3 4 5 C-3.92 5 -11.84 5 -20 5 C-20 4.01 -20 3.02 -20 2 C-13.4 2.33 -6.8 2.66 0 3 C0 2.01 0 1.02 0 0 Z " fill="#385CA6" transform="translate(568,348)"/>
<path d="M0 0 C0.66 0.33 1.32 0.66 2 1 C2 2.65 2 4.3 2 6 C2.99 6.33 3.98 6.66 5 7 C5.33 9.97 5.66 12.94 6 16 C-2.58 16 -11.16 16 -20 16 C-20 15.67 -20 15.34 -20 15 C-12.08 14.67 -4.16 14.34 4 14 C3.01 11.69 2.02 9.38 1 7 C0.5945897 4.67810464 0.23927006 2.34484656 0 0 Z " fill="#748CBE" transform="translate(567,338)"/>
<path d="M0 0 C-2 2 -2 2 -5 2.375 C-5.99 2.58125 -6.98 2.7875 -8 3 C-9.30065921 4.93383287 -9.30065921 4.93383287 -10 7 C-10.99 7.495 -10.99 7.495 -12 8 C-12 6.68 -12 5.36 -12 4 C-14.86724686 4.57344937 -15.8614515 4.8614515 -18 7 C-21.625 7.125 -21.625 7.125 -25 7 C-22.78770401 4.45585961 -21.34873329 3.45253153 -18 3 C-15.32713725 2.92817643 -12.67509154 2.95541514 -10 3 C-10 2.34 -10 1.68 -10 1 C-8.71073008 0.63720544 -7.41846728 0.28503302 -6.125 -0.0625 C-5.04605469 -0.35833984 -5.04605469 -0.35833984 -3.9453125 -0.66015625 C-2 -1 -2 -1 0 0 Z " fill="#6783BA" transform="translate(404,118)"/>
<path d="M0 0 C0.66 0 1.32 0 2 0 C2.33 3.3 2.66 6.6 3 10 C5.64 10 8.28 10 11 10 C11 10.66 11 11.32 11 12 C9.02 12 7.04 12 5 12 C5 12.66 5 13.32 5 14 C4.01 14 3.02 14 2 14 C0.02905192 9.07262981 -0.1799928 5.21979128 0 0 Z " fill="#3B5FA6" transform="translate(468,232)"/>
<path d="M0 0 C7.36259293 -0.22424141 13.87049629 0.09879901 21 2 C21 2.99 21 3.98 21 5 C18.43742878 4.52121172 15.87494141 4.04198207 13.3125 3.5625 C12.59126953 3.42779297 11.87003906 3.29308594 11.12695312 3.15429688 C7.41311202 2.45901155 3.70283746 1.75225298 0 1 C0 0.67 0 0.34 0 0 Z " fill="#3A5EA7" transform="translate(515,170)"/>
<path d="M0 0 C2.33528415 0.17298401 3.69177582 0.70225369 5.37890625 2.33203125 C9 6.57211538 9 6.57211538 9 9 C9.66 9.33 10.32 9.66 11 10 C11 10.66 11 11.32 11 12 C6.88074963 10.41567294 3.68303664 7.45079789 1 4 C0.32421875 1.8046875 0.32421875 1.8046875 0 0 Z " fill="#5673B1" transform="translate(342,211)"/>
<path d="M0 0 C1.13732426 3.40401948 0.83989957 5.77456664 0.0625 9.25 C-0.13214844 10.14203125 -0.32679688 11.0340625 -0.52734375 11.953125 C-0.68332031 12.62859375 -0.83929688 13.3040625 -1 14 C-1.66 14 -2.32 14 -3 14 C-3 17.3 -3 20.6 -3 24 C-3.33 24 -3.66 24 -4 24 C-4.66 20.37 -5.32 16.74 -6 13 C-4.68 12.67 -3.36 12.34 -2 12 C-2.02320313 11.30132812 -2.04640625 10.60265625 -2.0703125 9.8828125 C-2.08835937 8.97273437 -2.10640625 8.06265625 -2.125 7.125 C-2.14820313 6.22007812 -2.17140625 5.31515625 -2.1953125 4.3828125 C-2 2 -2 2 0 0 Z " fill="#7D96C3" transform="translate(414,188)"/>
<path d="M0 0 C0.99 0 1.98 0 3 0 C3 2.31 3 4.62 3 7 C11.25 7 19.5 7 28 7 C28 7.33 28 7.66 28 8 C19.42 8 10.84 8 2 8 C1.34 5.36 0.68 2.72 0 0 Z " fill="#6983BC" transform="translate(409,346)"/>
<path d="M0 0 C1.51400391 0.01740234 1.51400391 0.01740234 3.05859375 0.03515625 C4.07050781 0.04417969 5.08242188 0.05320313 6.125 0.0625 C7.29869141 0.07990234 7.29869141 0.07990234 8.49609375 0.09765625 C1.49475049 3.70440884 -4.7476581 4.37856665 -12.50390625 4.09765625 C-12.50390625 3.43765625 -12.50390625 2.77765625 -12.50390625 2.09765625 C-11.54677734 2.00677734 -11.54677734 2.00677734 -10.5703125 1.9140625 C-9.33087891 1.78837891 -9.33087891 1.78837891 -8.06640625 1.66015625 C-7.24269531 1.57894531 -6.41898437 1.49773437 -5.5703125 1.4140625 C-2.92454739 1.00894535 -2.81847556 0.10992494 0 0 Z " fill="#385FA9" transform="translate(347.50390625,169.90234375)"/>
<path d="M0 0 C1.32 0 2.64 0 4 0 C4 1.65 4 3.3 4 5 C-2.625 6.125 -2.625 6.125 -6 5 C-6 4.01 -6 3.02 -6 2 C-4.7934375 1.7834375 -4.7934375 1.7834375 -3.5625 1.5625 C-1.07896294 1.25864751 -1.07896294 1.25864751 0 0 Z " fill="#4063A9" transform="translate(388,122)"/>
<path d="M0 0 C-0.66 1.32 -1.32 2.64 -2 4 C-2.66 4 -3.32 4 -4 4 C-4 4.66 -4 5.32 -4 6 C-4.66 6 -5.32 6 -6 6 C-6 7.65 -6 9.3 -6 11 C-7.32 10.67 -8.64 10.34 -10 10 C-9.43867066 6.4628562 -8.30442253 5.00738321 -5.5625 2.75 C-4.94503906 2.22921875 -4.32757813 1.7084375 -3.69140625 1.171875 C-2 0 -2 0 0 0 Z " fill="#3F62A9" transform="translate(356,141)"/>
<path d="M0 0 C2.86866099 2.86866099 2.2905793 5.16650096 2.32226562 9.08984375 C2.31904297 10.00894531 2.31582031 10.92804688 2.3125 11.875 C2.32861328 12.78636719 2.34472656 13.69773438 2.36132812 14.63671875 C2.36197266 15.51714844 2.36261719 16.39757812 2.36328125 17.3046875 C2.36626221 18.10890137 2.36924316 18.91311523 2.37231445 19.74169922 C1.91678565 22.5047428 0.81206487 23.90673716 -1 26 C-0.9278125 25.46375 -0.855625 24.9275 -0.78125 24.375 C0.18138269 16.24610176 0.09123205 8.17033709 0 0 Z " fill="#AEBBDC" transform="translate(538,172)"/>
<path d="M0 0 C0.66 1.32 1.32 2.64 2 4 C9.92 4.33 17.84 4.66 26 5 C26 5.33 26 5.66 26 6 C17.09 6 8.18 6 -1 6 C-0.67 4.02 -0.34 2.04 0 0 Z " fill="#D6DDED" transform="translate(357,350)"/>
<path d="M0 0 C2 1 2 1 3.0625 4 C3.371875 4.99 3.68125 5.98 4 7 C4.33 7.33 4.66 7.66 5 8 C5.39666227 10.18019479 5.74315237 12.3696463 6.0625 14.5625 C6.23910156 15.76003906 6.41570312 16.95757812 6.59765625 18.19140625 C6.73042969 19.11824219 6.86320312 20.04507812 7 21 C6.34 21 5.68 21 5 21 C4.16267257 17.87605609 3.33082018 14.75068026 2.5 11.625 C2.26152344 10.73554688 2.02304687 9.84609375 1.77734375 8.9296875 C1.55175781 8.07890625 1.32617188 7.228125 1.09375 6.3515625 C0.88427734 5.56604004 0.67480469 4.78051758 0.45898438 3.97119141 C0 2 0 2 0 0 Z " fill="#BCC9E3" transform="translate(404,333)"/>
<path d="M0 0 C3.09423168 3.09423168 3.93706005 6.5523812 4.125 10.875 C4.08375 11.57625 4.0425 12.2775 4 13 C3.01 13 2.02 13 1 13 C-1.42857143 4.57142857 -1.42857143 4.57142857 0 0 Z " fill="#3D63AA" transform="translate(537,315)"/>
<path d="M0 0 C0.33 0.66 0.66 1.32 1 2 C1.66 2 2.32 2 3 2 C3.0810206 4.10353495 3.13919907 6.20795952 3.1875 8.3125 C3.22230469 9.48425781 3.25710938 10.65601563 3.29296875 11.86328125 C3 15 3 15 0 18 C0 12.06 0 6.12 0 0 Z " fill="#3D61AC" transform="translate(298,287)"/>
<path d="M0 0 C1.485 0.99 1.485 0.99 3 2 C3.29296875 4.8203125 3.29296875 4.8203125 3.1875 8.125 C3.16042969 9.22070312 3.13335937 10.31640625 3.10546875 11.4453125 C3.07066406 12.28835937 3.03585937 13.13140625 3 14 C3.66 14 4.32 14 5 14 C5 16.64 5 19.28 5 22 C3.10885378 18.21770756 1.8601923 15.4951235 1.5 11.25 C1.15412976 7.46189732 0.68967657 3.7439585 0 0 Z " fill="#8398C9" transform="translate(456,186)"/>
<path d="M0 0 C0 0.99 0 1.98 0 3 C-5.28 3 -10.56 3 -16 3 C-16 2.34 -16 1.68 -16 1 C-13.89594609 0.83191581 -11.79175242 0.66558052 -9.6875 0.5 C-8.51574219 0.4071875 -7.34398437 0.314375 -6.13671875 0.21875 C-4.094806 0.07635011 -2.0468721 0 0 0 Z " fill="#3C60A9" transform="translate(376,166)"/>
<path d="M0 0 C0.99 0.33 1.98 0.66 3 1 C2.67 1.66 2.34 2.32 2 3 C1.34 3 0.68 3 0 3 C-0.18175781 3.81984375 -0.36351562 4.6396875 -0.55078125 5.484375 C-0.80214844 6.56203125 -1.05351563 7.6396875 -1.3125 8.75 C-1.55613281 9.81734375 -1.79976562 10.8846875 -2.05078125 11.984375 C-2.9754825 14.92210901 -4.00092358 16.69294262 -6 19 C-3.96875 3.96875 -3.96875 3.96875 0 0 Z " fill="#A3B2D3" transform="translate(532,315)"/>
<path d="M0 0 C0.87914062 0.00902344 1.75828125 0.01804687 2.6640625 0.02734375 C4.8178271 0.05075423 6.97145014 0.0866199 9.125 0.125 C9.125 0.455 9.125 0.785 9.125 1.125 C8.23296875 1.18558594 7.3409375 1.24617188 6.421875 1.30859375 C4.66617187 1.43427734 4.66617187 1.43427734 2.875 1.5625 C1.71484375 1.64371094 0.5546875 1.72492188 -0.640625 1.80859375 C-3.20324447 2.05928478 -5.40181866 2.49622508 -7.875 3.125 C-9.29034778 3.18956879 -10.70837689 3.21111039 -12.125 3.1875 C-13.98125 3.1565625 -13.98125 3.1565625 -15.875 3.125 C-15.875 2.795 -15.875 2.465 -15.875 2.125 C-10.49292923 -0.11605897 -5.71754456 -0.11193988 0 0 Z " fill="#CBD3E7" transform="translate(421.875,112.875)"/>
<path d="M0 0 C0.66 0 1.32 0 2 0 C2 1.65 2 3.3 2 5 C2.99 5.33 3.98 5.66 5 6 C4.979375 7.134375 4.95875 8.26875 4.9375 9.4375 C4.58422523 12.81575674 4.58422523 12.81575674 6 14 C6.04063832 15.66617115 6.042721 17.33388095 6 19 C2.63488141 12.52861809 0.63642982 7.25529992 0 0 Z " fill="#627FB8" transform="translate(539,328)"/>
<path d="M0 0 C0.99 0.495 0.99 0.495 2 1 C2.37890625 3.21484375 2.37890625 3.21484375 2.5625 5.9375 C2.76801323 9.60675121 2.76801323 9.60675121 4 13 C4.07033769 14.87379605 4.0843022 16.75001102 4.0625 18.625 C4.05347656 19.62789062 4.04445313 20.63078125 4.03515625 21.6640625 C4.02355469 22.43492187 4.01195312 23.20578125 4 24 C3.67 24 3.34 24 3 24 C1.11150323 16.04264468 0.44651878 8.15484303 0 0 Z " fill="#A4B3D8" transform="translate(461,210)"/>
<path d="M0 0 C0.99 0 1.98 0 3 0 C4.80230168 3.82989106 5.19622241 6.78121808 5 11 C1.62668646 8.75112431 1.1641821 7.7612037 0 4 C0 2.68 0 1.36 0 0 Z " fill="#3E62A8" transform="translate(425,328)"/>
<path d="M0 0 C0.82422508 2.35717874 1.15185353 3.57799821 0.29296875 5.96484375 C-0.07183594 6.61582031 -0.43664062 7.26679688 -0.8125 7.9375 C-2.41647791 10.90680167 -3.81249344 13.83331583 -5 17 C-6.43088528 14.13822943 -5.59991697 12.06624227 -5 9 C-4.34 9 -3.68 9 -3 9 C-2.87625 8.2575 -2.7525 7.515 -2.625 6.75 C-2.04513299 4.19858515 -1.26291261 2.2732427 0 0 Z " fill="#99ACCF" transform="translate(365,332)"/>
<path d="M0 0 C0.99 0 1.98 0 3 0 C3.33 3.3 3.66 6.6 4 10 C3.34 10 2.68 10 2 10 C-0.09350689 6.5980513 -0.17942163 3.94727588 0 0 Z " fill="#3F63A8" transform="translate(552,306)"/>
<path d="M0 0 C0.33 0 0.66 0 1 0 C1.25182442 5.79196155 0.72678334 11.43592034 -1 17 C-1.66 17.33 -2.32 17.66 -3 18 C-2.88521587 15.93690624 -2.75773802 13.87451646 -2.625 11.8125 C-2.55539062 10.66394531 -2.48578125 9.51539063 -2.4140625 8.33203125 C-2.02490426 5.20040883 -1.3190149 2.84714191 0 0 Z " fill="#899FC8" transform="translate(405,229)"/>
<path d="M0 0 C0.99 0.33 1.98 0.66 3 1 C3.33 2.98 3.66 4.96 4 7 C0.37 6.34 -3.26 5.68 -7 5 C-7 4.67 -7 4.34 -7 4 C-4.36 4 -1.72 4 1 4 C0.67 2.68 0.34 1.36 0 0 Z " fill="#637EB5" transform="translate(528,152)"/>
<path d="M0 0 C-3.50776784 1.60355101 -6.14354879 2.22036864 -10 2 C-10 2.66 -10 3.32 -10 4 C-11.32 4 -12.64 4 -14 4 C-13.67 3.01 -13.34 2.02 -13 1 C-11.07421875 0.234375 -11.07421875 0.234375 -8.6875 -0.25 C-7.90761719 -0.42015625 -7.12773437 -0.5903125 -6.32421875 -0.765625 C-3.92348133 -1.00771617 -2.28190412 -0.7310448 0 0 Z " fill="#BDC9E5" transform="translate(404,117)"/>
<path d="M0 0 C2.83222793 3.37169992 4.52103176 6.85888893 6 11 C5.6875 13.4375 5.6875 13.4375 5 15 C1.10815152 10.57744491 0 5.80705928 0 0 Z " fill="#8BA0CA" transform="translate(412,287)"/>
<path d="M0 0 C0.66 0.33 1.32 0.66 2 1 C1.34 1.66 0.68 2.32 0 3 C0 3.99 0 4.98 0 6 C-3 8 -3 8 -5.1875 7.625 C-5.785625 7.41875 -6.38375 7.2125 -7 7 C-4.66666667 4.66666667 -2.33333333 2.33333333 0 0 Z " fill="#778DC1" transform="translate(359,134)"/>
<path d="M0 0 C0.99 0 1.98 0 3 0 C2.41196203 3.02419525 1.77321882 6.01758453 1 9 C0.01 9 -0.98 9 -2 9 C-1.34 6.03 -0.68 3.06 0 0 Z " fill="#3E61A9" transform="translate(366,332)"/>
<path d="M0 0 C1.53608118 4.64975924 0.02105433 7.73041337 -2 12 C-3.6875 14.5 -3.6875 14.5 -5 16 C-5 14.02 -5 12.04 -5 10 C-4.01 9.67 -3.02 9.34 -2 9 C-2.04125 8.2575 -2.0825 7.515 -2.125 6.75 C-1.99601866 3.91241048 -1.42948778 2.41226062 0 0 Z " fill="#AFC1DE" transform="translate(378,296)"/>
<path d="M0 0 C2.64836661 3.12988781 4.0048268 6.0193072 5 10 C4.625 12.375 4.625 12.375 4 14 C2.04783565 12.04783565 1.15173355 10.46800047 0 8 C0.66 8 1.32 8 2 8 C1.67 7.4225 1.34 6.845 1 6.25 C0 4 0 4 0 0 Z " fill="#617DB8" transform="translate(419,306)"/>
<path d="M0 0 C0.99 0 1.98 0 3 0 C3.3648363 4.25642352 2.47460354 6.53555505 0 10 C-0.33 10 -0.66 10 -1 10 C-0.67 6.7 -0.34 3.4 0 0 Z " fill="#4062A6" transform="translate(515,295)"/>
<path d="M0 0 C0.66 0.33 1.32 0.66 2 1 C-0.40436026 4.60654039 -1.94679607 4.85452932 -6 6 C-6 6.66 -6 7.32 -6 8 C-7.32 7.67 -8.64 7.34 -10 7 C-7.20283196 3.70921407 -3.80471422 1.93694542 0 0 Z " fill="#B1C0E1" transform="translate(513,227)"/>
<path d="M0 0 C0.99 0.33 1.98 0.66 3 1 C3.6875 3.0625 3.6875 3.0625 4 5 C1.36 5 -1.28 5 -4 5 C-4.33 4.34 -4.66 3.68 -5 3 C-3.35 3 -1.7 3 0 3 C0 2.01 0 1.02 0 0 Z " fill="#385CA4" transform="translate(525,151)"/>
<path d="M0 0 C0.99 0 1.98 0 3 0 C3.33 2.97 3.66 5.94 4 9 C3.34 9 2.68 9 2 9 C0.14223235 5.86501708 -0.20140476 3.62528568 0 0 Z " fill="#3E60AA" transform="translate(561,330)"/>
<path d="M0 0 C0.66 0 1.32 0 2 0 C2.20140476 3.62528568 1.85776765 5.86501708 0 9 C-0.99 9 -1.98 9 -3 9 C-3 7.68 -3 6.36 -3 5 C-2.34 4.67 -1.68 4.34 -1 4 C-0.34786708 1.97536745 -0.34786708 1.97536745 0 0 Z " fill="#3E61AA" transform="translate(507,319)"/>
<path d="M0 0 C1.32 0 2.64 0 4 0 C4 0.66 4 1.32 4 2 C5.65 2.33 7.3 2.66 9 3 C8.34 3.66 7.68 4.32 7 5 C5.68 5 4.36 5 3 5 C3 4.34 3 3.68 3 3 C2.01 2.67 1.02 2.34 0 2 C0 1.34 0 0.68 0 0 Z " fill="#3F62A7" transform="translate(375,235)"/>
<path d="M0 0 C0.66 0 1.32 0 2 0 C1.67 4.29 1.34 8.58 1 13 C0.34 13 -0.32 13 -1 13 C-1.33 13.66 -1.66 14.32 -2 15 C-1.855625 14.195625 -1.71125 13.39125 -1.5625 12.5625 C-0.90311661 8.38640519 -0.43908647 4.20401941 0 0 Z " fill="#96A8CB" transform="translate(408,213)"/>
<path d="M0 0 C-3.20380017 2.13586678 -4.01939967 2.23132175 -7.6875 2.125 C-8.49574219 2.10695312 -9.30398438 2.08890625 -10.13671875 2.0703125 C-11.05904297 2.03550781 -11.05904297 2.03550781 -12 2 C-12.33 3.32 -12.66 4.64 -13 6 C-13 4.35 -13 2.7 -13 1 C-11.58622218 0.63447197 -10.16879424 0.28304505 -8.75 -0.0625 C-7.96109375 -0.25972656 -7.1721875 -0.45695313 -6.359375 -0.66015625 C-3.89605178 -1.01497267 -2.34395868 -0.76877544 0 0 Z " fill="#5D79B4" transform="translate(347,170)"/>
<path d="M0 0 C0.99 0.495 0.99 0.495 2 1 C2 2.65 2 4.3 2 6 C2.99 6.33 3.98 6.66 5 7 C5.33 8.98 5.66 10.96 6 13 C5.01 12.67 4.02 12.34 3 12 C2.05078125 9.78515625 2.05078125 9.78515625 1.3125 7.0625 C1.06113281 6.16660156 0.80976563 5.27070313 0.55078125 4.34765625 C0 2 0 2 0 0 Z " fill="#B8C5DE" transform="translate(423,314)"/>
<path d="M0 0 C0.66 0 1.32 0 2 0 C1.67 2.97 1.34 5.94 1 9 C0.01 9 -0.98 9 -2 9 C-1.51421457 5.87709365 -1.0013988 3.00419641 0 0 Z " fill="#3D60A9" transform="translate(382,291)"/>
<path d="M0 0 C0 3 0 3 -1.53125 4.82421875 C-2.1809375 5.43910156 -2.830625 6.05398437 -3.5 6.6875 C-4.1496875 7.31011719 -4.799375 7.93273437 -5.46875 8.57421875 C-5.9740625 9.04472656 -6.479375 9.51523438 -7 10 C-7.66 9.67 -8.32 9.34 -9 9 C-9 8.34 -9 7.68 -9 7 C-7.02053408 5.63636792 -5.0180755 4.30581356 -3 3 C-1.20605554 1.37648891 -1.20605554 1.37648891 0 0 Z " fill="#E8EBF5" transform="translate(524,219)"/>
<path d="M0 0 C0.66 0 1.32 0 2 0 C1.125 6.75 1.125 6.75 0 9 C-0.66 9 -1.32 9 -2 9 C-2 7.35 -2 5.7 -2 4 C-1.34 4 -0.68 4 0 4 C0 2.68 0 1.36 0 0 Z " fill="#3C5FA9" transform="translate(500,337)"/>
<path d="M0 0 C-0.33 0.66 -0.66 1.32 -1 2 C-3.64 2 -6.28 2 -9 2 C-9 1.34 -9 0.68 -9 0 C-5.52176885 -1.15941038 -3.54104422 -0.70820884 0 0 Z " fill="#3B60A6" transform="translate(414,118)"/>
<path d="M0 0 C2.31 0 4.62 0 7 0 C7.66 1.32 8.32 2.64 9 4 C4.545 3.01 4.545 3.01 0 2 C0 1.34 0 0.68 0 0 Z " fill="#385DA6" transform="translate(392,242)"/>
<path d="M0 0 C3.44216672 2.6598561 3.99504674 5.90288286 5 10 C4.01 10 3.02 10 2 10 C0.68373308 6.38026598 0 3.90432869 0 0 Z " fill="#C5CFE5" transform="translate(335,200)"/>
<path d="M0 0 C0.99 0 1.98 0 3 0 C2.67 3.96 2.34 7.92 2 12 C1.67 12 1.34 12 1 12 C0.63896464 10.18885568 0.28634496 8.37603177 -0.0625 6.5625 C-0.25972656 5.55316406 -0.45695312 4.54382813 -0.66015625 3.50390625 C-0.77230469 2.67761719 -0.88445312 1.85132813 -1 1 C-0.67 0.67 -0.34 0.34 0 0 Z " fill="#647FB7" transform="translate(409,200)"/>
<path d="M0 0 C2.97 0 5.94 0 9 0 C9 0.66 9 1.32 9 2 C9.66 2.33 10.32 2.66 11 3 C9.54077307 2.88590407 8.08259402 2.75834456 6.625 2.625 C5.40683594 2.52058594 5.40683594 2.52058594 4.1640625 2.4140625 C2 2 2 2 0 0 Z " fill="#B0BBD9" transform="translate(481,150)"/>
<path d="M0 0 C2.64 0.33 5.28 0.66 8 1 C7.67 1.66 7.34 2.32 7 3 C4.36 3 1.72 3 -1 3 C-0.67 2.01 -0.34 1.02 0 0 Z " fill="#355BA0" transform="translate(360,350)"/>
<path d="M0 0 C0.66 0 1.32 0 2 0 C2.33 1.98 2.66 3.96 3 6 C1.68 5.34 0.36 4.68 -1 4 C-1.33 4.99 -1.66 5.98 -2 7 C-1.125 1.125 -1.125 1.125 0 0 Z " fill="#D3DCEA" transform="translate(397,316)"/>
<path d="M0 0 C-0.33 0.66 -0.66 1.32 -1 2 C-3.31 2 -5.62 2 -8 2 C-8.33 1.34 -8.66 0.68 -9 0 C-3.375 -1.125 -3.375 -1.125 0 0 Z " fill="#395EA5" transform="translate(363,152)"/>
<path d="M0 0 C0.66 0 1.32 0 2 0 C2 1.98 2 3.96 2 6 C1.01 6 0.02 6 -1 6 C-1.042721 4.33388095 -1.04063832 2.66617115 -1 1 C-0.67 0.67 -0.34 0.34 0 0 Z " fill="#3E64A8" transform="translate(519,342)"/>
<path d="M0 0 C1.46726798 3.81489674 0.43336419 6.29011622 -1 10 C-1.66 10 -2.32 10 -3 10 C-2.67 7.36 -2.34 4.72 -2 2 C-1.34 2 -0.68 2 0 2 C0 1.34 0 0.68 0 0 Z " fill="#8CA3D0" transform="translate(514,296)"/>
<path d="M0 0 C1.32 0.33 2.64 0.66 4 1 C4.33 2.32 4.66 3.64 5 5 C2.525 4.01 2.525 4.01 0 3 C0 2.01 0 1.02 0 0 Z " fill="#4062A7" transform="translate(505,133)"/>
</svg>
